<?xml version="1.0" encoding="UTF-8" standalone="no"?>
<svg
   xmlns:dc="http://purl.org/dc/elements/1.1/"
   xmlns:cc="http://creativecommons.org/ns#"
   xmlns:rdf="http://www.w3.org/1999/02/22-rdf-syntax-ns#"
   xmlns:svg="http://www.w3.org/2000/svg"
   xmlns="http://www.w3.org/2000/svg"
   version="1.1"
   id="svg2"
   viewBox="0 0 998.43343 885.53568"
   height="249.91785mm"
   width="281.78009mm">
  <defs
     id="defs4">
    <marker
       style="overflow:visible"
       id="marker10200"
       refX="0"
       refY="0"
       orient="auto">
      <path
         transform="matrix(1.1,0,0,1.1,1.1,0)"
         d="M 8.7185878,4.0337352 -2.2072895,0.01601326 8.7185884,-4.0017078 c -1.7454984,2.3720609 -1.7354408,5.6174519 -6e-7,8.035443 z"
         style="fill:#000000;fill-opacity:1;fill-rule:evenodd;stroke:#000000;stroke-width:0.625;stroke-linejoin:round;stroke-opacity:1"
         id="path10202" />
    </marker>
    <marker
       orient="auto"
       refY="0"
       refX="0"
       id="marker4345"
       style="overflow:visible">
      <path
         id="path4347"
         style="fill:#000000;fill-opacity:1;fill-rule:evenodd;stroke:#000000;stroke-width:0.625;stroke-linejoin:round;stroke-opacity:1"
         d="M 8.7185878,4.0337352 -2.2072895,0.01601326 8.7185884,-4.0017078 c -1.7454984,2.3720609 -1.7354408,5.6174519 -6e-7,8.035443 z"
         transform="matrix(-1.1,0,0,-1.1,-1.1,0)" />
    </marker>
    <marker
       orient="auto"
       refY="0"
       refX="0"
       id="marker4275"
       style="overflow:visible">
      <path
         id="path4277"
         style="fill:#000000;fill-opacity:1;fill-rule:evenodd;stroke:#000000;stroke-width:0.625;stroke-linejoin:round;stroke-opacity:1"
         d="M 8.7185878,4.0337352 -2.2072895,0.01601326 8.7185884,-4.0017078 c -1.7454984,2.3720609 -1.7354408,5.6174519 -6e-7,8.035443 z"
         transform="matrix(1.1,0,0,1.1,1.1,0)" />
    </marker>
    <marker
       style="overflow:visible"
       id="Arrow2Lend"
       refX="0"
       refY="0"
       orient="auto">
      <path
         transform="matrix(-1.1,0,0,-1.1,-1.1,0)"
         d="M 8.7185878,4.0337352 -2.2072895,0.01601326 8.7185884,-4.0017078 c -1.7454984,2.3720609 -1.7354408,5.6174519 -6e-7,8.035443 z"
         style="fill:#000000;fill-opacity:1;fill-rule:evenodd;stroke:#000000;stroke-width:0.625;stroke-linejoin:round;stroke-opacity:1"
         id="path4479" />
    </marker>
    <marker
       style="overflow:visible"
       id="Arrow2Lstart"
       refX="0"
       refY="0"
       orient="auto">
      <path
         transform="matrix(1.1,0,0,1.1,1.1,0)"
         d="M 8.7185878,4.0337352 -2.2072895,0.01601326 8.7185884,-4.0017078 c -1.7454984,2.3720609 -1.7354408,5.6174519 -6e-7,8.035443 z"
         style="fill:#000000;fill-opacity:1;fill-rule:evenodd;stroke:#000000;stroke-width:0.625;stroke-linejoin:round;stroke-opacity:1"
         id="path4476" />
    </marker>
    <marker
       style="overflow:visible"
       id="Arrow2Lstart-3"
       refX="0"
       refY="0"
       orient="auto">
      <path
         transform="matrix(1.1,0,0,1.1,1.1,0)"
         d="M 8.7185878,4.0337352 -2.2072895,0.01601326 8.7185884,-4.0017078 c -1.7454984,2.3720609 -1.7354408,5.6174519 -6e-7,8.035443 z"
         style="fill:#000000;fill-opacity:1;fill-rule:evenodd;stroke:#000000;stroke-width:0.625;stroke-linejoin:round;stroke-opacity:1"
         id="path4476-6" />
    </marker>
    <marker
       style="overflow:visible"
       id="Arrow2Lend-4"
       refX="0"
       refY="0"
       orient="auto">
      <path
         transform="matrix(-1.1,0,0,-1.1,-1.1,0)"
         d="M 8.7185878,4.0337352 -2.2072895,0.01601326 8.7185884,-4.0017078 c -1.7454984,2.3720609 -1.7354408,5.6174519 -6e-7,8.035443 z"
         style="fill:#000000;fill-opacity:1;fill-rule:evenodd;stroke:#000000;stroke-width:0.625;stroke-linejoin:round;stroke-opacity:1"
         id="path4479-3" />
    </marker>
    <marker
       orient="auto"
       refY="0"
       refX="0"
       id="marker4275-7"
       style="overflow:visible">
      <path
         id="path4277-5"
         style="fill:#000000;fill-opacity:1;fill-rule:evenodd;stroke:#000000;stroke-width:0.625;stroke-linejoin:round;stroke-opacity:1"
         d="M 8.7185878,4.0337352 -2.2072895,0.01601326 8.7185884,-4.0017078 c -1.7454984,2.3720609 -1.7354408,5.6174519 -6e-7,8.035443 z"
         transform="matrix(1.1,0,0,1.1,1.1,0)" />
    </marker>
    <marker
       orient="auto"
       refY="0"
       refX="0"
       id="marker4345-6"
       style="overflow:visible">
      <path
         id="path4347-4"
         style="fill:#000000;fill-opacity:1;fill-rule:evenodd;stroke:#000000;stroke-width:0.625;stroke-linejoin:round;stroke-opacity:1"
         d="M 8.7185878,4.0337352 -2.2072895,0.01601326 8.7185884,-4.0017078 c -1.7454984,2.3720609 -1.7354408,5.6174519 -6e-7,8.035443 z"
         transform="matrix(-1.1,0,0,-1.1,-1.1,0)" />
    </marker>
    <marker
       orient="auto"
       refY="0"
       refX="0"
       id="marker4345-3"
       style="overflow:visible">
      <path
         id="path4347-7"
         style="fill:#000000;fill-opacity:1;fill-rule:evenodd;stroke:#000000;stroke-width:0.625;stroke-linejoin:round;stroke-opacity:1"
         d="M 8.7185878,4.0337352 -2.2072895,0.01601326 8.7185884,-4.0017078 c -1.7454984,2.3720609 -1.7354408,5.6174519 -6e-7,8.035443 z"
         transform="matrix(-1.1,0,0,-1.1,-1.1,0)" />
    </marker>
    <marker
       orient="auto"
       refY="0"
       refX="0"
       id="marker4345-3-3"
       style="overflow:visible">
      <path
         id="path4347-7-5"
         style="fill:#000000;fill-opacity:1;fill-rule:evenodd;stroke:#000000;stroke-width:0.625;stroke-linejoin:round;stroke-opacity:1"
         d="M 8.7185878,4.0337352 -2.2072895,0.01601326 8.7185884,-4.0017078 c -1.7454984,2.3720609 -1.7354408,5.6174519 -6e-7,8.035443 z"
         transform="matrix(-1.1,0,0,-1.1,-1.1,0)" />
    </marker>
  </defs>
  <metadata
     id="metadata7">
    <rdf:RDF>
      <cc:Work
         rdf:about="">
        <dc:format>image/svg+xml</dc:format>
        <dc:type
           rdf:resource="http://purl.org/dc/dcmitype/StillImage" />
        <dc:title />
      </cc:Work>
    </rdf:RDF>
  </metadata>
  <g
     transform="translate(935.12915,142.26952)"
     id="layer1" />
  <g
     transform="translate(792.62915,75.488894)"
     id="layer2">
    <g
       id="flowRoot4242"
       style="font-style:normal;font-weight:normal;font-size:27.5px;line-height:125%;font-family:sans-serif;letter-spacing:0px;word-spacing:0px;fill:#000000;fill-opacity:1;stroke:none;stroke-width:1px;stroke-linecap:butt;stroke-linejoin:miter;stroke-opacity:1"
       transform="translate(0,-3.0517578e-5)" />
    <g
       id="text4250"
       style="font-style:normal;font-variant:normal;font-weight:normal;font-stretch:normal;font-size:25px;line-height:120.00000477%;font-family:Roboto;-inkscape-font-specification:'Roboto, Normal';text-align:center;letter-spacing:0px;word-spacing:0px;writing-mode:lr-tb;text-anchor:middle;fill:#000000;fill-opacity:1;stroke:none;stroke-width:1px;stroke-linecap:butt;stroke-linejoin:miter;stroke-opacity:1" />
    <g
       transform="translate(0,-9.6302824)"
       id="g8849">
      <path
         id="rect4358"
         d="m -791.37915,319.76636 350,0 0,114.28571 -350,0 z"
         style="opacity:1;fill:#2673b2;fill-opacity:0.07843137;stroke:#2673b2;stroke-width:2.5;stroke-linecap:round;stroke-linejoin:miter;stroke-miterlimit:10;stroke-dasharray:none;stroke-opacity:1" />
      <g
         id="text4177-6"
         style="font-style:normal;font-variant:normal;font-weight:normal;font-stretch:normal;font-size:40px;line-height:120.00000477%;font-family:Roboto;-inkscape-font-specification:'Roboto, Normal';text-align:center;letter-spacing:0px;word-spacing:0px;writing-mode:lr-tb;text-anchor:middle;fill:#000000;fill-opacity:1;stroke:none;stroke-width:1px;stroke-linecap:butt;stroke-linejoin:miter;stroke-opacity:1">
        <path
           id="path62"
           style="font-style:normal;font-variant:normal;font-weight:normal;font-stretch:normal;font-size:40px;line-height:120.00000477%;font-family:Roboto;-inkscape-font-specification:'Roboto, Normal';text-align:center;writing-mode:lr-tb;text-anchor:middle"
           d="m -652.65442,362.29007 -9.14062,0 0,25.35156 -3.73047,0 0,-25.35156 -9.1211,0 0,-3.08594 21.99219,0 0,3.08594 z" />
        <path
           id="path64"
           style="font-style:normal;font-variant:normal;font-weight:normal;font-stretch:normal;font-size:40px;line-height:120.00000477%;font-family:Roboto;-inkscape-font-specification:'Roboto, Normal';text-align:center;writing-mode:lr-tb;text-anchor:middle"
           d="m -645.34973,369.06741 q 2.40234,-2.94922 6.25,-2.94922 6.69922,0 6.75781,7.5586 l 0,13.96484 -3.61328,0 0,-13.98437 q -0.0195,-2.28516 -1.05469,-3.37891 -1.01562,-1.09375 -3.18359,-1.09375 -1.75781,0 -3.08594,0.9375 -1.32812,0.9375 -2.07031,2.46094 l 0,15.05859 -3.61328,0 0,-30 3.61328,0 0,11.42578 z" />
        <path
           id="path66"
           style="font-style:normal;font-variant:normal;font-weight:normal;font-stretch:normal;font-size:40px;line-height:120.00000477%;font-family:Roboto;-inkscape-font-specification:'Roboto, Normal';text-align:center;writing-mode:lr-tb;text-anchor:middle"
           d="m -618.16223,388.03226 q -4.29688,0 -6.99219,-2.8125 -2.69531,-2.83203 -2.69531,-7.5586 l 0,-0.66406 q 0,-3.14453 1.1914,-5.60547 1.21094,-2.48047 3.35938,-3.86719 2.16797,-1.40625 4.6875,-1.40625 4.12109,0 6.40625,2.71485 2.28516,2.71484 2.28516,7.77344 l 0,1.5039 -14.31641,0 q 0.0781,3.125 1.81641,5.0586 1.75781,1.91406 4.45312,1.91406 1.91406,0 3.24219,-0.78125 1.32812,-0.78125 2.32422,-2.07031 l 2.20703,1.71875 q -2.65625,4.08203 -7.96875,4.08203 z m -0.44922,-18.94532 q -2.1875,0 -3.67188,1.60157 -1.48437,1.58203 -1.83593,4.45312 l 10.58593,0 0,-0.27344 q -0.15625,-2.7539 -1.48437,-4.25781 -1.32813,-1.52344 -3.59375,-1.52344 z" />
        <path
           id="path68"
           style="font-style:normal;font-variant:normal;font-weight:normal;font-stretch:normal;font-size:40px;line-height:120.00000477%;font-family:Roboto;-inkscape-font-specification:'Roboto, Normal';text-align:center;writing-mode:lr-tb;text-anchor:middle"
           d="m -606.71692,376.87991 q 0,-3.10547 1.21094,-5.58593 1.23047,-2.48047 3.39844,-3.82813 2.1875,-1.34766 4.98046,-1.34766 4.31641,0 6.97266,2.98829 2.67578,2.98828 2.67578,7.94921 l 0,0.25391 q 0,3.08594 -1.1914,5.54688 -1.17188,2.4414 -3.37891,3.80859 -2.1875,1.36719 -5.03906,1.36719 -4.29688,0 -6.97266,-2.98828 -2.65625,-2.98829 -2.65625,-7.91016 l 0,-0.25391 z m 3.63281,0.42969 q 0,3.51563 1.6211,5.64453 1.64062,2.12891 4.375,2.12891 2.7539,0 4.375,-2.14844 1.62109,-2.16797 1.62109,-6.05469 0,-3.47656 -1.66016,-5.625 -1.64062,-2.16797 -4.375,-2.16797 -2.67578,0 -4.3164,2.12891 -1.64063,2.12891 -1.64063,6.09375 z" />
        <path
           id="path70"
           style="font-style:normal;font-variant:normal;font-weight:normal;font-stretch:normal;font-size:40px;line-height:120.00000477%;font-family:Roboto;-inkscape-font-specification:'Roboto, Normal';text-align:center;writing-mode:lr-tb;text-anchor:middle"
           d="m -572.73254,369.75101 q -0.82032,-0.13672 -1.77735,-0.13672 -3.55469,0 -4.82422,3.02734 l 0,15 -3.61328,0 0,-21.13281 3.51563,0 0.0586,2.44141 q 1.77734,-2.83204 5.03906,-2.83204 1.05469,0 1.60157,0.27344 l 0,3.35938 z" />
        <path
           id="path72"
           style="font-style:normal;font-variant:normal;font-weight:normal;font-stretch:normal;font-size:40px;line-height:120.00000477%;font-family:Roboto;-inkscape-font-specification:'Roboto, Normal';text-align:center;writing-mode:lr-tb;text-anchor:middle"
           d="m -562.5177,382.34866 4.92187,-15.83984 3.86719,0 -8.49609,24.39453 q -1.97266,5.27344 -6.26953,5.27344 l -0.6836,-0.0586 -1.34765,-0.2539 0,-2.92969 0.97656,0.0781 q 1.83594,0 2.85156,-0.74219 1.03516,-0.74219 1.69922,-2.71485 l 0.80078,-2.14843 -7.53906,-20.89844 3.94531,0 5.27344,15.83984 z" />
      </g>
    </g>
    <g
       transform="translate(332.41144,-87.363925)"
       id="g4394">
      <path
         id="rect4358-2"
         d="m -477.85715,397.5 350,0 0,114.28571 -350,0 z"
         style="opacity:1;fill:#ff800d;fill-opacity:0.07843137;stroke:#ff800d;stroke-width:2.5;stroke-linecap:round;stroke-linejoin:miter;stroke-miterlimit:10;stroke-dasharray:none;stroke-opacity:1" />
      <g
         id="text4177-6-9"
         style="font-style:normal;font-variant:normal;font-weight:normal;font-stretch:normal;font-size:40px;line-height:120.00000477%;font-family:Roboto;-inkscape-font-specification:'Roboto, Normal';text-align:center;letter-spacing:0px;word-spacing:0px;writing-mode:lr-tb;text-anchor:middle;fill:#000000;fill-opacity:1;stroke:none;stroke-width:1px;stroke-linecap:butt;stroke-linejoin:miter;stroke-opacity:1">
        <path
           id="path76"
           style="font-style:normal;font-variant:normal;font-weight:normal;font-stretch:normal;font-size:40px;line-height:120.00000477%;font-family:Roboto;-inkscape-font-specification:'Roboto, Normal';text-align:center;writing-mode:lr-tb;text-anchor:middle"
           d="m -384.11691,452.23074 -12.32422,0 0,10.07813 14.3164,0 0,3.0664 -18.0664,0 0,-28.4375 17.87109,0 0,3.08594 -14.12109,0 0,9.14063 12.32422,0 0,3.0664 z" />
        <path
           id="path78"
           style="font-style:normal;font-variant:normal;font-weight:normal;font-stretch:normal;font-size:40px;line-height:120.00000477%;font-family:Roboto;-inkscape-font-specification:'Roboto, Normal';text-align:center;writing-mode:lr-tb;text-anchor:middle"
           d="m -370.93332,451.95731 4.6875,-7.71485 4.21875,0 -6.91406,10.44922 7.1289,10.68359 -4.17968,0 -4.88282,-7.91015 -4.88281,7.91015 -4.19922,0 7.12891,-10.68359 -6.91406,-10.44922 4.17968,0 4.62891,7.71485 z" />
        <path
           id="path80"
           style="font-style:normal;font-variant:normal;font-weight:normal;font-stretch:normal;font-size:40px;line-height:120.00000477%;font-family:Roboto;-inkscape-font-specification:'Roboto, Normal';text-align:center;writing-mode:lr-tb;text-anchor:middle"
           d="m -340.32785,455.04324 q 0,4.82422 -2.20703,7.77344 -2.20703,2.94922 -5.97656,2.94922 -3.84766,0 -6.05469,-2.44141 l 0,10.17578 -3.61328,0 0,-29.25781 3.30078,0 0.17578,2.34375 q 2.20703,-2.73437 6.13281,-2.73437 3.8086,0 6.01563,2.87109 2.22656,2.87109 2.22656,7.98828 l 0,0.33203 z m -3.61328,-0.41015 q 0,-3.57422 -1.52344,-5.64453 -1.52344,-2.07032 -4.17969,-2.07032 -3.28125,0 -4.92187,2.91016 l 0,10.09766 q 1.62109,2.89062 4.96094,2.89062 2.59765,0 4.12109,-2.05078 1.54297,-2.07031 1.54297,-6.13281 z" />
        <path
           id="path82"
           style="font-style:normal;font-variant:normal;font-weight:normal;font-stretch:normal;font-size:40px;line-height:120.00000477%;font-family:Roboto;-inkscape-font-specification:'Roboto, Normal';text-align:center;writing-mode:lr-tb;text-anchor:middle"
           d="m -326.98801,465.7659 q -4.29687,0 -6.99218,-2.8125 -2.69532,-2.83203 -2.69532,-7.55859 l 0,-0.66407 q 0,-3.14453 1.19141,-5.60547 1.21094,-2.48046 3.35937,-3.86718 2.16797,-1.40625 4.6875,-1.40625 4.1211,0 6.40625,2.71484 2.28516,2.71484 2.28516,7.77344 l 0,1.5039 -14.31641,0 q 0.0781,3.125 1.81641,5.0586 1.75781,1.91406 4.45313,1.91406 1.91406,0 3.24218,-0.78125 1.32813,-0.78125 2.32422,-2.07031 l 2.20703,1.71875 q -2.65625,4.08203 -7.96875,4.08203 z m -0.44922,-18.94531 q -2.1875,0 -3.67187,1.60156 -1.48438,1.58203 -1.83594,4.45312 l 10.58594,0 0,-0.27343 q -0.15625,-2.75391 -1.48438,-4.25782 -1.32812,-1.52343 -3.59375,-1.52343 z" />
        <path
           id="path84"
           style="font-style:normal;font-variant:normal;font-weight:normal;font-stretch:normal;font-size:40px;line-height:120.00000477%;font-family:Roboto;-inkscape-font-specification:'Roboto, Normal';text-align:center;writing-mode:lr-tb;text-anchor:middle"
           d="m -304.37082,447.48465 q -0.82031,-0.13672 -1.77734,-0.13672 -3.55469,0 -4.82422,3.02734 l 0,15 -3.61328,0 0,-21.13281 3.51562,0 0.0586,2.44141 q 1.77734,-2.83203 5.03906,-2.83203 1.05469,0 1.60156,0.27343 l 0,3.35938 z" />
        <path
           id="path86"
           style="font-style:normal;font-variant:normal;font-weight:normal;font-stretch:normal;font-size:40px;line-height:120.00000477%;font-family:Roboto;-inkscape-font-specification:'Roboto, Normal';text-align:center;writing-mode:lr-tb;text-anchor:middle"
           d="m -297.14426,465.37527 -3.61328,0 0,-21.13281 3.61328,0 0,21.13281 z m -3.90625,-26.73828 q 0,-0.8789 0.52735,-1.48437 0.54687,-0.60547 1.60156,-0.60547 1.05469,0 1.60156,0.60547 0.54688,0.60547 0.54688,1.48437 0,0.87891 -0.54688,1.46485 -0.54687,0.58593 -1.60156,0.58593 -1.05469,0 -1.60156,-0.58593 -0.52735,-0.58594 -0.52735,-1.46485 z" />
        <path
           id="path88"
           style="font-style:normal;font-variant:normal;font-weight:normal;font-stretch:normal;font-size:40px;line-height:120.00000477%;font-family:Roboto;-inkscape-font-specification:'Roboto, Normal';text-align:center;writing-mode:lr-tb;text-anchor:middle"
           d="m -287.9841,444.24246 0.0977,2.34375 q 2.32421,-2.73437 6.26953,-2.73437 4.43359,0 6.03515,3.39843 1.05469,-1.52343 2.73438,-2.46093 1.69922,-0.9375 4.0039,-0.9375 6.95313,0 7.07032,7.36328 l 0,14.16015 -3.61328,0 0,-13.94531 q 0,-2.26562 -1.03516,-3.3789 -1.03516,-1.13282 -3.47656,-1.13282 -2.01172,0 -3.33985,1.21094 -1.32812,1.19141 -1.54297,3.22266 l 0,14.02343 -3.63281,0 0,-13.84765 q 0,-4.60938 -4.51172,-4.60938 -3.55468,0 -4.86328,3.02735 l 0,15.42968 -3.61328,0 0,-21.13281 3.41797,0 z" />
        <path
           id="path90"
           style="font-style:normal;font-variant:normal;font-weight:normal;font-stretch:normal;font-size:40px;line-height:120.00000477%;font-family:Roboto;-inkscape-font-specification:'Roboto, Normal';text-align:center;writing-mode:lr-tb;text-anchor:middle"
           d="m -247.53488,465.7659 q -4.29688,0 -6.99219,-2.8125 -2.69531,-2.83203 -2.69531,-7.55859 l 0,-0.66407 q 0,-3.14453 1.1914,-5.60547 1.21094,-2.48046 3.35938,-3.86718 2.16797,-1.40625 4.6875,-1.40625 4.12109,0 6.40625,2.71484 2.28516,2.71484 2.28516,7.77344 l 0,1.5039 -14.31641,0 q 0.0781,3.125 1.81641,5.0586 1.75781,1.91406 4.45312,1.91406 1.91406,0 3.24219,-0.78125 1.32812,-0.78125 2.32422,-2.07031 l 2.20703,1.71875 q -2.65625,4.08203 -7.96875,4.08203 z m -0.44922,-18.94531 q -2.1875,0 -3.67188,1.60156 -1.48437,1.58203 -1.83593,4.45312 l 10.58593,0 0,-0.27343 q -0.15625,-2.75391 -1.48437,-4.25782 -1.32813,-1.52343 -3.59375,-1.52343 z" />
        <path
           id="path92"
           style="font-style:normal;font-variant:normal;font-weight:normal;font-stretch:normal;font-size:40px;line-height:120.00000477%;font-family:Roboto;-inkscape-font-specification:'Roboto, Normal';text-align:center;writing-mode:lr-tb;text-anchor:middle"
           d="m -231.71457,444.24246 0.11719,2.65625 q 2.42187,-3.04687 6.32812,-3.04687 6.69922,0 6.75782,7.55859 l 0,13.96484 -3.61329,0 0,-13.98437 q -0.0195,-2.28516 -1.05468,-3.37891 -1.01563,-1.09375 -3.1836,-1.09375 -1.75781,0 -3.08593,0.9375 -1.32813,0.9375 -2.07032,2.46094 l 0,15.05859 -3.61328,0 0,-21.13281 3.41797,0 z" />
        <path
           id="path94"
           style="font-style:normal;font-variant:normal;font-weight:normal;font-stretch:normal;font-size:40px;line-height:120.00000477%;font-family:Roboto;-inkscape-font-specification:'Roboto, Normal';text-align:center;writing-mode:lr-tb;text-anchor:middle"
           d="m -208.12082,439.12527 0,5.11719 3.94531,0 0,2.79297 -3.94531,0 0,13.10547 q 0,1.26953 0.52734,1.91406 0.52735,0.625 1.79688,0.625 0.625,0 1.71875,-0.23437 l 0,2.92968 q -1.42578,0.39063 -2.77344,0.39063 -2.42187,0 -3.65234,-1.46484 -1.23047,-1.46485 -1.23047,-4.16016 l 0,-13.10547 -3.84766,0 0,-2.79297 3.84766,0 0,-5.11719 3.61328,0 z" />
      </g>
    </g>
    <g
       transform="translate(0.00231125,58.5123)"
       id="g4428">
      <path
         id="rect4358-2-3"
         d="m -468.44769,635.99878 350,0 0,114.28571 -350,0 z"
         style="opacity:1;fill:#269926;fill-opacity:0.07843137;stroke:#269926;stroke-width:2.5;stroke-linecap:round;stroke-linejoin:miter;stroke-miterlimit:10;stroke-dasharray:none;stroke-opacity:1" />
      <g
         id="text4177-6-9-5"
         style="font-style:normal;font-variant:normal;font-weight:normal;font-stretch:normal;font-size:40px;line-height:120.00000477%;font-family:Roboto;-inkscape-font-specification:'Roboto, Normal';text-align:center;letter-spacing:0px;word-spacing:0px;writing-mode:lr-tb;text-anchor:middle;fill:#000000;fill-opacity:1;stroke:none;stroke-width:1px;stroke-linecap:butt;stroke-linejoin:miter;stroke-opacity:1">
        <path
           id="path98"
           style="font-style:normal;font-variant:normal;font-weight:normal;font-stretch:normal;font-size:40px;line-height:120.00000477%;font-family:Roboto;-inkscape-font-specification:'Roboto, Normal';text-align:center;writing-mode:lr-tb;text-anchor:middle"
           d="m -400.05441,674.92328 q -0.52735,4.51172 -3.33985,6.97266 -2.79297,2.4414 -7.4414,2.4414 -5.03907,0 -8.08594,-3.61328 -3.02734,-3.61328 -3.02734,-9.66797 l 0,-2.73437 q 0,-3.96485 1.40625,-6.97266 1.42578,-3.00781 4.02343,-4.60937 2.59766,-1.6211 6.01563,-1.6211 4.53125,0 7.26562,2.53906 2.73438,2.51954 3.1836,6.99219 l -3.76953,0 q -0.48829,-3.39844 -2.12891,-4.92187 -1.62109,-1.52344 -4.55078,-1.52344 -3.59375,0 -5.64453,2.65625 -2.03125,2.65625 -2.03125,7.55859 l 0,2.75391 q 0,4.62891 1.93359,7.36328 1.93359,2.73438 5.41016,2.73438 3.125,0 4.78515,-1.40625 1.67969,-1.42579 2.22657,-4.94141 l 3.76953,0 z" />
        <path
           id="path100"
           style="font-style:normal;font-variant:normal;font-weight:normal;font-stretch:normal;font-size:40px;line-height:120.00000477%;font-family:Roboto;-inkscape-font-specification:'Roboto, Normal';text-align:center;writing-mode:lr-tb;text-anchor:middle"
           d="m -396.48019,673.185 q 0,-3.10547 1.21093,-5.58594 1.23047,-2.48047 3.39844,-3.82812 2.1875,-1.34766 4.98047,-1.34766 4.31641,0 6.97266,2.98828 2.67578,2.98828 2.67578,7.94922 l 0,0.25391 q 0,3.08593 -1.19141,5.54687 -1.17187,2.44141 -3.37891,3.80859 -2.1875,1.36719 -5.03906,1.36719 -4.29687,0 -6.97265,-2.98828 -2.65625,-2.98828 -2.65625,-7.91016 l 0,-0.2539 z m 3.63281,0.42969 q 0,3.51562 1.62109,5.64453 1.64063,2.1289 4.375,2.1289 2.75391,0 4.375,-2.14843 1.6211,-2.16797 1.6211,-6.05469 0,-3.47656 -1.66016,-5.625 -1.64063,-2.16797 -4.375,-2.16797 -2.67578,0 -4.31641,2.12891 -1.64062,2.1289 -1.64062,6.09375 z" />
        <path
           id="path102"
           style="font-style:normal;font-variant:normal;font-weight:normal;font-stretch:normal;font-size:40px;line-height:120.00000477%;font-family:Roboto;-inkscape-font-specification:'Roboto, Normal';text-align:center;writing-mode:lr-tb;text-anchor:middle"
           d="m -369.31223,662.8139 0.0977,2.34375 q 2.32422,-2.73437 6.26953,-2.73437 4.4336,0 6.03516,3.39844 1.05469,-1.52344 2.73437,-2.46094 1.69922,-0.9375 4.00391,-0.9375 6.95312,0 7.07031,7.36328 l 0,14.16016 -3.61328,0 0,-13.94532 q 0,-2.26562 -1.03516,-3.3789 -1.03515,-1.13281 -3.47656,-1.13281 -2.01172,0 -3.33984,1.21093 -1.32813,1.19141 -1.54297,3.22266 l 0,14.02344 -3.63281,0 0,-13.84766 q 0,-4.60937 -4.51172,-4.60937 -3.55469,0 -4.86328,3.02734 l 0,15.42969 -3.61328,0 0,-21.13282 3.41796,0 z" />
        <path
           id="path104"
           style="font-style:normal;font-variant:normal;font-weight:normal;font-stretch:normal;font-size:40px;line-height:120.00000477%;font-family:Roboto;-inkscape-font-specification:'Roboto, Normal';text-align:center;writing-mode:lr-tb;text-anchor:middle"
           d="m -319.78098,673.61469 q 0,4.82421 -2.20703,7.77343 -2.20703,2.94922 -5.97656,2.94922 -3.84766,0 -6.05469,-2.4414 l 0,10.17578 -3.61328,0 0,-29.25782 3.30078,0 0.17578,2.34375 q 2.20704,-2.73437 6.13282,-2.73437 3.80859,0 6.01562,2.87109 2.22656,2.8711 2.22656,7.98828 l 0,0.33204 z m -3.61328,-0.41016 q 0,-3.57422 -1.52343,-5.64453 -1.52344,-2.07031 -4.17969,-2.07031 -3.28125,0 -4.92188,2.91015 l 0,10.09766 q 1.6211,2.89062 4.96094,2.89062 2.59766,0 4.12109,-2.05078 1.54297,-2.07031 1.54297,-6.13281 z" />
        <path
           id="path106"
           style="font-style:normal;font-variant:normal;font-weight:normal;font-stretch:normal;font-size:40px;line-height:120.00000477%;font-family:Roboto;-inkscape-font-specification:'Roboto, Normal';text-align:center;writing-mode:lr-tb;text-anchor:middle"
           d="m -302.16379,681.85687 q -2.10937,2.48047 -6.1914,2.48047 -3.37891,0 -5.15625,-1.95312 -1.75782,-1.97266 -1.77735,-5.82032 l 0,-13.75 3.61328,0 0,13.65235 q 0,4.80469 3.90625,4.80469 4.14063,0 5.50782,-3.08594 l 0,-15.3711 3.61328,0 0,21.13282 -3.4375,0 -0.0781,-2.08985 z" />
        <path
           id="path108"
           style="font-style:normal;font-variant:normal;font-weight:normal;font-stretch:normal;font-size:40px;line-height:120.00000477%;font-family:Roboto;-inkscape-font-specification:'Roboto, Normal';text-align:center;writing-mode:lr-tb;text-anchor:middle"
           d="m -288.27707,657.69672 0,5.11718 3.94531,0 0,2.79297 -3.94531,0 0,13.10547 q 0,1.26953 0.52734,1.91406 0.52735,0.625 1.79688,0.625 0.625,0 1.71875,-0.23437 l 0,2.92969 q -1.42578,0.39062 -2.77344,0.39062 -2.42187,0 -3.65234,-1.46484 -1.23047,-1.46485 -1.23047,-4.16016 l 0,-13.10547 -3.84766,0 0,-2.79297 3.84766,0 0,-5.11718 3.61328,0 z" />
        <path
           id="path110"
           style="font-style:normal;font-variant:normal;font-weight:normal;font-stretch:normal;font-size:40px;line-height:120.00000477%;font-family:Roboto;-inkscape-font-specification:'Roboto, Normal';text-align:center;writing-mode:lr-tb;text-anchor:middle"
           d="m -267.08566,683.94672 q -0.3125,-0.625 -0.50782,-2.22657 -2.51953,2.61719 -6.01562,2.61719 -3.125,0 -5.13672,-1.75781 -1.99219,-1.77734 -1.99219,-4.49219 0,-3.30078 2.5,-5.11719 2.51953,-1.83593 7.07032,-1.83593 l 3.51562,0 0,-1.66016 q 0,-1.89453 -1.13281,-3.00781 -1.13281,-1.13281 -3.33985,-1.13281 -1.93359,0 -3.24218,0.97656 -1.3086,0.97656 -1.3086,2.36328 l -3.63281,0 q 0,-1.58203 1.11328,-3.04688 1.13281,-1.48437 3.04688,-2.34375 1.93359,-0.85937 4.23828,-0.85937 3.65234,0 5.72265,1.83594 2.07032,1.8164 2.14844,5.01953 l 0,9.72656 q 0,2.91016 0.74219,4.62891 l 0,0.3125 -3.78906,0 z m -5.9961,-2.75391 q 1.69922,0 3.22266,-0.87891 1.52344,-0.8789 2.20703,-2.28515 l 0,-4.33594 -2.83203,0 q -6.64063,0 -6.64063,3.88672 0,1.69922 1.13282,2.65625 1.13281,0.95703 2.91015,0.95703 z" />
        <path
           id="path112"
           style="font-style:normal;font-variant:normal;font-weight:normal;font-stretch:normal;font-size:40px;line-height:120.00000477%;font-family:Roboto;-inkscape-font-specification:'Roboto, Normal';text-align:center;writing-mode:lr-tb;text-anchor:middle"
           d="m -253.43332,657.69672 0,5.11718 3.94531,0 0,2.79297 -3.94531,0 0,13.10547 q 0,1.26953 0.52734,1.91406 0.52735,0.625 1.79688,0.625 0.625,0 1.71875,-0.23437 l 0,2.92969 q -1.42578,0.39062 -2.77344,0.39062 -2.42187,0 -3.65234,-1.46484 -1.23047,-1.46485 -1.23047,-4.16016 l 0,-13.10547 -3.84766,0 0,-2.79297 3.84766,0 0,-5.11718 3.61328,0 z" />
        <path
           id="path114"
           style="font-style:normal;font-variant:normal;font-weight:normal;font-stretch:normal;font-size:40px;line-height:120.00000477%;font-family:Roboto;-inkscape-font-specification:'Roboto, Normal';text-align:center;writing-mode:lr-tb;text-anchor:middle"
           d="m -241.36301,683.94672 -3.61328,0 0,-21.13282 3.61328,0 0,21.13282 z m -3.90625,-26.73828 q 0,-0.87891 0.52735,-1.48438 0.54687,-0.60547 1.60156,-0.60547 1.05469,0 1.60156,0.60547 0.54688,0.60547 0.54688,1.48438 0,0.8789 -0.54688,1.46484 -0.54687,0.58594 -1.60156,0.58594 -1.05469,0 -1.60156,-0.58594 -0.52735,-0.58594 -0.52735,-1.46484 z" />
        <path
           id="path116"
           style="font-style:normal;font-variant:normal;font-weight:normal;font-stretch:normal;font-size:40px;line-height:120.00000477%;font-family:Roboto;-inkscape-font-specification:'Roboto, Normal';text-align:center;writing-mode:lr-tb;text-anchor:middle"
           d="m -236.55832,673.185 q 0,-3.10547 1.21094,-5.58594 1.23047,-2.48047 3.39844,-3.82812 2.1875,-1.34766 4.98046,-1.34766 4.31641,0 6.97266,2.98828 2.67578,2.98828 2.67578,7.94922 l 0,0.25391 q 0,3.08593 -1.1914,5.54687 -1.17188,2.44141 -3.37891,3.80859 -2.1875,1.36719 -5.03906,1.36719 -4.29688,0 -6.97266,-2.98828 -2.65625,-2.98828 -2.65625,-7.91016 l 0,-0.2539 z m 3.63281,0.42969 q 0,3.51562 1.6211,5.64453 1.64062,2.1289 4.375,2.1289 2.7539,0 4.375,-2.14843 1.62109,-2.16797 1.62109,-6.05469 0,-3.47656 -1.66016,-5.625 -1.64062,-2.16797 -4.375,-2.16797 -2.67578,0 -4.3164,2.12891 -1.64063,2.1289 -1.64063,6.09375 z" />
        <path
           id="path118"
           style="font-style:normal;font-variant:normal;font-weight:normal;font-stretch:normal;font-size:40px;line-height:120.00000477%;font-family:Roboto;-inkscape-font-specification:'Roboto, Normal';text-align:center;writing-mode:lr-tb;text-anchor:middle"
           d="m -209.37082,662.8139 0.11719,2.65625 q 2.42187,-3.04687 6.32812,-3.04687 6.69922,0 6.75782,7.55859 l 0,13.96485 -3.61329,0 0,-13.98438 q -0.0195,-2.28515 -1.05468,-3.3789 -1.01563,-1.09375 -3.1836,-1.09375 -1.75781,0 -3.08593,0.9375 -1.32813,0.9375 -2.07032,2.46093 l 0,15.0586 -3.61328,0 0,-21.13282 3.41797,0 z" />
        <path
           id="path120"
           style="font-style:normal;font-variant:normal;font-weight:normal;font-stretch:normal;font-size:40px;line-height:120.00000477%;font-family:Roboto;-inkscape-font-specification:'Roboto, Normal';text-align:center;writing-mode:lr-tb;text-anchor:middle"
           d="m -177.63254,683.94672 q -0.3125,-0.625 -0.50781,-2.22657 -2.51953,2.61719 -6.01563,2.61719 -3.125,0 -5.13671,-1.75781 -1.99219,-1.77734 -1.99219,-4.49219 0,-3.30078 2.5,-5.11719 2.51953,-1.83593 7.07031,-1.83593 l 3.51563,0 0,-1.66016 q 0,-1.89453 -1.13282,-3.00781 -1.13281,-1.13281 -3.33984,-1.13281 -1.93359,0 -3.24219,0.97656 -1.30859,0.97656 -1.30859,2.36328 l -3.63281,0 q 0,-1.58203 1.11328,-3.04688 1.13281,-1.48437 3.04687,-2.34375 1.9336,-0.85937 4.23828,-0.85937 3.65235,0 5.72266,1.83594 2.07031,1.8164 2.14844,5.01953 l 0,9.72656 q 0,2.91016 0.74218,4.62891 l 0,0.3125 -3.78906,0 z m -5.99609,-2.75391 q 1.69922,0 3.22265,-0.87891 1.52344,-0.8789 2.20704,-2.28515 l 0,-4.33594 -2.83204,0 q -6.64062,0 -6.64062,3.88672 0,1.69922 1.13281,2.65625 1.13281,0.95703 2.91016,0.95703 z" />
        <path
           id="path122"
           style="font-style:normal;font-variant:normal;font-weight:normal;font-stretch:normal;font-size:40px;line-height:120.00000477%;font-family:Roboto;-inkscape-font-specification:'Roboto, Normal';text-align:center;writing-mode:lr-tb;text-anchor:middle"
           d="m -164.95676,683.94672 -3.61328,0 0,-30 3.61328,0 0,30 z" />
        <path
           id="path124"
           style="font-style:normal;font-variant:normal;font-weight:normal;font-stretch:normal;font-size:40px;line-height:120.00000477%;font-family:Roboto;-inkscape-font-specification:'Roboto, Normal';text-align:center;writing-mode:lr-tb;text-anchor:middle"
           d="m -346.38254,726.34125 q 0,-1.46484 -1.11328,-2.26563 -1.09375,-0.82031 -3.84766,-1.40625 -2.73437,-0.58593 -4.35546,-1.40625 -1.60157,-0.82031 -2.38282,-1.95312 -0.76172,-1.13281 -0.76172,-2.69531 0,-2.59766 2.1875,-4.39453 2.20704,-1.79688 5.625,-1.79688 3.59375,0 5.82032,1.85547 2.24609,1.85547 2.24609,4.74609 l -3.63281,0 q 0,-1.48437 -1.26953,-2.55859 -1.25,-1.07422 -3.16407,-1.07422 -1.97265,0 -3.08593,0.85938 -1.11328,0.85937 -1.11328,2.24609 0,1.30859 1.03515,1.97266 1.03516,0.66406 3.73047,1.26953 2.71484,0.60547 4.39453,1.44531 1.67969,0.83984 2.48047,2.03125 0.82031,1.17187 0.82031,2.87109 0,2.83203 -2.26562,4.55078 -2.26563,1.69922 -5.87891,1.69922 -2.53906,0 -4.49219,-0.89843 -1.95312,-0.89844 -3.0664,-2.5 -1.09375,-1.6211 -1.09375,-3.4961 l 3.61328,0 q 0.0977,1.81641 1.44531,2.89063 1.36719,1.05468 3.59375,1.05468 2.05078,0 3.28125,-0.82031 1.25,-0.83984 1.25,-2.22656 z" />
        <path
           id="path126"
           style="font-style:normal;font-variant:normal;font-weight:normal;font-stretch:normal;font-size:40px;line-height:120.00000477%;font-family:Roboto;-inkscape-font-specification:'Roboto, Normal';text-align:center;writing-mode:lr-tb;text-anchor:middle"
           d="m -329.58566,729.38812 q 1.93359,0 3.3789,-1.17187 1.44532,-1.17188 1.60157,-2.92969 l 3.41796,0 q -0.0976,1.81641 -1.25,3.45703 -1.15234,1.64063 -3.08593,2.61719 -1.91407,0.97656 -4.0625,0.97656 -4.31641,0 -6.875,-2.87109 -2.53907,-2.89063 -2.53907,-7.89063 l 0,-0.60546 q 0,-3.08594 1.13282,-5.48829 1.13281,-2.40234 3.24218,-3.73046 2.12891,-1.32813 5.01954,-1.32813 3.55468,0 5.89843,2.12891 2.36328,2.1289 2.51953,5.52734 l -3.41796,0 q -0.15625,-2.05078 -1.5625,-3.35937 -1.38672,-1.32813 -3.4375,-1.32813 -2.75391,0 -4.27735,1.99219 -1.5039,1.97265 -1.5039,5.72265 l 0,0.6836 q 0,3.65234 1.5039,5.625 1.50391,1.97265 4.29688,1.97265 z" />
        <path
           id="path128"
           style="font-style:normal;font-variant:normal;font-weight:normal;font-stretch:normal;font-size:40px;line-height:120.00000477%;font-family:Roboto;-inkscape-font-specification:'Roboto, Normal';text-align:center;writing-mode:lr-tb;text-anchor:middle"
           d="m -313.19894,731.94672 -3.61329,0 0,-21.13281 3.61329,0 0,21.13281 z m -3.90625,-26.73828 q 0,-0.87891 0.52734,-1.48438 0.54687,-0.60547 1.60156,-0.60547 1.05469,0 1.60156,0.60547 0.54688,0.60547 0.54688,1.48438 0,0.8789 -0.54688,1.46484 -0.54687,0.58594 -1.60156,0.58594 -1.05469,0 -1.60156,-0.58594 -0.52734,-0.58594 -0.52734,-1.46484 z" />
        <path
           id="path130"
           style="font-style:normal;font-variant:normal;font-weight:normal;font-stretch:normal;font-size:40px;line-height:120.00000477%;font-family:Roboto;-inkscape-font-specification:'Roboto, Normal';text-align:center;writing-mode:lr-tb;text-anchor:middle"
           d="m -298.66769,732.33734 q -4.29688,0 -6.99219,-2.8125 -2.69531,-2.83203 -2.69531,-7.55859 l 0,-0.66406 q 0,-3.14453 1.1914,-5.60547 1.21094,-2.48047 3.35938,-3.86719 2.16797,-1.40625 4.6875,-1.40625 4.12109,0 6.40625,2.71484 2.28515,2.71485 2.28515,7.77344 l 0,1.50391 -14.3164,0 q 0.0781,3.125 1.8164,5.05859 1.75782,1.91406 4.45313,1.91406 1.91406,0 3.24219,-0.78125 1.32812,-0.78125 2.32421,-2.07031 l 2.20704,1.71875 q -2.65625,4.08203 -7.96875,4.08203 z m -0.44922,-18.94531 q -2.1875,0 -3.67188,1.60156 -1.48437,1.58203 -1.83594,4.45313 l 10.58594,0 0,-0.27344 q -0.15625,-2.75391 -1.48437,-4.25781 -1.32813,-1.52344 -3.59375,-1.52344 z" />
        <path
           id="path132"
           style="font-style:normal;font-variant:normal;font-weight:normal;font-stretch:normal;font-size:40px;line-height:120.00000477%;font-family:Roboto;-inkscape-font-specification:'Roboto, Normal';text-align:center;writing-mode:lr-tb;text-anchor:middle"
           d="m -282.84738,710.81391 0.11719,2.65625 q 2.42187,-3.04688 6.32812,-3.04688 6.69922,0 6.75781,7.55859 l 0,13.96485 -3.61328,0 0,-13.98438 q -0.0195,-2.28515 -1.05469,-3.3789 -1.01562,-1.09375 -3.18359,-1.09375 -1.75781,0 -3.08594,0.9375 -1.32812,0.9375 -2.07031,2.46093 l 0,15.0586 -3.61328,0 0,-21.13281 3.41797,0 z" />
        <path
           id="path134"
           style="font-style:normal;font-variant:normal;font-weight:normal;font-stretch:normal;font-size:40px;line-height:120.00000477%;font-family:Roboto;-inkscape-font-specification:'Roboto, Normal';text-align:center;writing-mode:lr-tb;text-anchor:middle"
           d="m -255.67941,729.38812 q 1.93359,0 3.3789,-1.17187 1.44532,-1.17188 1.60157,-2.92969 l 3.41796,0 q -0.0976,1.81641 -1.25,3.45703 -1.15234,1.64063 -3.08593,2.61719 -1.91407,0.97656 -4.0625,0.97656 -4.31641,0 -6.875,-2.87109 -2.53907,-2.89063 -2.53907,-7.89063 l 0,-0.60546 q 0,-3.08594 1.13282,-5.48829 1.13281,-2.40234 3.24218,-3.73046 2.12891,-1.32813 5.01954,-1.32813 3.55468,0 5.89843,2.12891 2.36328,2.1289 2.51953,5.52734 l -3.41796,0 q -0.15625,-2.05078 -1.5625,-3.35937 -1.38672,-1.32813 -3.4375,-1.32813 -2.75391,0 -4.27735,1.99219 -1.5039,1.97265 -1.5039,5.72265 l 0,0.6836 q 0,3.65234 1.5039,5.625 1.50391,1.97265 4.29688,1.97265 z" />
        <path
           id="path136"
           style="font-style:normal;font-variant:normal;font-weight:normal;font-stretch:normal;font-size:40px;line-height:120.00000477%;font-family:Roboto;-inkscape-font-specification:'Roboto, Normal';text-align:center;writing-mode:lr-tb;text-anchor:middle"
           d="m -234.44894,732.33734 q -4.29688,0 -6.99219,-2.8125 -2.69531,-2.83203 -2.69531,-7.55859 l 0,-0.66406 q 0,-3.14453 1.1914,-5.60547 1.21094,-2.48047 3.35938,-3.86719 2.16797,-1.40625 4.6875,-1.40625 4.12109,0 6.40625,2.71484 2.28515,2.71485 2.28515,7.77344 l 0,1.50391 -14.3164,0 q 0.0781,3.125 1.8164,5.05859 1.75782,1.91406 4.45313,1.91406 1.91406,0 3.24219,-0.78125 1.32812,-0.78125 2.32421,-2.07031 l 2.20704,1.71875 q -2.65625,4.08203 -7.96875,4.08203 z m -0.44922,-18.94531 q -2.1875,0 -3.67188,1.60156 -1.48437,1.58203 -1.83594,4.45313 l 10.58594,0 0,-0.27344 q -0.15625,-2.75391 -1.48437,-4.25781 -1.32813,-1.52344 -3.59375,-1.52344 z" />
      </g>
    </g>
    <g
       transform="translate(0,-2.6852969e-6)"
       id="g4235">
      <path
         id="rect4358-2-3-0"
         d="m -459.05771,-74.238892 350,0 0,114.285714 -350,0 z"
         style="opacity:1;fill:#d62728;fill-opacity:0.07843137;stroke:#cc2626;stroke-width:2.5;stroke-linecap:round;stroke-linejoin:miter;stroke-miterlimit:10;stroke-dasharray:none;stroke-opacity:1" />
      <g
         id="text4177-6-9-5-9"
         style="font-style:normal;font-variant:normal;font-weight:normal;font-stretch:normal;font-size:40px;line-height:120.00000477%;font-family:Roboto;-inkscape-font-specification:'Roboto, Normal';text-align:center;letter-spacing:0px;word-spacing:0px;writing-mode:lr-tb;text-anchor:middle;fill:#000000;fill-opacity:1;stroke:none;stroke-width:1px;stroke-linecap:butt;stroke-linejoin:miter;stroke-opacity:1">
        <path
           id="path140"
           style="font-style:normal;font-variant:normal;font-weight:normal;font-stretch:normal;font-size:40px;line-height:120.00000477%;font-family:Roboto;-inkscape-font-specification:'Roboto, Normal';text-align:center;writing-mode:lr-tb;text-anchor:middle"
           d="m -321.85583,-26.290955 0,-28.4375 8.02734,0 q 3.71094,0 6.5625,1.640625 2.85156,1.640625 4.39453,4.667969 1.5625,3.027344 1.58203,6.953125 l 0,1.816406 q 0,4.023438 -1.5625,7.050782 -1.54297,3.027343 -4.43359,4.648437 -2.8711,1.621094 -6.69922,1.660156 l -7.87109,0 z m 3.75,-25.351562 0,22.285156 3.94531,0 q 4.33594,0 6.73828,-2.695312 2.42187,-2.695313 2.42187,-7.675782 l 0,-1.660156 q 0,-4.84375 -2.28515,-7.519531 -2.26563,-2.695313 -6.44531,-2.734375 l -4.375,0 z" />
        <path
           id="path142"
           style="font-style:normal;font-variant:normal;font-weight:normal;font-stretch:normal;font-size:40px;line-height:120.00000477%;font-family:Roboto;-inkscape-font-specification:'Roboto, Normal';text-align:center;writing-mode:lr-tb;text-anchor:middle"
           d="m -283.12537,-26.290955 q -0.3125,-0.625 -0.50781,-2.226562 -2.51953,2.617187 -6.01562,2.617187 -3.125,0 -5.13672,-1.757812 -1.99219,-1.777344 -1.99219,-4.492188 0,-3.300781 2.5,-5.117187 2.51953,-1.835938 7.07031,-1.835938 l 3.51563,0 0,-1.660156 q 0,-1.894531 -1.13281,-3.007812 -1.13282,-1.132813 -3.33985,-1.132813 -1.93359,0 -3.24219,0.976563 -1.30859,0.976562 -1.30859,2.363281 l -3.63281,0 q 0,-1.582031 1.11328,-3.046875 1.13281,-1.484375 3.04687,-2.34375 1.9336,-0.859375 4.23829,-0.859375 3.65234,0 5.72265,1.835937 2.07031,1.816407 2.14844,5.019532 l 0,9.726562 q 0,2.910156 0.74219,4.628906 l 0,0.3125 -3.78907,0 z m -5.99609,-2.753906 q 1.69922,0 3.22266,-0.878906 1.52343,-0.878906 2.20703,-2.285156 l 0,-4.335938 -2.83203,0 q -6.64063,0 -6.64063,3.886719 0,1.699219 1.13281,2.65625 1.13282,0.957031 2.91016,0.957031 z" />
        <path
           id="path144"
           style="font-style:normal;font-variant:normal;font-weight:normal;font-stretch:normal;font-size:40px;line-height:120.00000477%;font-family:Roboto;-inkscape-font-specification:'Roboto, Normal';text-align:center;writing-mode:lr-tb;text-anchor:middle"
           d="m -269.47302,-52.540955 0,5.117188 3.94531,0 0,2.792969 -3.94531,0 0,13.105468 q 0,1.269532 0.52734,1.914063 0.52735,0.625 1.79688,0.625 0.625,0 1.71875,-0.234375 l 0,2.929687 q -1.42578,0.390625 -2.77344,0.390625 -2.42188,0 -3.65234,-1.464843 -1.23047,-1.464844 -1.23047,-4.160157 l 0,-13.105468 -3.84766,0 0,-2.792969 3.84766,0 0,-5.117188 3.61328,0 z" />
        <path
           id="path146"
           style="font-style:normal;font-variant:normal;font-weight:normal;font-stretch:normal;font-size:40px;line-height:120.00000477%;font-family:Roboto;-inkscape-font-specification:'Roboto, Normal';text-align:center;writing-mode:lr-tb;text-anchor:middle"
           d="m -248.28162,-26.290955 q -0.3125,-0.625 -0.50781,-2.226562 -2.51953,2.617187 -6.01562,2.617187 -3.125,0 -5.13672,-1.757812 -1.99219,-1.777344 -1.99219,-4.492188 0,-3.300781 2.5,-5.117187 2.51953,-1.835938 7.07031,-1.835938 l 3.51563,0 0,-1.660156 q 0,-1.894531 -1.13281,-3.007812 -1.13282,-1.132813 -3.33985,-1.132813 -1.93359,0 -3.24219,0.976563 -1.30859,0.976562 -1.30859,2.363281 l -3.63281,0 q 0,-1.582031 1.11328,-3.046875 1.13281,-1.484375 3.04687,-2.34375 1.9336,-0.859375 4.23829,-0.859375 3.65234,0 5.72265,1.835937 2.07031,1.816407 2.14844,5.019532 l 0,9.726562 q 0,2.910156 0.74219,4.628906 l 0,0.3125 -3.78907,0 z m -5.99609,-2.753906 q 1.69922,0 3.22266,-0.878906 1.52343,-0.878906 2.20703,-2.285156 l 0,-4.335938 -2.83203,0 q -6.64063,0 -6.64063,3.886719 0,1.699219 1.13281,2.65625 1.13282,0.957031 2.91016,0.957031 z" />
        <path
           id="path148"
           style="font-style:normal;font-variant:normal;font-weight:normal;font-stretch:normal;font-size:40px;line-height:120.00000477%;font-family:Roboto;-inkscape-font-specification:'Roboto, Normal';text-align:center;writing-mode:lr-tb;text-anchor:middle"
           d="m -336.99255,16.103579 q 0,-1.464844 -1.11328,-2.265625 -1.09375,-0.820313 -3.84766,-1.40625 -2.73438,-0.585938 -4.35547,-1.40625 -1.60156,-0.820313 -2.38281,-1.9531254 -0.76172,-1.1328125 -0.76172,-2.6953125 0,-2.5976563 2.1875,-4.3945313 2.20703,-1.79687498 5.625,-1.79687498 3.59375,0 5.82031,1.85546878 2.2461,1.8554687 2.2461,4.7460937 l -3.63282,0 q 0,-1.484375 -1.26953,-2.5585937 -1.25,-1.0742188 -3.16406,-1.0742188 -1.97266,0 -3.08594,0.859375 -1.11328,0.859375 -1.11328,2.2460938 0,1.3085937 1.03516,1.9726562 1.03515,0.6640625 3.73047,1.2695313 2.71484,0.6054689 4.39453,1.4453129 1.67968,0.839843 2.48047,2.03125 0.82031,1.171875 0.82031,2.871093 0,2.832032 -2.26563,4.550782 -2.26562,1.699218 -5.8789,1.699218 -2.53907,0 -4.49219,-0.898437 -1.95313,-0.898438 -3.06641,-2.5 -1.09375,-1.621094 -1.09375,-3.496094 l 3.61328,0 q 0.0977,1.816406 1.44532,2.890625 1.36718,1.054688 3.59375,1.054688 2.05078,0 3.28125,-0.820313 1.25,-0.839844 1.25,-2.226562 z" />
        <path
           id="path150"
           style="font-style:normal;font-variant:normal;font-weight:normal;font-stretch:normal;font-size:40px;line-height:120.00000477%;font-family:Roboto;-inkscape-font-specification:'Roboto, Normal';text-align:center;writing-mode:lr-tb;text-anchor:middle"
           d="m -320.19568,19.150454 q 1.9336,0 3.37891,-1.171875 1.44531,-1.171875 1.60156,-2.929688 l 3.41797,0 q -0.0977,1.816406 -1.25,3.457031 -1.15234,1.640625 -3.08594,2.617188 -1.91406,0.976562 -4.0625,0.976562 -4.3164,0 -6.875,-2.871093 -2.53906,-2.890625 -2.53906,-7.890625 l 0,-0.605469 q 0,-3.0859377 1.13281,-5.4882814 1.13281,-2.4023438 3.24219,-3.7304688 2.12891,-1.32812498 5.01953,-1.32812498 3.55469,0 5.89844,2.12890628 2.36328,2.1289062 2.51953,5.5273437 l -3.41797,0 q -0.15625,-2.0507812 -1.5625,-3.359375 -1.38672,-1.328125 -3.4375,-1.328125 -2.75391,0 -4.27734,1.9921875 -1.50391,1.9726563 -1.50391,5.7226567 l 0,0.683593 q 0,3.652344 1.50391,5.625 1.5039,1.972657 4.29687,1.972657 z" />
        <path
           id="path152"
           style="font-style:normal;font-variant:normal;font-weight:normal;font-stretch:normal;font-size:40px;line-height:120.00000477%;font-family:Roboto;-inkscape-font-specification:'Roboto, Normal';text-align:center;writing-mode:lr-tb;text-anchor:middle"
           d="m -303.80896,21.709047 -3.61328,0 0,-21.13281218 3.61328,0 0,21.13281218 z m -3.90625,-26.7382809 q 0,-0.8789063 0.52734,-1.484375 0.54688,-0.6054688 1.60157,-0.6054688 1.05468,0 1.60156,0.6054688 0.54687,0.6054687 0.54687,1.484375 0,0.8789062 -0.54687,1.4648437 -0.54688,0.5859375 -1.60156,0.5859375 -1.05469,0 -1.60157,-0.5859375 -0.52734,-0.5859375 -0.52734,-1.4648437 z" />
        <path
           id="path154"
           style="font-style:normal;font-variant:normal;font-weight:normal;font-stretch:normal;font-size:40px;line-height:120.00000477%;font-family:Roboto;-inkscape-font-specification:'Roboto, Normal';text-align:center;writing-mode:lr-tb;text-anchor:middle"
           d="m -289.27771,22.099672 q -4.29687,0 -6.99219,-2.8125 -2.69531,-2.832031 -2.69531,-7.558593 l 0,-0.664063 q 0,-3.1445312 1.19141,-5.6054687 1.21093,-2.4804687 3.35937,-3.8671875 2.16797,-1.40624998 4.6875,-1.40624998 4.1211,0 6.40625,2.71484378 2.28516,2.7148437 2.28516,7.7734374 l 0,1.503906 -14.31641,0 q 0.0781,3.125 1.81641,5.058594 1.75781,1.914063 4.45312,1.914063 1.91407,0 3.24219,-0.78125 1.32813,-0.78125 2.32422,-2.070313 l 2.20703,1.71875 q -2.65625,4.082031 -7.96875,4.082031 z m -0.44922,-18.9453122 q -2.1875,0 -3.67187,1.6015625 -1.48438,1.5820313 -1.83594,4.453125 l 10.58594,0 0,-0.2734375 q -0.15625,-2.7539062 -1.48438,-4.2578125 -1.32812,-1.5234375 -3.59375,-1.5234375 z" />
        <path
           id="path156"
           style="font-style:normal;font-variant:normal;font-weight:normal;font-stretch:normal;font-size:40px;line-height:120.00000477%;font-family:Roboto;-inkscape-font-specification:'Roboto, Normal';text-align:center;writing-mode:lr-tb;text-anchor:middle"
           d="m -273.4574,0.57623482 0.11719,2.65624998 q 2.42188,-3.04687498 6.32813,-3.04687498 6.69921,0 6.75781,7.55859378 l 0,13.9648434 -3.61328,0 0,-13.9843747 q -0.0195,-2.2851562 -1.05469,-3.3789062 -1.01563,-1.09375 -3.18359,-1.09375 -1.75782,0 -3.08594,0.9375 -1.32813,0.9375 -2.07031,2.4609375 l 0,15.0585934 -3.61329,0 0,-21.13281218 3.41797,0 z" />
        <path
           id="path158"
           style="font-style:normal;font-variant:normal;font-weight:normal;font-stretch:normal;font-size:40px;line-height:120.00000477%;font-family:Roboto;-inkscape-font-specification:'Roboto, Normal';text-align:center;writing-mode:lr-tb;text-anchor:middle"
           d="m -246.28943,19.150454 q 1.9336,0 3.37891,-1.171875 1.44531,-1.171875 1.60156,-2.929688 l 3.41797,0 q -0.0977,1.816406 -1.25,3.457031 -1.15234,1.640625 -3.08594,2.617188 -1.91406,0.976562 -4.0625,0.976562 -4.3164,0 -6.875,-2.871093 -2.53906,-2.890625 -2.53906,-7.890625 l 0,-0.605469 q 0,-3.0859377 1.13281,-5.4882814 1.13281,-2.4023438 3.24219,-3.7304688 2.12891,-1.32812498 5.01953,-1.32812498 3.55469,0 5.89844,2.12890628 2.36328,2.1289062 2.51953,5.5273437 l -3.41797,0 q -0.15625,-2.0507812 -1.5625,-3.359375 -1.38672,-1.328125 -3.4375,-1.328125 -2.75391,0 -4.27734,1.9921875 -1.50391,1.9726563 -1.50391,5.7226567 l 0,0.683593 q 0,3.652344 1.50391,5.625 1.5039,1.972657 4.29687,1.972657 z" />
        <path
           id="path160"
           style="font-style:normal;font-variant:normal;font-weight:normal;font-stretch:normal;font-size:40px;line-height:120.00000477%;font-family:Roboto;-inkscape-font-specification:'Roboto, Normal';text-align:center;writing-mode:lr-tb;text-anchor:middle"
           d="m -225.05896,22.099672 q -4.29687,0 -6.99219,-2.8125 -2.69531,-2.832031 -2.69531,-7.558593 l 0,-0.664063 q 0,-3.1445312 1.19141,-5.6054687 1.21093,-2.4804687 3.35937,-3.8671875 2.16797,-1.40624998 4.6875,-1.40624998 4.1211,0 6.40625,2.71484378 2.28516,2.7148437 2.28516,7.7734374 l 0,1.503906 -14.31641,0 q 0.0781,3.125 1.81641,5.058594 1.75781,1.914063 4.45312,1.914063 1.91407,0 3.24219,-0.78125 1.32813,-0.78125 2.32422,-2.070313 l 2.20703,1.71875 q -2.65625,4.082031 -7.96875,4.082031 z m -0.44922,-18.9453122 q -2.1875,0 -3.67187,1.6015625 -1.48438,1.5820313 -1.83594,4.453125 l 10.58594,0 0,-0.2734375 q -0.15625,-2.7539062 -1.48438,-4.2578125 -1.32812,-1.5234375 -3.59375,-1.5234375 z" />
      </g>
    </g>
    <path
       id="path4267"
       d="m -118.91486,752.04682 150,0 0,-324.28572"
       style="fill:none;fill-rule:evenodd;stroke:#000000;stroke-width:2.5999999;stroke-linecap:butt;stroke-linejoin:round;stroke-miterlimit:0;stroke-dasharray:none;stroke-opacity:1;marker-end:url(#marker4345)" />
    <path
       id="path4267-6"
       d="m -461.63309,-19.48276 -150,0 0,324.28572"
       style="fill:none;fill-rule:evenodd;stroke:#000000;stroke-width:2.5999999;stroke-linecap:butt;stroke-linejoin:round;stroke-miterlimit:0;stroke-dasharray:none;stroke-opacity:1;marker-end:url(#marker4345-6)" />
    <path
       id="path4267-9"
       d="m -473.58258,748.42579 -149.91222,0 0,-324.28736"
       style="fill:none;fill-rule:evenodd;stroke:#000000;stroke-width:2.59924555;stroke-linecap:butt;stroke-linejoin:round;stroke-miterlimit:0;stroke-dasharray:none;stroke-opacity:1;marker-start:url(#marker10200)" />
    <path
       id="path4267-9-9"
       d="m -107.51281,-19.619633 149.912216,0 0,324.287363"
       style="fill:none;fill-rule:evenodd;stroke:#000000;stroke-width:2.59924555;stroke-linecap:butt;stroke-linejoin:round;stroke-miterlimit:0;stroke-dasharray:none;stroke-opacity:1;marker-start:url(#marker4275-7)" />
  </g>
</svg>
