<?xml version="1.0" encoding="UTF-8" standalone="no"?>
<svg
   xmlns:dc="http://purl.org/dc/elements/1.1/"
   xmlns:cc="http://creativecommons.org/ns#"
   xmlns:rdf="http://www.w3.org/1999/02/22-rdf-syntax-ns#"
   xmlns:svg="http://www.w3.org/2000/svg"
   xmlns="http://www.w3.org/2000/svg"
   version="1.1"
   id="svg2"
   viewBox="0 0 1031.2858 937.50003"
   height="264.58334mm"
   width="291.05176mm">
  <defs
     id="defs4" />
  <metadata
     id="metadata7">
    <rdf:RDF>
      <cc:Work
         rdf:about="">
        <dc:format>image/svg+xml</dc:format>
        <dc:type
           rdf:resource="http://purl.org/dc/dcmitype/StillImage" />
        <dc:title />
      </cc:Work>
    </rdf:RDF>
  </metadata>
  <g
     transform="translate(142.5,66.780628)"
     id="layer1">
    <path
       id="path3336"
       d="m 481.24501,558.07654 a 311.245,311.245 0 0 1 -311.24499,311.24499 311.245,311.245 0 0 1 -311.245,-311.24499 311.245,311.245 0 0 1 311.245,-311.245 311.245,311.245 0 0 1 311.24499,311.245 z"
       style="fill:#ff7f0e;fill-opacity:0.07843137;stroke:#ff7e0e;stroke-width:2.51004004;stroke-linecap:round;stroke-linejoin:miter;stroke-miterlimit:10;stroke-dasharray:none;stroke-opacity:1" />
    <path
       id="path3338"
       d="M 684.38205,245.71938 A 311.2392,311.2392 0 0 1 373.14285,556.95857 311.2392,311.2392 0 0 1 61.903656,245.71938 311.2392,311.2392 0 0 1 373.14285,-65.519821 311.2392,311.2392 0 0 1 684.38205,245.71938 Z"
       style="opacity:1;fill:#2777b4;fill-opacity:0.07843137;stroke:#2576b4;stroke-width:2.52161384;stroke-linecap:round;stroke-linejoin:miter;stroke-miterlimit:10;stroke-dasharray:none;stroke-opacity:1" />
    <path
       id="path3338-9"
       d="m 887.5249,558.21936 a 311.2392,311.2392 0 0 1 -311.23919,311.2392 311.2392,311.2392 0 0 1 -311.2392,-311.2392 311.2392,311.2392 0 0 1 311.2392,-311.2392 311.2392,311.2392 0 0 1 311.23919,311.2392 z"
       style="opacity:1;fill:#2ca02c;fill-opacity:0.07843137;stroke:#2ca02c;stroke-width:2.52161384;stroke-linecap:round;stroke-linejoin:miter;stroke-miterlimit:10;stroke-dasharray:none;stroke-opacity:1" />
  </g>
  <g
     id="layer2">
    <g
       id="text4177"
       style="font-style:normal;font-variant:normal;font-weight:normal;font-stretch:normal;font-size:40px;line-height:120.00000477%;font-family:Roboto;-inkscape-font-specification:'Roboto, Normal';text-align:center;letter-spacing:0px;word-spacing:0px;writing-mode:lr-tb;text-anchor:middle;fill:#000000;fill-opacity:1;stroke:none;stroke-width:1px;stroke-linecap:butt;stroke-linejoin:miter;stroke-opacity:1">
      <path
         id="path29"
         style=""
         d="m 68.604904,657.85583 q -0.527344,4.51172 -3.339844,6.97266 -2.792968,2.44141 -7.441406,2.44141 -5.039062,0 -8.085937,-3.61328 -3.027344,-3.61329 -3.027344,-9.66797 l 0,-2.73438 q 0,-3.96484 1.40625,-6.97265 1.425781,-3.00782 4.023437,-4.60938 2.597657,-1.62109 6.015625,-1.62109 4.53125,0 7.265625,2.53906 2.734375,2.51953 3.183594,6.99219 l -3.769531,0 q -0.488281,-3.39844 -2.128906,-4.92188 -1.621094,-1.52344 -4.550782,-1.52344 -3.59375,0 -5.644531,2.65625 -2.03125,2.65625 -2.03125,7.5586 l 0,2.7539 q 0,4.62891 1.933594,7.36329 1.933594,2.73437 5.410156,2.73437 3.125,0 4.785156,-1.40625 1.679688,-1.42578 2.226563,-4.94141 l 3.769531,0 z" />
      <path
         id="path31"
         style=""
         d="m 72.179123,656.11755 q 0,-3.10547 1.210937,-5.58593 1.230469,-2.48047 3.398438,-3.82813 2.1875,-1.34766 4.980469,-1.34766 4.316406,0 6.972656,2.98829 2.675781,2.98828 2.675781,7.94921 l 0,0.25391 q 0,3.08594 -1.191406,5.54688 -1.171875,2.4414 -3.378906,3.80859 -2.1875,1.36719 -5.039063,1.36719 -4.296875,0 -6.972656,-2.98828 -2.65625,-2.98829 -2.65625,-7.91016 l 0,-0.25391 z m 3.632812,0.42969 q 0,3.51563 1.621094,5.64453 1.640625,2.12891 4.375,2.12891 2.753906,0 4.375,-2.14844 1.621094,-2.16797 1.621094,-6.05469 0,-3.47656 -1.660156,-5.625 -1.640625,-2.16797 -4.375,-2.16797 -2.675782,0 -4.316407,2.12891 -1.640625,2.12891 -1.640625,6.09375 z" />
      <path
         id="path33"
         style=""
         d="m 99.347092,645.74646 0.09766,2.34375 q 2.324222,-2.73438 6.269532,-2.73438 4.43359,0 6.03516,3.39844 1.05468,-1.52344 2.73437,-2.46094 1.69922,-0.9375 4.00391,-0.9375 6.95312,0 7.07031,7.36329 l 0,14.16015 -3.61328,0 0,-13.94531 q 0,-2.26563 -1.03516,-3.37891 -1.03515,-1.13281 -3.47656,-1.13281 -2.01172,0 -3.33984,1.21094 -1.32813,1.1914 -1.54297,3.22265 l 0,14.02344 -3.63282,0 0,-13.84765 q 0,-4.60938 -4.51171,-4.60938 -3.55469,0 -4.863286,3.02734 l 0,15.42969 -3.613281,0 0,-21.13281 3.417969,0 z" />
      <path
         id="path35"
         style=""
         d="m 148.87834,656.54724 q 0,4.82422 -2.20703,7.77344 -2.20703,2.94922 -5.97656,2.94922 -3.84766,0 -6.05469,-2.44141 l 0,10.17578 -3.61328,0 0,-29.25781 3.30078,0 0.17578,2.34375 q 2.20703,-2.73438 6.13281,-2.73438 3.8086,0 6.01563,2.8711 2.22656,2.87109 2.22656,7.98828 l 0,0.33203 z m -3.61328,-0.41016 q 0,-3.57421 -1.52344,-5.64453 -1.52343,-2.07031 -4.17968,-2.07031 -3.28125,0 -4.92188,2.91016 l 0,10.09765 q 1.62109,2.89063 4.96094,2.89063 2.59765,0 4.12109,-2.05078 1.54297,-2.07032 1.54297,-6.13282 z" />
      <path
         id="path37"
         style=""
         d="m 166.49553,664.78943 q -2.10938,2.48047 -6.19141,2.48047 -3.3789,0 -5.15625,-1.95313 -1.75781,-1.97265 -1.77734,-5.82031 l 0,-13.75 3.61328,0 0,13.65234 q 0,4.80469 3.90625,4.80469 4.14063,0 5.50781,-3.08594 l 0,-15.37109 3.61328,0 0,21.13281 -3.4375,0 -0.0781,-2.08984 z" />
      <path
         id="path39"
         style=""
         d="m 180.38225,640.62927 0,5.11719 3.94531,0 0,2.79297 -3.94531,0 0,13.10547 q 0,1.26953 0.52734,1.91406 0.52735,0.625 1.79688,0.625 0.625,0 1.71875,-0.23438 l 0,2.92969 q -1.42578,0.39063 -2.77344,0.39063 -2.42188,0 -3.65234,-1.46485 -1.23047,-1.46484 -1.23047,-4.16015 l 0,-13.10547 -3.84766,0 0,-2.79297 3.84766,0 0,-5.11719 3.61328,0 z" />
      <path
         id="path41"
         style=""
         d="m 197.29631,667.2699 q -4.29687,0 -6.99219,-2.8125 -2.69531,-2.83203 -2.69531,-7.5586 l 0,-0.66406 q 0,-3.14453 1.19141,-5.60547 1.21093,-2.48047 3.35937,-3.86719 2.16797,-1.40625 4.6875,-1.40625 4.1211,0 6.40625,2.71485 2.28516,2.71484 2.28516,7.77344 l 0,1.5039 -14.31641,0 q 0.0781,3.125 1.81641,5.0586 1.75781,1.91406 4.45312,1.91406 1.91407,0 3.24219,-0.78125 1.32813,-0.78125 2.32422,-2.07031 l 2.20703,1.71875 q -2.65625,4.08203 -7.96875,4.08203 z m -0.44922,-18.94532 q -2.1875,0 -3.67187,1.60157 -1.48438,1.58203 -1.83594,4.45312 l 10.58594,0 0,-0.27344 q -0.15625,-2.7539 -1.48438,-4.25781 -1.32812,-1.52344 -3.59375,-1.52344 z" />
      <path
         id="path43"
         style=""
         d="m 219.9135,648.98865 q -0.82031,-0.13672 -1.77735,-0.13672 -3.55468,0 -4.82421,3.02734 l 0,15 -3.61329,0 0,-21.13281 3.51563,0 0.0586,2.44141 q 1.77735,-2.83204 5.03907,-2.83204 1.05468,0 1.60156,0.27344 l 0,3.35938 z" />
      <path
         id="path45"
         style=""
         d="m 245.44084,661.2738 q 0,-1.46484 -1.11328,-2.26562 -1.09375,-0.82031 -3.84766,-1.40625 -2.73437,-0.58594 -4.35546,-1.40625 -1.60157,-0.82031 -2.38282,-1.95313 -0.76172,-1.13281 -0.76172,-2.69531 0,-2.59766 2.1875,-4.39453 2.20704,-1.79688 5.625,-1.79688 3.59375,0 5.82032,1.85547 2.24609,1.85547 2.24609,4.7461 l -3.63281,0 q 0,-1.48438 -1.26953,-2.5586 -1.25,-1.07422 -3.16407,-1.07422 -1.97265,0 -3.08593,0.85938 -1.11328,0.85937 -1.11328,2.24609 0,1.3086 1.03515,1.97266 1.03516,0.66406 3.73047,1.26953 2.71484,0.60547 4.39453,1.44531 1.67969,0.83985 2.48047,2.03125 0.82031,1.17188 0.82031,2.8711 0,2.83203 -2.26562,4.55078 -2.26563,1.69922 -5.87891,1.69922 -2.53906,0 -4.49219,-0.89844 -1.95312,-0.89844 -3.0664,-2.5 -1.09375,-1.62109 -1.09375,-3.49609 l 3.61328,0 q 0.0977,1.8164 1.44531,2.89062 1.36719,1.05469 3.59375,1.05469 2.05078,0 3.28125,-0.82031 1.25,-0.83985 1.25,-2.22657 z" />
      <path
         id="path47"
         style=""
         d="m 262.23772,664.32068 q 1.93359,0 3.3789,-1.17188 1.44532,-1.17187 1.60157,-2.92968 l 3.41796,0 q -0.0976,1.8164 -1.25,3.45703 -1.15234,1.64062 -3.08593,2.61718 -1.91407,0.97657 -4.0625,0.97657 -4.31641,0 -6.875,-2.8711 -2.53907,-2.89062 -2.53907,-7.89062 l 0,-0.60547 q 0,-3.08594 1.13282,-5.48828 1.13281,-2.40235 3.24218,-3.73047 2.12891,-1.32813 5.01954,-1.32813 3.55468,0 5.89843,2.12891 2.36328,2.12891 2.51953,5.52734 l -3.41796,0 q -0.15625,-2.05078 -1.5625,-3.35937 -1.38672,-1.32813 -3.4375,-1.32813 -2.75391,0 -4.27735,1.99219 -1.5039,1.97266 -1.5039,5.72266 l 0,0.68359 q 0,3.65235 1.5039,5.625 1.50391,1.97266 4.29688,1.97266 z" />
      <path
         id="path49"
         style=""
         d="m 278.62444,666.87927 -3.61329,0 0,-21.13281 3.61329,0 0,21.13281 z m -3.90625,-26.73828 q 0,-0.87891 0.52734,-1.48437 0.54687,-0.60547 1.60156,-0.60547 1.05469,0 1.60156,0.60547 0.54688,0.60546 0.54688,1.48437 0,0.87891 -0.54688,1.46484 -0.54687,0.58594 -1.60156,0.58594 -1.05469,0 -1.60156,-0.58594 -0.52734,-0.58593 -0.52734,-1.46484 z" />
      <path
         id="path51"
         style=""
         d="m 293.15569,667.2699 q -4.29688,0 -6.99219,-2.8125 -2.69531,-2.83203 -2.69531,-7.5586 l 0,-0.66406 q 0,-3.14453 1.1914,-5.60547 1.21094,-2.48047 3.35938,-3.86719 2.16797,-1.40625 4.6875,-1.40625 4.12109,0 6.40625,2.71485 2.28515,2.71484 2.28515,7.77344 l 0,1.5039 -14.3164,0 q 0.0781,3.125 1.8164,5.0586 1.75782,1.91406 4.45313,1.91406 1.91406,0 3.24219,-0.78125 1.32812,-0.78125 2.32421,-2.07031 l 2.20704,1.71875 q -2.65625,4.08203 -7.96875,4.08203 z m -0.44922,-18.94532 q -2.1875,0 -3.67188,1.60157 -1.48437,1.58203 -1.83594,4.45312 l 10.58594,0 0,-0.27344 q -0.15625,-2.7539 -1.48437,-4.25781 -1.32813,-1.52344 -3.59375,-1.52344 z" />
      <path
         id="path53"
         style=""
         d="m 308.976,645.74646 0.11719,2.65625 q 2.42187,-3.04688 6.32812,-3.04688 6.69922,0 6.75781,7.5586 l 0,13.96484 -3.61328,0 0,-13.98437 q -0.0195,-2.28516 -1.05469,-3.37891 -1.01562,-1.09375 -3.18359,-1.09375 -1.75781,0 -3.08594,0.9375 -1.32812,0.9375 -2.07031,2.46094 l 0,15.05859 -3.61328,0 0,-21.13281 3.41797,0 z" />
      <path
         id="path55"
         style=""
         d="m 336.14397,664.32068 q 1.93359,0 3.3789,-1.17188 1.44532,-1.17187 1.60157,-2.92968 l 3.41796,0 q -0.0976,1.8164 -1.25,3.45703 -1.15234,1.64062 -3.08593,2.61718 -1.91407,0.97657 -4.0625,0.97657 -4.31641,0 -6.875,-2.8711 -2.53907,-2.89062 -2.53907,-7.89062 l 0,-0.60547 q 0,-3.08594 1.13282,-5.48828 1.13281,-2.40235 3.24218,-3.73047 2.12891,-1.32813 5.01954,-1.32813 3.55468,0 5.89843,2.12891 2.36328,2.12891 2.51953,5.52734 l -3.41796,0 q -0.15625,-2.05078 -1.5625,-3.35937 -1.38672,-1.32813 -3.4375,-1.32813 -2.75391,0 -4.27735,1.99219 -1.5039,1.97266 -1.5039,5.72266 l 0,0.68359 q 0,3.65235 1.5039,5.625 1.50391,1.97266 4.29688,1.97266 z" />
      <path
         id="path57"
         style=""
         d="m 357.37444,667.2699 q -4.29688,0 -6.99219,-2.8125 -2.69531,-2.83203 -2.69531,-7.5586 l 0,-0.66406 q 0,-3.14453 1.1914,-5.60547 1.21094,-2.48047 3.35938,-3.86719 2.16797,-1.40625 4.6875,-1.40625 4.12109,0 6.40625,2.71485 2.28515,2.71484 2.28515,7.77344 l 0,1.5039 -14.3164,0 q 0.0781,3.125 1.8164,5.0586 1.75782,1.91406 4.45313,1.91406 1.91406,0 3.24219,-0.78125 1.32812,-0.78125 2.32421,-2.07031 l 2.20704,1.71875 q -2.65625,4.08203 -7.96875,4.08203 z m -0.44922,-18.94532 q -2.1875,0 -3.67188,1.60157 -1.48437,1.58203 -1.83594,4.45312 l 10.58594,0 0,-0.27344 q -0.15625,-2.7539 -1.48437,-4.25781 -1.32813,-1.52344 -3.59375,-1.52344 z" />
    </g>
    <g
       id="text4177-6"
       style="font-style:normal;font-variant:normal;font-weight:normal;font-stretch:normal;font-size:40px;line-height:120.00000477%;font-family:Roboto;-inkscape-font-specification:'Roboto, Normal';text-align:center;letter-spacing:0px;word-spacing:0px;writing-mode:lr-tb;text-anchor:middle;fill:#000000;fill-opacity:1;stroke:none;stroke-width:1px;stroke-linecap:butt;stroke-linejoin:miter;stroke-opacity:1">
      <path
         id="path60"
         style="font-style:normal;font-variant:normal;font-weight:normal;font-stretch:normal;font-size:40px;line-height:120.00000477%;font-family:Roboto;-inkscape-font-specification:'Roboto, Normal';text-align:center;writing-mode:lr-tb;text-anchor:middle"
         d="m 345.92877,191.66948 -11.91406,0 -2.67578,7.42187 -3.86719,0 10.85938,-28.4375 3.28125,0 10.8789,28.4375 -3.84765,0 -2.71485,-7.42187 z m -10.78125,-3.08594 9.66797,0 -4.84375,-13.30078 -4.82422,13.30078 z" />
      <path
         id="path62"
         style="font-style:normal;font-variant:normal;font-weight:normal;font-stretch:normal;font-size:40px;line-height:120.00000477%;font-family:Roboto;-inkscape-font-specification:'Roboto, Normal';text-align:center;writing-mode:lr-tb;text-anchor:middle"
         d="m 373.60455,188.75932 q 0,4.82422 -2.20703,7.77344 -2.20703,2.94922 -5.97656,2.94922 -3.84766,0 -6.05469,-2.44141 l 0,10.17578 -3.61328,0 0,-29.25781 3.30078,0 0.17578,2.34375 q 2.20703,-2.73437 6.13282,-2.73437 3.80859,0 6.01562,2.87109 2.22656,2.87109 2.22656,7.98828 l 0,0.33203 z m -3.61328,-0.41015 q 0,-3.57422 -1.52344,-5.64453 -1.52343,-2.07032 -4.17968,-2.07032 -3.28125,0 -4.92188,2.91016 l 0,10.09766 q 1.6211,2.89062 4.96094,2.89062 2.59766,0 4.12109,-2.05078 1.54297,-2.07031 1.54297,-6.13281 z" />
      <path
         id="path64"
         style="font-style:normal;font-variant:normal;font-weight:normal;font-stretch:normal;font-size:40px;line-height:120.00000477%;font-family:Roboto;-inkscape-font-specification:'Roboto, Normal';text-align:center;writing-mode:lr-tb;text-anchor:middle"
         d="m 396.02643,188.75932 q 0,4.82422 -2.20703,7.77344 -2.20703,2.94922 -5.97657,2.94922 -3.84765,0 -6.05468,-2.44141 l 0,10.17578 -3.61328,0 0,-29.25781 3.30078,0 0.17578,2.34375 q 2.20703,-2.73437 6.13281,-2.73437 3.80859,0 6.01563,2.87109 2.22656,2.87109 2.22656,7.98828 l 0,0.33203 z m -3.61328,-0.41015 q 0,-3.57422 -1.52344,-5.64453 -1.52344,-2.07032 -4.17969,-2.07032 -3.28125,0 -4.92187,2.91016 l 0,10.09766 q 1.62109,2.89062 4.96093,2.89062 2.59766,0 4.1211,-2.05078 1.54297,-2.07031 1.54297,-6.13281 z" />
      <path
         id="path66"
         style="font-style:normal;font-variant:normal;font-weight:normal;font-stretch:normal;font-size:40px;line-height:120.00000477%;font-family:Roboto;-inkscape-font-specification:'Roboto, Normal';text-align:center;writing-mode:lr-tb;text-anchor:middle"
         d="m 404.52252,199.09135 -3.61328,0 0,-30 3.61328,0 0,30 z" />
      <path
         id="path68"
         style="font-style:normal;font-variant:normal;font-weight:normal;font-stretch:normal;font-size:40px;line-height:120.00000477%;font-family:Roboto;-inkscape-font-specification:'Roboto, Normal';text-align:center;writing-mode:lr-tb;text-anchor:middle"
         d="m 414.21002,199.09135 -3.61328,0 0,-21.13281 3.61328,0 0,21.13281 z m -3.90625,-26.73828 q 0,-0.8789 0.52735,-1.48437 0.54687,-0.60547 1.60156,-0.60547 1.05469,0 1.60156,0.60547 0.54688,0.60547 0.54688,1.48437 0,0.87891 -0.54688,1.46485 -0.54687,0.58593 -1.60156,0.58593 -1.05469,0 -1.60156,-0.58593 -0.52735,-0.58594 -0.52735,-1.46485 z" />
      <path
         id="path70"
         style="font-style:normal;font-variant:normal;font-weight:normal;font-stretch:normal;font-size:40px;line-height:120.00000477%;font-family:Roboto;-inkscape-font-specification:'Roboto, Normal';text-align:center;writing-mode:lr-tb;text-anchor:middle"
         d="m 428.74127,199.48198 q -4.29687,0 -6.99219,-2.8125 -2.69531,-2.83203 -2.69531,-7.55859 l 0,-0.66407 q 0,-3.14453 1.19141,-5.60547 1.21094,-2.48046 3.35937,-3.86718 2.16797,-1.40625 4.6875,-1.40625 4.1211,0 6.40625,2.71484 2.28516,2.71484 2.28516,7.77344 l 0,1.5039 -14.31641,0 q 0.0781,3.125 1.81641,5.0586 1.75781,1.91406 4.45312,1.91406 1.91407,0 3.24219,-0.78125 1.32813,-0.78125 2.32422,-2.07031 l 2.20703,1.71875 q -2.65625,4.08203 -7.96875,4.08203 z m -0.44922,-18.94531 q -2.1875,0 -3.67187,1.60156 -1.48438,1.58203 -1.83594,4.45312 l 10.58594,0 0,-0.27343 q -0.15625,-2.75391 -1.48438,-4.25782 -1.32812,-1.52343 -3.59375,-1.52343 z" />
      <path
         id="path72"
         style="font-style:normal;font-variant:normal;font-weight:normal;font-stretch:normal;font-size:40px;line-height:120.00000477%;font-family:Roboto;-inkscape-font-specification:'Roboto, Normal';text-align:center;writing-mode:lr-tb;text-anchor:middle"
         d="m 440.26471,188.34917 q 0,-4.86328 2.30469,-7.8125 2.30468,-2.96875 6.03515,-2.96875 3.71094,0 5.87891,2.53906 l 0,-11.01563 3.61328,0 0,30 -3.32031,0 -0.17578,-2.26562 q -2.16797,2.65625 -6.03516,2.65625 -3.67187,0 -5.99609,-3.00781 -2.30469,-3.00782 -2.30469,-7.85157 l 0,-0.27343 z m 3.61328,0.41015 q 0,3.59375 1.48438,5.625 1.48437,2.03125 4.10156,2.03125 3.4375,0 5.01953,-3.08593 l 0,-9.70704 q -1.62109,-2.98828 -4.98047,-2.98828 -2.65625,0 -4.14062,2.05078 -1.48438,2.05079 -1.48438,6.07422 z" />
      <path
         id="path74"
         style="font-style:normal;font-variant:normal;font-weight:normal;font-stretch:normal;font-size:40px;line-height:120.00000477%;font-family:Roboto;-inkscape-font-specification:'Roboto, Normal';text-align:center;writing-mode:lr-tb;text-anchor:middle"
         d="m 477.04205,177.95854 0.0977,2.34375 q 2.32422,-2.73437 6.26953,-2.73437 4.43359,0 6.03516,3.39843 1.05468,-1.52343 2.73437,-2.46093 1.69922,-0.9375 4.00391,-0.9375 6.95312,0 7.07031,7.36328 l 0,14.16015 -3.61328,0 0,-13.94531 q 0,-2.26562 -1.03516,-3.3789 -1.03515,-1.13282 -3.47656,-1.13282 -2.01172,0 -3.33984,1.21094 -1.32813,1.19141 -1.54297,3.22266 l 0,14.02343 -3.63281,0 0,-13.84765 q 0,-4.60938 -4.51172,-4.60938 -3.55469,0 -4.86328,3.02735 l 0,15.42968 -3.61329,0 0,-21.13281 3.41797,0 z" />
      <path
         id="path76"
         style="font-style:normal;font-variant:normal;font-weight:normal;font-stretch:normal;font-size:40px;line-height:120.00000477%;font-family:Roboto;-inkscape-font-specification:'Roboto, Normal';text-align:center;writing-mode:lr-tb;text-anchor:middle"
         d="m 521.76862,199.09135 q -0.3125,-0.625 -0.50782,-2.22656 -2.51953,2.61719 -6.01562,2.61719 -3.125,0 -5.13672,-1.75781 -1.99219,-1.77735 -1.99219,-4.49219 0,-3.30078 2.5,-5.11719 2.51953,-1.83594 7.07031,-1.83594 l 3.51563,0 0,-1.66015 q 0,-1.89453 -1.13281,-3.00781 -1.13282,-1.13282 -3.33985,-1.13282 -1.93359,0 -3.24218,0.97657 -1.3086,0.97656 -1.3086,2.36328 l -3.63281,0 q 0,-1.58203 1.11328,-3.04688 1.13281,-1.48437 3.04688,-2.34375 1.93359,-0.85937 4.23828,-0.85937 3.65234,0 5.72265,1.83593 2.07032,1.81641 2.14844,5.01954 l 0,9.72656 q 0,2.91015 0.74219,4.6289 l 0,0.3125 -3.78906,0 z m -5.9961,-2.7539 q 1.69922,0 3.22266,-0.87891 1.52344,-0.8789 2.20703,-2.28515 l 0,-4.33594 -2.83203,0 q -6.64063,0 -6.64063,3.88672 0,1.69922 1.13282,2.65625 1.13281,0.95703 2.91015,0.95703 z" />
      <path
         id="path78"
         style="font-style:normal;font-variant:normal;font-weight:normal;font-stretch:normal;font-size:40px;line-height:120.00000477%;font-family:Roboto;-inkscape-font-specification:'Roboto, Normal';text-align:center;writing-mode:lr-tb;text-anchor:middle"
         d="m 535.42096,172.84135 0,5.11719 3.94531,0 0,2.79297 -3.94531,0 0,13.10547 q 0,1.26953 0.52734,1.91406 0.52735,0.625 1.79688,0.625 0.625,0 1.71875,-0.23437 l 0,2.92968 q -1.42578,0.39063 -2.77344,0.39063 -2.42187,0 -3.65234,-1.46484 -1.23047,-1.46485 -1.23047,-4.16016 l 0,-13.10547 -3.84766,0 0,-2.79297 3.84766,0 0,-5.11719 3.61328,0 z" />
      <path
         id="path80"
         style="font-style:normal;font-variant:normal;font-weight:normal;font-stretch:normal;font-size:40px;line-height:120.00000477%;font-family:Roboto;-inkscape-font-specification:'Roboto, Normal';text-align:center;writing-mode:lr-tb;text-anchor:middle"
         d="m 547.17877,180.51714 q 2.40235,-2.94922 6.25,-2.94922 6.69922,0 6.75781,7.55859 l 0,13.96484 -3.61328,0 0,-13.98437 q -0.0195,-2.28516 -1.05468,-3.37891 -1.01563,-1.09375 -3.1836,-1.09375 -1.75781,0 -3.08594,0.9375 -1.32812,0.9375 -2.07031,2.46094 l 0,15.05859 -3.61328,0 0,-30 3.61328,0 0,11.42579 z" />
      <path
         id="path82"
         style="font-style:normal;font-variant:normal;font-weight:normal;font-stretch:normal;font-size:40px;line-height:120.00000477%;font-family:Roboto;-inkscape-font-specification:'Roboto, Normal';text-align:center;writing-mode:lr-tb;text-anchor:middle"
         d="m 574.36627,199.48198 q -4.29687,0 -6.99219,-2.8125 -2.69531,-2.83203 -2.69531,-7.55859 l 0,-0.66407 q 0,-3.14453 1.19141,-5.60547 1.21094,-2.48046 3.35937,-3.86718 2.16797,-1.40625 4.6875,-1.40625 4.1211,0 6.40625,2.71484 2.28516,2.71484 2.28516,7.77344 l 0,1.5039 -14.31641,0 q 0.0781,3.125 1.81641,5.0586 1.75781,1.91406 4.45312,1.91406 1.91407,0 3.24219,-0.78125 1.32813,-0.78125 2.32422,-2.07031 l 2.20703,1.71875 q -2.65625,4.08203 -7.96875,4.08203 z m -0.44922,-18.94531 q -2.1875,0 -3.67187,1.60156 -1.48438,1.58203 -1.83594,4.45312 l 10.58594,0 0,-0.27343 q -0.15625,-2.75391 -1.48438,-4.25782 -1.32812,-1.52343 -3.59375,-1.52343 z" />
      <path
         id="path84"
         style="font-style:normal;font-variant:normal;font-weight:normal;font-stretch:normal;font-size:40px;line-height:120.00000477%;font-family:Roboto;-inkscape-font-specification:'Roboto, Normal';text-align:center;writing-mode:lr-tb;text-anchor:middle"
         d="m 590.16705,177.95854 0.0977,2.34375 q 2.32422,-2.73437 6.26953,-2.73437 4.43359,0 6.03516,3.39843 1.05468,-1.52343 2.73437,-2.46093 1.69922,-0.9375 4.00391,-0.9375 6.95312,0 7.07031,7.36328 l 0,14.16015 -3.61328,0 0,-13.94531 q 0,-2.26562 -1.03516,-3.3789 -1.03515,-1.13282 -3.47656,-1.13282 -2.01172,0 -3.33984,1.21094 -1.32813,1.19141 -1.54297,3.22266 l 0,14.02343 -3.63281,0 0,-13.84765 q 0,-4.60938 -4.51172,-4.60938 -3.55469,0 -4.86328,3.02735 l 0,15.42968 -3.61329,0 0,-21.13281 3.41797,0 z" />
      <path
         id="path86"
         style="font-style:normal;font-variant:normal;font-weight:normal;font-stretch:normal;font-size:40px;line-height:120.00000477%;font-family:Roboto;-inkscape-font-specification:'Roboto, Normal';text-align:center;writing-mode:lr-tb;text-anchor:middle"
         d="m 634.89362,199.09135 q -0.3125,-0.625 -0.50782,-2.22656 -2.51953,2.61719 -6.01562,2.61719 -3.125,0 -5.13672,-1.75781 -1.99219,-1.77735 -1.99219,-4.49219 0,-3.30078 2.5,-5.11719 2.51953,-1.83594 7.07031,-1.83594 l 3.51563,0 0,-1.66015 q 0,-1.89453 -1.13281,-3.00781 -1.13282,-1.13282 -3.33985,-1.13282 -1.93359,0 -3.24218,0.97657 -1.3086,0.97656 -1.3086,2.36328 l -3.63281,0 q 0,-1.58203 1.11328,-3.04688 1.13281,-1.48437 3.04688,-2.34375 1.93359,-0.85937 4.23828,-0.85937 3.65234,0 5.72265,1.83593 2.07032,1.81641 2.14844,5.01954 l 0,9.72656 q 0,2.91015 0.74219,4.6289 l 0,0.3125 -3.78906,0 z m -5.9961,-2.7539 q 1.69922,0 3.22266,-0.87891 1.52344,-0.8789 2.20703,-2.28515 l 0,-4.33594 -2.83203,0 q -6.64063,0 -6.64063,3.88672 0,1.69922 1.13282,2.65625 1.13281,0.95703 2.91015,0.95703 z" />
      <path
         id="path88"
         style="font-style:normal;font-variant:normal;font-weight:normal;font-stretch:normal;font-size:40px;line-height:120.00000477%;font-family:Roboto;-inkscape-font-specification:'Roboto, Normal';text-align:center;writing-mode:lr-tb;text-anchor:middle"
         d="m 648.54596,172.84135 0,5.11719 3.94531,0 0,2.79297 -3.94531,0 0,13.10547 q 0,1.26953 0.52734,1.91406 0.52735,0.625 1.79688,0.625 0.625,0 1.71875,-0.23437 l 0,2.92968 q -1.42578,0.39063 -2.77344,0.39063 -2.42187,0 -3.65234,-1.46484 -1.23047,-1.46485 -1.23047,-4.16016 l 0,-13.10547 -3.84766,0 0,-2.79297 3.84766,0 0,-5.11719 3.61328,0 z" />
      <path
         id="path90"
         style="font-style:normal;font-variant:normal;font-weight:normal;font-stretch:normal;font-size:40px;line-height:120.00000477%;font-family:Roboto;-inkscape-font-specification:'Roboto, Normal';text-align:center;writing-mode:lr-tb;text-anchor:middle"
         d="m 660.61627,199.09135 -3.61328,0 0,-21.13281 3.61328,0 0,21.13281 z m -3.90625,-26.73828 q 0,-0.8789 0.52735,-1.48437 0.54687,-0.60547 1.60156,-0.60547 1.05469,0 1.60156,0.60547 0.54688,0.60547 0.54688,1.48437 0,0.87891 -0.54688,1.46485 -0.54687,0.58593 -1.60156,0.58593 -1.05469,0 -1.60156,-0.58593 -0.52735,-0.58594 -0.52735,-1.46485 z" />
      <path
         id="path92"
         style="font-style:normal;font-variant:normal;font-weight:normal;font-stretch:normal;font-size:40px;line-height:120.00000477%;font-family:Roboto;-inkscape-font-specification:'Roboto, Normal';text-align:center;writing-mode:lr-tb;text-anchor:middle"
         d="m 674.85455,196.53276 q 1.9336,0 3.37891,-1.17187 1.44531,-1.17188 1.60156,-2.92969 l 3.41797,0 q -0.0977,1.8164 -1.25,3.45703 -1.15234,1.64062 -3.08594,2.61719 -1.91406,0.97656 -4.0625,0.97656 -4.3164,0 -6.875,-2.87109 -2.53906,-2.89063 -2.53906,-7.89063 l 0,-0.60547 q 0,-3.08594 1.13281,-5.48828 1.13282,-2.40234 3.24219,-3.73047 2.12891,-1.32812 5.01953,-1.32812 3.55469,0 5.89844,2.1289 2.36328,2.12891 2.51953,5.52735 l -3.41797,0 q -0.15625,-2.05078 -1.5625,-3.35938 -1.38672,-1.32812 -3.4375,-1.32812 -2.7539,0 -4.27734,1.99218 -1.50391,1.97266 -1.50391,5.72266 l 0,0.68359 q 0,3.65235 1.50391,5.625 1.5039,1.97266 4.29687,1.97266 z" />
      <path
         id="path94"
         style="font-style:normal;font-variant:normal;font-weight:normal;font-stretch:normal;font-size:40px;line-height:120.00000477%;font-family:Roboto;-inkscape-font-specification:'Roboto, Normal';text-align:center;writing-mode:lr-tb;text-anchor:middle"
         d="m 699.62018,193.48589 q 0,-1.46485 -1.11328,-2.26563 -1.09375,-0.82031 -3.84766,-1.40625 -2.73437,-0.58594 -4.35547,-1.40625 -1.60156,-0.82031 -2.38281,-1.95312 -0.76172,-1.13282 -0.76172,-2.69532 0,-2.59765 2.1875,-4.39453 2.20703,-1.79687 5.625,-1.79687 3.59375,0 5.82031,1.85547 2.2461,1.85546 2.2461,4.74609 l -3.63282,0 q 0,-1.48438 -1.26953,-2.55859 -1.25,-1.07422 -3.16406,-1.07422 -1.97266,0 -3.08594,0.85937 -1.11328,0.85938 -1.11328,2.2461 0,1.30859 1.03516,1.97265 1.03515,0.66406 3.73047,1.26953 2.71484,0.60547 4.39453,1.44532 1.67969,0.83984 2.48047,2.03125 0.82031,1.17187 0.82031,2.87109 0,2.83203 -2.26563,4.55078 -2.26562,1.69922 -5.8789,1.69922 -2.53906,0 -4.49219,-0.89844 -1.95312,-0.89844 -3.06641,-2.5 -1.09375,-1.62109 -1.09375,-3.49609 l 3.61329,0 q 0.0976,1.8164 1.44531,2.89062 1.36719,1.05469 3.59375,1.05469 2.05078,0 3.28125,-0.82031 1.25,-0.83985 1.25,-2.22656 z" />
      <path
         id="path96"
         style="font-style:normal;font-variant:normal;font-weight:normal;font-stretch:normal;font-size:40px;line-height:120.00000477%;font-family:Roboto;-inkscape-font-specification:'Roboto, Normal';text-align:center;writing-mode:lr-tb;text-anchor:middle"
         d="m 322.00299,247.09136 q -0.3125,-0.625 -0.50781,-2.22657 -2.51953,2.61719 -6.01563,2.61719 -3.125,0 -5.13672,-1.75781 -1.99218,-1.77734 -1.99218,-4.49219 0,-3.30078 2.5,-5.11719 2.51953,-1.83593 7.07031,-1.83593 l 3.51562,0 0,-1.66016 q 0,-1.89453 -1.13281,-3.00781 -1.13281,-1.13281 -3.33984,-1.13281 -1.9336,0 -3.24219,0.97656 -1.30859,0.97656 -1.30859,2.36328 l -3.63282,0 q 0,-1.58203 1.11329,-3.04688 1.13281,-1.48437 3.04687,-2.34375 1.93359,-0.85937 4.23828,-0.85937 3.65235,0 5.72266,1.83594 2.07031,1.8164 2.14844,5.01953 l 0,9.72656 q 0,2.91016 0.74218,4.62891 l 0,0.3125 -3.78906,0 z m -5.99609,-2.75391 q 1.69922,0 3.22265,-0.87891 1.52344,-0.8789 2.20703,-2.28515 l 0,-4.33594 -2.83203,0 q -6.64062,0 -6.64062,3.88672 0,1.69922 1.13281,2.65625 1.13281,0.95703 2.91016,0.95703 z" />
      <path
         id="path98"
         style="font-style:normal;font-variant:normal;font-weight:normal;font-stretch:normal;font-size:40px;line-height:120.00000477%;font-family:Roboto;-inkscape-font-specification:'Roboto, Normal';text-align:center;writing-mode:lr-tb;text-anchor:middle"
         d="m 334.17096,225.95854 0.11719,2.65625 q 2.42187,-3.04687 6.32812,-3.04687 6.69922,0 6.75781,7.55859 l 0,13.96485 -3.61328,0 0,-13.98438 q -0.0195,-2.28515 -1.05468,-3.3789 -1.01563,-1.09375 -3.1836,-1.09375 -1.75781,0 -3.08594,0.9375 -1.32812,0.9375 -2.07031,2.46093 l 0,15.0586 -3.61328,0 0,-21.13282 3.41797,0 z" />
      <path
         id="path100"
         style="font-style:normal;font-variant:normal;font-weight:normal;font-stretch:normal;font-size:40px;line-height:120.00000477%;font-family:Roboto;-inkscape-font-specification:'Roboto, Normal';text-align:center;writing-mode:lr-tb;text-anchor:middle"
         d="m 351.98346,236.34917 q 0,-4.86328 2.30469,-7.8125 2.30468,-2.96875 6.03515,-2.96875 3.71094,0 5.87891,2.53906 l 0,-11.01562 3.61328,0 0,30 -3.32031,0 -0.17578,-2.26563 q -2.16797,2.65625 -6.03516,2.65625 -3.67187,0 -5.99609,-3.00781 -2.30469,-3.00781 -2.30469,-7.85156 l 0,-0.27344 z m 3.61328,0.41016 q 0,3.59375 1.48438,5.625 1.48437,2.03125 4.10156,2.03125 3.4375,0 5.01953,-3.08594 l 0,-9.70703 q -1.62109,-2.98828 -4.98047,-2.98828 -2.65625,0 -4.14062,2.05078 -1.48438,2.05078 -1.48438,6.07422 z" />
      <path
         id="path102"
         style="font-style:normal;font-variant:normal;font-weight:normal;font-stretch:normal;font-size:40px;line-height:120.00000477%;font-family:Roboto;-inkscape-font-specification:'Roboto, Normal';text-align:center;writing-mode:lr-tb;text-anchor:middle"
         d="m 388.78033,225.95854 0.11719,2.65625 q 2.42188,-3.04687 6.32813,-3.04687 6.69922,0 6.75781,7.55859 l 0,13.96485 -3.61328,0 0,-13.98438 q -0.0195,-2.28515 -1.05469,-3.3789 -1.01562,-1.09375 -3.18359,-1.09375 -1.75782,0 -3.08594,0.9375 -1.32813,0.9375 -2.07031,2.46093 l 0,15.0586 -3.61328,0 0,-21.13282 3.41796,0 z" />
      <path
         id="path104"
         style="font-style:normal;font-variant:normal;font-weight:normal;font-stretch:normal;font-size:40px;line-height:120.00000477%;font-family:Roboto;-inkscape-font-specification:'Roboto, Normal';text-align:center;writing-mode:lr-tb;text-anchor:middle"
         d="m 420.51862,245.00151 q -2.10938,2.48047 -6.19141,2.48047 -3.37891,0 -5.15625,-1.95312 -1.75781,-1.97266 -1.77734,-5.82032 l 0,-13.75 3.61328,0 0,13.65235 q 0,4.80469 3.90625,4.80469 4.14062,0 5.50781,-3.08594 l 0,-15.3711 3.61328,0 0,21.13282 -3.4375,0 -0.0781,-2.08985 z" />
      <path
         id="path106"
         style="font-style:normal;font-variant:normal;font-weight:normal;font-stretch:normal;font-size:40px;line-height:120.00000477%;font-family:Roboto;-inkscape-font-specification:'Roboto, Normal';text-align:center;writing-mode:lr-tb;text-anchor:middle"
         d="m 432.90143,225.95854 0.0976,2.34375 q 2.32422,-2.73437 6.26954,-2.73437 4.43359,0 6.03515,3.39844 1.05469,-1.52344 2.73438,-2.46094 1.69922,-0.9375 4.0039,-0.9375 6.95313,0 7.07032,7.36328 l 0,14.16016 -3.61329,0 0,-13.94532 q 0,-2.26562 -1.03515,-3.3789 -1.03516,-1.13281 -3.47656,-1.13281 -2.01172,0 -3.33985,1.21093 -1.32812,1.19141 -1.54297,3.22266 l 0,14.02344 -3.63281,0 0,-13.84766 q 0,-4.60937 -4.51172,-4.60937 -3.55469,0 -4.86328,3.02734 l 0,15.42969 -3.61328,0 0,-21.13282 3.41797,0 z" />
      <path
         id="path108"
         style="font-style:normal;font-variant:normal;font-weight:normal;font-stretch:normal;font-size:40px;line-height:120.00000477%;font-family:Roboto;-inkscape-font-specification:'Roboto, Normal';text-align:center;writing-mode:lr-tb;text-anchor:middle"
         d="m 473.35065,247.48198 q -4.29688,0 -6.99219,-2.8125 -2.69531,-2.83203 -2.69531,-7.55859 l 0,-0.66406 q 0,-3.14454 1.1914,-5.60547 1.21094,-2.48047 3.35938,-3.86719 2.16797,-1.40625 4.6875,-1.40625 4.12109,0 6.40625,2.71484 2.28515,2.71485 2.28515,7.77344 l 0,1.50391 -14.3164,0 q 0.0781,3.125 1.8164,5.05859 1.75782,1.91406 4.45313,1.91406 1.91406,0 3.24219,-0.78125 1.32812,-0.78125 2.32422,-2.07031 l 2.20703,1.71875 q -2.65625,4.08203 -7.96875,4.08203 z m -0.44922,-18.94531 q -2.1875,0 -3.67188,1.60156 -1.48437,1.58203 -1.83593,4.45313 l 10.58593,0 0,-0.27344 q -0.15625,-2.75391 -1.48437,-4.25781 -1.32813,-1.52344 -3.59375,-1.52344 z" />
      <path
         id="path110"
         style="font-style:normal;font-variant:normal;font-weight:normal;font-stretch:normal;font-size:40px;line-height:120.00000477%;font-family:Roboto;-inkscape-font-specification:'Roboto, Normal';text-align:center;writing-mode:lr-tb;text-anchor:middle"
         d="m 495.96783,229.20073 q -0.82031,-0.13672 -1.77734,-0.13672 -3.55469,0 -4.82422,3.02735 l 0,15 -3.61328,0 0,-21.13282 3.51563,0 0.0586,2.44141 q 1.77734,-2.83203 5.03906,-2.83203 1.05469,0 1.60156,0.27344 l 0,3.35937 z" />
      <path
         id="path112"
         style="font-style:normal;font-variant:normal;font-weight:normal;font-stretch:normal;font-size:40px;line-height:120.00000477%;font-family:Roboto;-inkscape-font-specification:'Roboto, Normal';text-align:center;writing-mode:lr-tb;text-anchor:middle"
         d="m 503.1944,247.09136 -3.61328,0 0,-21.13282 3.61328,0 0,21.13282 z m -3.90625,-26.73828 q 0,-0.87891 0.52734,-1.48438 0.54688,-0.60547 1.60156,-0.60547 1.05469,0 1.60157,0.60547 0.54687,0.60547 0.54687,1.48438 0,0.8789 -0.54687,1.46484 -0.54688,0.58594 -1.60157,0.58594 -1.05468,0 -1.60156,-0.58594 -0.52734,-0.58594 -0.52734,-1.46484 z" />
      <path
         id="path114"
         style="font-style:normal;font-variant:normal;font-weight:normal;font-stretch:normal;font-size:40px;line-height:120.00000477%;font-family:Roboto;-inkscape-font-specification:'Roboto, Normal';text-align:center;writing-mode:lr-tb;text-anchor:middle"
         d="m 517.43268,244.53276 q 1.93359,0 3.3789,-1.17187 1.44532,-1.17188 1.60157,-2.92969 l 3.41797,0 q -0.0977,1.81641 -1.25,3.45703 -1.15235,1.64063 -3.08594,2.61719 -1.91406,0.97656 -4.0625,0.97656 -4.31641,0 -6.875,-2.87109 -2.53906,-2.89063 -2.53906,-7.89063 l 0,-0.60547 q 0,-3.08593 1.13281,-5.48828 1.13281,-2.40234 3.24219,-3.73047 2.1289,-1.32812 5.01953,-1.32812 3.55468,0 5.89843,2.12891 2.36329,2.1289 2.51954,5.52734 l -3.41797,0 q -0.15625,-2.05078 -1.5625,-3.35938 -1.38672,-1.32812 -3.4375,-1.32812 -2.75391,0 -4.27735,1.99219 -1.5039,1.97265 -1.5039,5.72265 l 0,0.6836 q 0,3.65234 1.5039,5.625 1.50391,1.97265 4.29688,1.97265 z" />
      <path
         id="path116"
         style="font-style:normal;font-variant:normal;font-weight:normal;font-stretch:normal;font-size:40px;line-height:120.00000477%;font-family:Roboto;-inkscape-font-specification:'Roboto, Normal';text-align:center;writing-mode:lr-tb;text-anchor:middle"
         d="m 542.94049,247.09136 q -0.3125,-0.625 -0.50781,-2.22657 -2.51953,2.61719 -6.01563,2.61719 -3.125,0 -5.13672,-1.75781 -1.99218,-1.77734 -1.99218,-4.49219 0,-3.30078 2.5,-5.11719 2.51953,-1.83593 7.07031,-1.83593 l 3.51562,0 0,-1.66016 q 0,-1.89453 -1.13281,-3.00781 -1.13281,-1.13281 -3.33984,-1.13281 -1.9336,0 -3.24219,0.97656 -1.30859,0.97656 -1.30859,2.36328 l -3.63282,0 q 0,-1.58203 1.11329,-3.04688 1.13281,-1.48437 3.04687,-2.34375 1.93359,-0.85937 4.23828,-0.85937 3.65235,0 5.72266,1.83594 2.07031,1.8164 2.14844,5.01953 l 0,9.72656 q 0,2.91016 0.74218,4.62891 l 0,0.3125 -3.78906,0 z m -5.99609,-2.75391 q 1.69922,0 3.22265,-0.87891 1.52344,-0.8789 2.20703,-2.28515 l 0,-4.33594 -2.83203,0 q -6.64062,0 -6.64062,3.88672 0,1.69922 1.13281,2.65625 1.13281,0.95703 2.91016,0.95703 z" />
      <path
         id="path118"
         style="font-style:normal;font-variant:normal;font-weight:normal;font-stretch:normal;font-size:40px;line-height:120.00000477%;font-family:Roboto;-inkscape-font-specification:'Roboto, Normal';text-align:center;writing-mode:lr-tb;text-anchor:middle"
         d="m 555.61627,247.09136 -3.61328,0 0,-30 3.61328,0 0,30 z" />
      <path
         id="path120"
         style="font-style:normal;font-variant:normal;font-weight:normal;font-stretch:normal;font-size:40px;line-height:120.00000477%;font-family:Roboto;-inkscape-font-specification:'Roboto, Normal';text-align:center;writing-mode:lr-tb;text-anchor:middle"
         d="m 574.6983,225.95854 0.0977,2.34375 q 2.32422,-2.73437 6.26953,-2.73437 4.43359,0 6.03516,3.39844 1.05468,-1.52344 2.73437,-2.46094 1.69922,-0.9375 4.00391,-0.9375 6.95312,0 7.07031,7.36328 l 0,14.16016 -3.61328,0 0,-13.94532 q 0,-2.26562 -1.03516,-3.3789 -1.03515,-1.13281 -3.47656,-1.13281 -2.01172,0 -3.33984,1.21093 -1.32813,1.19141 -1.54297,3.22266 l 0,14.02344 -3.63281,0 0,-13.84766 q 0,-4.60937 -4.51172,-4.60937 -3.55469,0 -4.86328,3.02734 l 0,15.42969 -3.61329,0 0,-21.13282 3.41797,0 z" />
      <path
         id="path122"
         style="font-style:normal;font-variant:normal;font-weight:normal;font-stretch:normal;font-size:40px;line-height:120.00000477%;font-family:Roboto;-inkscape-font-specification:'Roboto, Normal';text-align:center;writing-mode:lr-tb;text-anchor:middle"
         d="m 615.14752,247.48198 q -4.29687,0 -6.99219,-2.8125 -2.69531,-2.83203 -2.69531,-7.55859 l 0,-0.66406 q 0,-3.14454 1.19141,-5.60547 1.21094,-2.48047 3.35937,-3.86719 2.16797,-1.40625 4.6875,-1.40625 4.1211,0 6.40625,2.71484 2.28516,2.71485 2.28516,7.77344 l 0,1.50391 -14.31641,0 q 0.0781,3.125 1.81641,5.05859 1.75781,1.91406 4.45312,1.91406 1.91407,0 3.24219,-0.78125 1.32813,-0.78125 2.32422,-2.07031 l 2.20703,1.71875 q -2.65625,4.08203 -7.96875,4.08203 z m -0.44922,-18.94531 q -2.1875,0 -3.67187,1.60156 -1.48438,1.58203 -1.83594,4.45313 l 10.58594,0 0,-0.27344 q -0.15625,-2.75391 -1.48438,-4.25781 -1.32812,-1.52344 -3.59375,-1.52344 z" />
      <path
         id="path124"
         style="font-style:normal;font-variant:normal;font-weight:normal;font-stretch:normal;font-size:40px;line-height:120.00000477%;font-family:Roboto;-inkscape-font-specification:'Roboto, Normal';text-align:center;writing-mode:lr-tb;text-anchor:middle"
         d="m 632.45221,220.84136 0,5.11718 3.94531,0 0,2.79297 -3.94531,0 0,13.10547 q 0,1.26953 0.52734,1.91406 0.52735,0.625 1.79688,0.625 0.625,0 1.71875,-0.23437 l 0,2.92969 q -1.42578,0.39062 -2.77344,0.39062 -2.42187,0 -3.65234,-1.46484 -1.23047,-1.46485 -1.23047,-4.16016 l 0,-13.10547 -3.84766,0 0,-2.79297 3.84766,0 0,-5.11718 3.61328,0 z" />
      <path
         id="path126"
         style="font-style:normal;font-variant:normal;font-weight:normal;font-stretch:normal;font-size:40px;line-height:120.00000477%;font-family:Roboto;-inkscape-font-specification:'Roboto, Normal';text-align:center;writing-mode:lr-tb;text-anchor:middle"
         d="m 644.21002,228.51714 q 2.40235,-2.94922 6.25,-2.94922 6.69922,0 6.75781,7.55859 l 0,13.96485 -3.61328,0 0,-13.98438 q -0.0195,-2.28515 -1.05468,-3.3789 -1.01563,-1.09375 -3.1836,-1.09375 -1.75781,0 -3.08594,0.9375 -1.32812,0.9375 -2.07031,2.46093 l 0,15.0586 -3.61328,0 0,-30 3.61328,0 0,11.42578 z" />
      <path
         id="path128"
         style="font-style:normal;font-variant:normal;font-weight:normal;font-stretch:normal;font-size:40px;line-height:120.00000477%;font-family:Roboto;-inkscape-font-specification:'Roboto, Normal';text-align:center;writing-mode:lr-tb;text-anchor:middle"
         d="m 661.67096,236.32964 q 0,-3.10547 1.21094,-5.58594 1.23047,-2.48047 3.39843,-3.82812 2.1875,-1.34766 4.98047,-1.34766 4.31641,0 6.97266,2.98828 2.67578,2.98828 2.67578,7.94922 l 0,0.25391 q 0,3.08593 -1.19141,5.54687 -1.17187,2.44141 -3.3789,3.80859 -2.1875,1.36719 -5.03906,1.36719 -4.29688,0 -6.97266,-2.98828 -2.65625,-2.98828 -2.65625,-7.91016 l 0,-0.2539 z m 3.63281,0.42969 q 0,3.51562 1.6211,5.64453 1.64062,2.1289 4.375,2.1289 2.7539,0 4.375,-2.14843 1.62109,-2.16797 1.62109,-6.05469 0,-3.47656 -1.66016,-5.625 -1.64062,-2.16797 -4.375,-2.16797 -2.67578,0 -4.3164,2.12891 -1.64063,2.1289 -1.64063,6.09375 z" />
      <path
         id="path130"
         style="font-style:normal;font-variant:normal;font-weight:normal;font-stretch:normal;font-size:40px;line-height:120.00000477%;font-family:Roboto;-inkscape-font-specification:'Roboto, Normal';text-align:center;writing-mode:lr-tb;text-anchor:middle"
         d="m 684.56158,236.34917 q 0,-4.86328 2.30469,-7.8125 2.30469,-2.96875 6.03516,-2.96875 3.71094,0 5.8789,2.53906 l 0,-11.01562 3.61329,0 0,30 -3.32032,0 -0.17578,-2.26563 q -2.16797,2.65625 -6.03515,2.65625 -3.67188,0 -5.9961,-3.00781 -2.30469,-3.00781 -2.30469,-7.85156 l 0,-0.27344 z m 3.61329,0.41016 q 0,3.59375 1.48437,5.625 1.48438,2.03125 4.10156,2.03125 3.4375,0 5.01953,-3.08594 l 0,-9.70703 q -1.62109,-2.98828 -4.98046,-2.98828 -2.65625,0 -4.14063,2.05078 -1.48437,2.05078 -1.48437,6.07422 z" />
      <path
         id="path132"
         style="font-style:normal;font-variant:normal;font-weight:normal;font-stretch:normal;font-size:40px;line-height:120.00000477%;font-family:Roboto;-inkscape-font-specification:'Roboto, Normal';text-align:center;writing-mode:lr-tb;text-anchor:middle"
         d="m 720.3233,241.48589 q 0,-1.46485 -1.11328,-2.26563 -1.09375,-0.82031 -3.84765,-1.40625 -2.73438,-0.58593 -4.35547,-1.40625 -1.60157,-0.82031 -2.38282,-1.95312 -0.76171,-1.13281 -0.76171,-2.69531 0,-2.59766 2.1875,-4.39454 2.20703,-1.79687 5.625,-1.79687 3.59375,0 5.82031,1.85547 2.24609,1.85547 2.24609,4.74609 l -3.63281,0 q 0,-1.48437 -1.26953,-2.55859 -1.25,-1.07422 -3.16406,-1.07422 -1.97266,0 -3.08594,0.85937 -1.11328,0.85938 -1.11328,2.2461 0,1.30859 1.03515,1.97265 1.03516,0.66407 3.73047,1.26954 2.71485,0.60546 4.39453,1.44531 1.67969,0.83984 2.48047,2.03125 0.82031,1.17187 0.82031,2.87109 0,2.83203 -2.26562,4.55078 -2.26563,1.69922 -5.87891,1.69922 -2.53906,0 -4.49218,-0.89844 -1.95313,-0.89843 -3.06641,-2.5 -1.09375,-1.62109 -1.09375,-3.49609 l 3.61328,0 q 0.0977,1.81641 1.44531,2.89063 1.36719,1.05468 3.59375,1.05468 2.05078,0 3.28125,-0.82031 1.25,-0.83984 1.25,-2.22656 z" />
    </g>
    <g
       id="text4220"
       style="font-style:normal;font-variant:normal;font-weight:normal;font-stretch:normal;font-size:40px;line-height:120.00000477%;font-family:Roboto;-inkscape-font-specification:'Roboto, Normal';text-align:center;letter-spacing:0px;word-spacing:0px;writing-mode:lr-tb;text-anchor:middle;fill:#000000;fill-opacity:1;stroke:none;stroke-width:1px;stroke-linecap:butt;stroke-linejoin:miter;stroke-opacity:1">
      <path
         id="path135"
         style=""
         d="m 679.68188,654.20349 q -4.82421,-1.38672 -7.03125,-3.39844 -2.1875,-2.03125 -2.1875,-5 0,-3.35937 2.67579,-5.54687 2.69531,-2.20703 6.99218,-2.20703 2.92969,0 5.21485,1.13281 2.30468,1.13281 3.55468,3.125 1.26954,1.99219 1.26954,4.35547 l -3.76954,0 q 0,-2.57813 -1.64062,-4.04297 -1.64063,-1.48438 -4.62891,-1.48438 -2.77343,0 -4.33593,1.23047 -1.54297,1.21094 -1.54297,3.37891 0,1.73828 1.46484,2.94922 1.48438,1.1914 5.01953,2.1875 3.55469,0.99609 5.54688,2.20703 2.01172,1.19141 2.96875,2.79297 0.97656,1.60156 0.97656,3.76953 0,3.45703 -2.69531,5.54687 -2.69532,2.07032 -7.20703,2.07032 -2.92969,0 -5.46875,-1.11328 -2.53907,-1.13282 -3.92579,-3.08594 -1.36718,-1.95313 -1.36718,-4.4336 l 3.76953,0 q 0,2.57813 1.89453,4.08204 1.91406,1.48437 5.09766,1.48437 2.96875,0 4.55078,-1.21094 1.58203,-1.21093 1.58203,-3.30078 0,-2.08984 -1.46485,-3.22265 -1.46484,-1.15235 -5.3125,-2.26563 z" />
      <path
         id="path137"
         style=""
         d="m 702.96313,664.32068 q 1.9336,0 3.37891,-1.17188 1.44531,-1.17187 1.60156,-2.92968 l 3.41797,0 q -0.0977,1.8164 -1.25,3.45703 -1.15234,1.64062 -3.08594,2.61718 -1.91406,0.97657 -4.0625,0.97657 -4.3164,0 -6.875,-2.8711 -2.53906,-2.89062 -2.53906,-7.89062 l 0,-0.60547 q 0,-3.08594 1.13281,-5.48828 1.13282,-2.40235 3.24219,-3.73047 2.12891,-1.32813 5.01953,-1.32813 3.55469,0 5.89844,2.12891 2.36328,2.12891 2.51953,5.52734 l -3.41797,0 q -0.15625,-2.05078 -1.5625,-3.35937 -1.38672,-1.32813 -3.4375,-1.32813 -2.7539,0 -4.27734,1.99219 -1.50391,1.97266 -1.50391,5.72266 l 0,0.68359 q 0,3.65235 1.50391,5.625 1.50391,1.97266 4.29687,1.97266 z" />
      <path
         id="path139"
         style=""
         d="m 719.34985,666.87927 -3.61328,0 0,-21.13281 3.61328,0 0,21.13281 z m -3.90625,-26.73828 q 0,-0.87891 0.52735,-1.48437 0.54687,-0.60547 1.60156,-0.60547 1.05469,0 1.60156,0.60547 0.54688,0.60546 0.54688,1.48437 0,0.87891 -0.54688,1.46484 -0.54687,0.58594 -1.60156,0.58594 -1.05469,0 -1.60156,-0.58594 -0.52735,-0.58593 -0.52735,-1.46484 z" />
      <path
         id="path141"
         style=""
         d="m 733.8811,667.2699 q -4.29687,0 -6.99218,-2.8125 -2.69532,-2.83203 -2.69532,-7.5586 l 0,-0.66406 q 0,-3.14453 1.19141,-5.60547 1.21094,-2.48047 3.35937,-3.86719 2.16797,-1.40625 4.6875,-1.40625 4.1211,0 6.40625,2.71485 2.28516,2.71484 2.28516,7.77344 l 0,1.5039 -14.31641,0 q 0.0781,3.125 1.81641,5.0586 1.75781,1.91406 4.45313,1.91406 1.91406,0 3.24218,-0.78125 1.32813,-0.78125 2.32422,-2.07031 l 2.20703,1.71875 q -2.65625,4.08203 -7.96875,4.08203 z m -0.44922,-18.94532 q -2.1875,0 -3.67187,1.60157 -1.48438,1.58203 -1.83594,4.45312 l 10.58594,0 0,-0.27344 q -0.15625,-2.7539 -1.48438,-4.25781 -1.32812,-1.52344 -3.59375,-1.52344 z" />
      <path
         id="path143"
         style=""
         d="m 749.70142,645.74646 0.11718,2.65625 q 2.42188,-3.04688 6.32813,-3.04688 6.69922,0 6.75781,7.5586 l 0,13.96484 -3.61328,0 0,-13.98437 q -0.0195,-2.28516 -1.05469,-3.37891 -1.01562,-1.09375 -3.18359,-1.09375 -1.75781,0 -3.08594,0.9375 -1.32812,0.9375 -2.07031,2.46094 l 0,15.05859 -3.61328,0 0,-21.13281 3.41797,0 z" />
      <path
         id="path145"
         style=""
         d="m 776.86938,664.32068 q 1.9336,0 3.37891,-1.17188 1.44531,-1.17187 1.60156,-2.92968 l 3.41797,0 q -0.0977,1.8164 -1.25,3.45703 -1.15234,1.64062 -3.08594,2.61718 -1.91406,0.97657 -4.0625,0.97657 -4.3164,0 -6.875,-2.8711 -2.53906,-2.89062 -2.53906,-7.89062 l 0,-0.60547 q 0,-3.08594 1.13281,-5.48828 1.13282,-2.40235 3.24219,-3.73047 2.12891,-1.32813 5.01953,-1.32813 3.55469,0 5.89844,2.12891 2.36328,2.12891 2.51953,5.52734 l -3.41797,0 q -0.15625,-2.05078 -1.5625,-3.35937 -1.38672,-1.32813 -3.4375,-1.32813 -2.7539,0 -4.27734,1.99219 -1.50391,1.97266 -1.50391,5.72266 l 0,0.68359 q 0,3.65235 1.50391,5.625 1.50391,1.97266 4.29687,1.97266 z" />
      <path
         id="path147"
         style=""
         d="m 798.09985,667.2699 q -4.29687,0 -6.99218,-2.8125 -2.69532,-2.83203 -2.69532,-7.5586 l 0,-0.66406 q 0,-3.14453 1.19141,-5.60547 1.21094,-2.48047 3.35937,-3.86719 2.16797,-1.40625 4.6875,-1.40625 4.1211,0 6.40625,2.71485 2.28516,2.71484 2.28516,7.77344 l 0,1.5039 -14.31641,0 q 0.0781,3.125 1.81641,5.0586 1.75781,1.91406 4.45313,1.91406 1.91406,0 3.24218,-0.78125 1.32813,-0.78125 2.32422,-2.07031 l 2.20703,1.71875 q -2.65625,4.08203 -7.96875,4.08203 z m -0.44922,-18.94532 q -2.1875,0 -3.67187,1.60157 -1.48438,1.58203 -1.83594,4.45312 l 10.58594,0 0,-0.27344 q -0.15625,-2.7539 -1.48438,-4.25781 -1.32812,-1.52344 -3.59375,-1.52344 z" />
      <path
         id="path149"
         style=""
         d="m 819.54517,656.13708 q 0,-4.86328 2.30468,-7.8125 2.30469,-2.96875 6.03516,-2.96875 3.71094,0 5.87891,2.53907 l 0,-11.01563 3.61328,0 0,30 -3.32032,0 -0.17578,-2.26562 q -2.16797,2.65625 -6.03515,2.65625 -3.67188,0 -5.9961,-3.00782 -2.30468,-3.00781 -2.30468,-7.85156 l 0,-0.27344 z m 3.61328,0.41016 q 0,3.59375 1.48437,5.625 1.48438,2.03125 4.10156,2.03125 3.4375,0 5.01954,-3.08594 l 0,-9.70703 q -1.6211,-2.98828 -4.98047,-2.98828 -2.65625,0 -4.14063,2.05078 -1.48437,2.05078 -1.48437,6.07422 z" />
      <path
         id="path151"
         style=""
         d="m 846.92798,666.87927 -3.61328,0 0,-21.13281 3.61328,0 0,21.13281 z m -3.90625,-26.73828 q 0,-0.87891 0.52734,-1.48437 0.54688,-0.60547 1.60156,-0.60547 1.05469,0 1.60157,0.60547 0.54687,0.60546 0.54687,1.48437 0,0.87891 -0.54687,1.46484 -0.54688,0.58594 -1.60157,0.58594 -1.05468,0 -1.60156,-0.58594 -0.52734,-0.58593 -0.52734,-1.46484 z" />
      <path
         id="path153"
         style=""
         d="m 864.99438,661.2738 q 0,-1.46484 -1.11328,-2.26562 -1.09375,-0.82031 -3.84765,-1.40625 -2.73438,-0.58594 -4.35547,-1.40625 -1.60156,-0.82031 -2.38281,-1.95313 -0.76172,-1.13281 -0.76172,-2.69531 0,-2.59766 2.1875,-4.39453 2.20703,-1.79688 5.625,-1.79688 3.59375,0 5.82031,1.85547 2.24609,1.85547 2.24609,4.7461 l -3.63281,0 q 0,-1.48438 -1.26953,-2.5586 -1.25,-1.07422 -3.16406,-1.07422 -1.97266,0 -3.08594,0.85938 -1.11328,0.85937 -1.11328,2.24609 0,1.3086 1.03515,1.97266 1.03516,0.66406 3.73047,1.26953 2.71485,0.60547 4.39453,1.44531 1.67969,0.83985 2.48047,2.03125 0.82032,1.17188 0.82032,2.8711 0,2.83203 -2.26563,4.55078 -2.26562,1.69922 -5.87891,1.69922 -2.53906,0 -4.49218,-0.89844 -1.95313,-0.89844 -3.06641,-2.5 -1.09375,-1.62109 -1.09375,-3.49609 l 3.61328,0 q 0.0977,1.8164 1.44531,2.89062 1.36719,1.05469 3.59375,1.05469 2.05079,0 3.28125,-0.82031 1.25,-0.83985 1.25,-2.22657 z" />
      <path
         id="path155"
         style=""
         d="m 881.79126,664.32068 q 1.93359,0 3.37891,-1.17188 1.44531,-1.17187 1.60156,-2.92968 l 3.41797,0 q -0.0977,1.8164 -1.25,3.45703 -1.15235,1.64062 -3.08594,2.61718 -1.91406,0.97657 -4.0625,0.97657 -4.31641,0 -6.875,-2.8711 -2.53906,-2.89062 -2.53906,-7.89062 l 0,-0.60547 q 0,-3.08594 1.13281,-5.48828 1.13281,-2.40235 3.24219,-3.73047 2.1289,-1.32813 5.01953,-1.32813 3.55469,0 5.89844,2.12891 2.36328,2.12891 2.51953,5.52734 l -3.41797,0 q -0.15625,-2.05078 -1.5625,-3.35937 -1.38672,-1.32813 -3.4375,-1.32813 -2.75391,0 -4.27735,1.99219 -1.5039,1.97266 -1.5039,5.72266 l 0,0.68359 q 0,3.65235 1.5039,5.625 1.50391,1.97266 4.29688,1.97266 z" />
      <path
         id="path157"
         style=""
         d="m 898.17798,666.87927 -3.61328,0 0,-21.13281 3.61328,0 0,21.13281 z m -3.90625,-26.73828 q 0,-0.87891 0.52734,-1.48437 0.54688,-0.60547 1.60156,-0.60547 1.05469,0 1.60157,0.60547 0.54687,0.60546 0.54687,1.48437 0,0.87891 -0.54687,1.46484 -0.54688,0.58594 -1.60157,0.58594 -1.05468,0 -1.60156,-0.58594 -0.52734,-0.58593 -0.52734,-1.46484 z" />
      <path
         id="path159"
         style=""
         d="m 921.79126,656.54724 q 0,4.82422 -2.20703,7.77344 -2.20703,2.94922 -5.97656,2.94922 -3.84766,0 -6.05469,-2.44141 l 0,10.17578 -3.61328,0 0,-29.25781 3.30078,0 0.17578,2.34375 q 2.20703,-2.73438 6.13281,-2.73438 3.8086,0 6.01563,2.8711 2.22656,2.87109 2.22656,7.98828 l 0,0.33203 z m -3.61328,-0.41016 q 0,-3.57421 -1.52344,-5.64453 -1.52344,-2.07031 -4.17969,-2.07031 -3.28125,0 -4.92187,2.91016 l 0,10.09765 q 1.62109,2.89063 4.96094,2.89063 2.59765,0 4.12109,-2.05078 1.54297,-2.07032 1.54297,-6.13282 z" />
      <path
         id="path161"
         style=""
         d="m 930.28735,666.87927 -3.61328,0 0,-30 3.61328,0 0,30 z" />
      <path
         id="path163"
         style=""
         d="m 939.97485,666.87927 -3.61328,0 0,-21.13281 3.61328,0 0,21.13281 z m -3.90625,-26.73828 q 0,-0.87891 0.52735,-1.48437 0.54687,-0.60547 1.60156,-0.60547 1.05469,0 1.60156,0.60547 0.54688,0.60546 0.54688,1.48437 0,0.87891 -0.54688,1.46484 -0.54687,0.58594 -1.60156,0.58594 -1.05469,0 -1.60156,-0.58594 -0.52735,-0.58593 -0.52735,-1.46484 z" />
      <path
         id="path165"
         style=""
         d="m 949.15454,645.74646 0.11719,2.65625 q 2.42187,-3.04688 6.32812,-3.04688 6.69922,0 6.75782,7.5586 l 0,13.96484 -3.61329,0 0,-13.98437 q -0.0195,-2.28516 -1.05468,-3.37891 -1.01563,-1.09375 -3.1836,-1.09375 -1.75781,0 -3.08593,0.9375 -1.32813,0.9375 -2.07032,2.46094 l 0,15.05859 -3.61328,0 0,-21.13281 3.41797,0 z" />
      <path
         id="path167"
         style=""
         d="m 976.61548,667.2699 q -4.29688,0 -6.99219,-2.8125 -2.69531,-2.83203 -2.69531,-7.5586 l 0,-0.66406 q 0,-3.14453 1.1914,-5.60547 1.21094,-2.48047 3.35938,-3.86719 2.16797,-1.40625 4.6875,-1.40625 4.12109,0 6.40625,2.71485 2.28516,2.71484 2.28516,7.77344 l 0,1.5039 -14.31641,0 q 0.0781,3.125 1.81641,5.0586 1.75781,1.91406 4.45312,1.91406 1.91406,0 3.24219,-0.78125 1.32812,-0.78125 2.32422,-2.07031 l 2.20703,1.71875 q -2.65625,4.08203 -7.96875,4.08203 z m -0.44922,-18.94532 q -2.1875,0 -3.67188,1.60157 -1.48437,1.58203 -1.83593,4.45312 l 10.58593,0 0,-0.27344 q -0.15625,-2.7539 -1.48437,-4.25781 -1.32813,-1.52344 -3.59375,-1.52344 z" />
    </g>
    <g
       id="flowRoot4242"
       style="font-style:normal;font-weight:normal;font-size:27.5px;line-height:125%;font-family:sans-serif;letter-spacing:0px;word-spacing:0px;fill:#000000;fill-opacity:1;stroke:none;stroke-width:1px;stroke-linecap:butt;stroke-linejoin:miter;stroke-opacity:1" />
    <g
       id="text4250"
       style="font-style:normal;font-variant:normal;font-weight:normal;font-stretch:normal;font-size:25px;line-height:120.00000477%;font-family:Roboto;-inkscape-font-specification:'Roboto, Normal';text-align:center;letter-spacing:0px;word-spacing:0px;writing-mode:lr-tb;text-anchor:middle;fill:#000000;fill-opacity:1;stroke:none;stroke-width:1px;stroke-linecap:butt;stroke-linejoin:miter;stroke-opacity:1">
      <path
         id="path171"
         style="font-style:normal;font-variant:normal;font-weight:normal;font-stretch:normal;font-size:25px;line-height:120.00000477%;font-family:Roboto;-inkscape-font-specification:'Roboto, Normal';text-align:center;writing-mode:lr-tb;text-anchor:middle"
         d="m 447.76947,528.14612 q -0.32959,2.81982 -2.0874,4.35791 -1.74561,1.52588 -4.65088,1.52588 -3.14942,0 -5.05371,-2.2583 -1.89209,-2.2583 -1.89209,-6.04248 l 0,-1.70899 q 0,-2.47803 0.8789,-4.35791 0.89112,-1.87988 2.51465,-2.88086 1.62354,-1.01318 3.75977,-1.01318 2.83203,0 4.54101,1.58691 1.70899,1.57471 1.98975,4.37012 l -2.35596,0 q -0.30517,-2.12402 -1.33056,-3.07617 -1.01319,-0.95215 -2.84424,-0.95215 -2.2461,0 -3.52783,1.66016 -1.26953,1.66015 -1.26953,4.72412 l 0,1.72119 q 0,2.89306 1.20849,4.60205 1.2085,1.70898 3.38135,1.70898 1.95312,0 2.99072,-0.8789 1.04981,-0.89112 1.3916,-3.08838 l 2.35596,0 z" />
      <path
         id="path173"
         style="font-style:normal;font-variant:normal;font-weight:normal;font-stretch:normal;font-size:25px;line-height:120.00000477%;font-family:Roboto;-inkscape-font-specification:'Roboto, Normal';text-align:center;writing-mode:lr-tb;text-anchor:middle"
         d="m 450.00336,527.05969 q 0,-1.94092 0.75683,-3.49121 0.76905,-1.55029 2.12403,-2.39258 1.36718,-0.84228 3.11279,-0.84228 2.69775,0 4.35791,1.86767 1.67236,1.86768 1.67236,4.96827 l 0,0.15869 q 0,1.92871 -0.74463,3.46679 -0.73242,1.52588 -2.11181,2.38038 -1.36719,0.85449 -3.14942,0.85449 -2.68554,0 -4.35791,-1.86768 -1.66015,-1.86767 -1.66015,-4.94385 l 0,-0.15869 z m 2.2705,0.26856 q 0,2.19726 1.01319,3.52783 1.02539,1.33057 2.73437,1.33057 1.72119,0 2.73438,-1.34278 1.01318,-1.35498 1.01318,-3.78418 0,-2.17285 -1.0376,-3.51562 -1.02539,-1.35498 -2.73437,-1.35498 -1.67236,0 -2.69775,1.33056 -1.0254,1.33057 -1.0254,3.8086 z" />
      <path
         id="path175"
         style="font-style:normal;font-variant:normal;font-weight:normal;font-stretch:normal;font-size:25px;line-height:120.00000477%;font-family:Roboto;-inkscape-font-specification:'Roboto, Normal';text-align:center;writing-mode:lr-tb;text-anchor:middle"
         d="m 466.98334,520.57776 0.061,1.46484 q 1.45264,-1.70898 3.91846,-1.70898 2.771,0 3.77197,2.12402 0.65918,-0.95215 1.70899,-1.53808 1.06201,-0.58594 2.50244,-0.58594 4.3457,0 4.41894,4.60205 l 0,8.8501 -2.2583,0 0,-8.71582 q 0,-1.41602 -0.64697,-2.11182 -0.64697,-0.70801 -2.17285,-0.70801 -1.25733,0 -2.0874,0.75684 -0.83008,0.74463 -0.96436,2.01416 l 0,8.76465 -2.27051,0 0,-8.65479 q 0,-2.88086 -2.81982,-2.88086 -2.22168,0 -3.03955,1.89209 l 0,9.64356 -2.2583,0 0,-13.20801 2.13623,0 z" />
      <path
         id="path177"
         style="font-style:normal;font-variant:normal;font-weight:normal;font-stretch:normal;font-size:25px;line-height:120.00000477%;font-family:Roboto;-inkscape-font-specification:'Roboto, Normal';text-align:center;writing-mode:lr-tb;text-anchor:middle"
         d="m 497.94037,527.32825 q 0,3.01513 -1.3794,4.8584 -1.37939,1.84326 -3.73535,1.84326 -2.40478,0 -3.78418,-1.52588 l 0,6.35986 -2.2583,0 0,-18.28613 2.06299,0 0.10986,1.46484 q 1.3794,-1.70898 3.83301,-1.70898 2.38037,0 3.75977,1.79443 1.3916,1.79444 1.3916,4.99268 l 0,0.20752 z m -2.2583,-0.25635 q 0,-2.23389 -0.95215,-3.52783 -0.95215,-1.29395 -2.61231,-1.29395 -2.05078,0 -3.07617,1.81885 l 0,6.31103 q 1.01319,1.80665 3.10059,1.80665 1.62353,0 2.57568,-1.28174 0.96436,-1.29395 0.96436,-3.83301 z" />
      <path
         id="path179"
         style="font-style:normal;font-variant:normal;font-weight:normal;font-stretch:normal;font-size:25px;line-height:120.00000477%;font-family:Roboto;-inkscape-font-specification:'Roboto, Normal';text-align:center;writing-mode:lr-tb;text-anchor:middle"
         d="m 508.95111,532.47961 q -1.31836,1.5503 -3.86963,1.5503 -2.11181,0 -3.22265,-1.22071 -1.09864,-1.23291 -1.11084,-3.63769 l 0,-8.59375 2.2583,0 0,8.53271 q 0,3.00293 2.4414,3.00293 2.58789,0 3.44239,-1.92871 l 0,-9.60693 2.2583,0 0,13.20801 -2.14844,0 -0.0488,-1.30616 z" />
      <path
         id="path181"
         style="font-style:normal;font-variant:normal;font-weight:normal;font-stretch:normal;font-size:25px;line-height:120.00000477%;font-family:Roboto;-inkscape-font-specification:'Roboto, Normal';text-align:center;writing-mode:lr-tb;text-anchor:middle"
         d="m 517.63031,517.37952 0,3.19824 2.46582,0 0,1.7456 -2.46582,0 0,8.19092 q 0,0.79346 0.32959,1.19629 0.32959,0.39063 1.12305,0.39063 0.39062,0 1.07422,-0.14649 l 0,1.83106 q -0.89112,0.24414 -1.7334,0.24414 -1.51367,0 -2.28272,-0.91553 -0.76904,-0.91553 -0.76904,-2.6001 l 0,-8.19092 -2.40479,0 0,-1.7456 2.40479,0 0,-3.19824 2.2583,0 z" />
      <path
         id="path183"
         style="font-style:normal;font-variant:normal;font-weight:normal;font-stretch:normal;font-size:25px;line-height:120.00000477%;font-family:Roboto;-inkscape-font-specification:'Roboto, Normal';text-align:center;writing-mode:lr-tb;text-anchor:middle"
         d="m 530.87494,533.78577 q -0.19531,-0.39063 -0.31738,-1.3916 -1.57471,1.63574 -3.75977,1.63574 -1.95312,0 -3.21045,-1.09864 -1.24512,-1.11084 -1.24512,-2.80761 0,-2.06299 1.5625,-3.19824 1.57471,-1.14747 4.41895,-1.14747 l 2.19727,0 0,-1.03759 q 0,-1.18409 -0.70801,-1.87989 -0.70801,-0.708 -2.08741,-0.708 -1.20849,0 -2.02636,0.61035 -0.81787,0.61035 -0.81787,1.47705 l -2.27051,0 q 0,-0.98877 0.6958,-1.9043 0.70801,-0.92773 1.9043,-1.46484 1.20849,-0.53711 2.64892,-0.53711 2.28272,0 3.57666,1.14746 1.29395,1.13525 1.34278,3.13721 l 0,6.0791 q 0,1.81885 0.46386,2.89306 l 0,0.19532 -2.36816,0 z m -3.74756,-1.72119 q 1.06201,0 2.01416,-0.54932 0.95215,-0.54932 1.3794,-1.42822 l 0,-2.70996 -1.77002,0 q -4.1504,0 -4.1504,2.42919 0,1.06202 0.70801,1.66016 0.70801,0.59815 1.81885,0.59815 z" />
      <path
         id="path185"
         style="font-style:normal;font-variant:normal;font-weight:normal;font-stretch:normal;font-size:25px;line-height:120.00000477%;font-family:Roboto;-inkscape-font-specification:'Roboto, Normal';text-align:center;writing-mode:lr-tb;text-anchor:middle"
         d="m 539.40765,517.37952 0,3.19824 2.46582,0 0,1.7456 -2.46582,0 0,8.19092 q 0,0.79346 0.32959,1.19629 0.32959,0.39063 1.12305,0.39063 0.39063,0 1.07422,-0.14649 l 0,1.83106 q -0.89111,0.24414 -1.7334,0.24414 -1.51367,0 -2.28271,-0.91553 -0.76905,-0.91553 -0.76905,-2.6001 l 0,-8.19092 -2.40478,0 0,-1.7456 2.40478,0 0,-3.19824 2.2583,0 z" />
      <path
         id="path187"
         style="font-style:normal;font-variant:normal;font-weight:normal;font-stretch:normal;font-size:25px;line-height:120.00000477%;font-family:Roboto;-inkscape-font-specification:'Roboto, Normal';text-align:center;writing-mode:lr-tb;text-anchor:middle"
         d="m 546.9516,533.78577 -2.2583,0 0,-13.20801 2.2583,0 0,13.20801 z m -2.44141,-16.71143 q 0,-0.54932 0.32959,-0.92773 0.3418,-0.37842 1.00098,-0.37842 0.65918,0 1.00098,0.37842 0.34179,0.37841 0.34179,0.92773 0,0.54932 -0.34179,0.91553 -0.3418,0.36621 -1.00098,0.36621 -0.65918,0 -1.00098,-0.36621 -0.32959,-0.36621 -0.32959,-0.91553 z" />
      <path
         id="path189"
         style="font-style:normal;font-variant:normal;font-weight:normal;font-stretch:normal;font-size:25px;line-height:120.00000477%;font-family:Roboto;-inkscape-font-specification:'Roboto, Normal';text-align:center;writing-mode:lr-tb;text-anchor:middle"
         d="m 549.95453,527.05969 q 0,-1.94092 0.75683,-3.49121 0.76905,-1.55029 2.12403,-2.39258 1.36719,-0.84228 3.11279,-0.84228 2.69776,0 4.35791,1.86767 1.67236,1.86768 1.67236,4.96827 l 0,0.15869 q 0,1.92871 -0.74462,3.46679 -0.73243,1.52588 -2.11182,2.38038 -1.36719,0.85449 -3.14941,0.85449 -2.68555,0 -4.35791,-1.86768 -1.66016,-1.86767 -1.66016,-4.94385 l 0,-0.15869 z m 2.27051,0.26856 q 0,2.19726 1.01318,3.52783 1.02539,1.33057 2.73438,1.33057 1.72119,0 2.73437,-1.34278 1.01318,-1.35498 1.01318,-3.78418 0,-2.17285 -1.03759,-3.51562 -1.02539,-1.35498 -2.73438,-1.35498 -1.67236,0 -2.69775,1.33056 -1.02539,1.33057 -1.02539,3.8086 z" />
      <path
         id="path191"
         style="font-style:normal;font-variant:normal;font-weight:normal;font-stretch:normal;font-size:25px;line-height:120.00000477%;font-family:Roboto;-inkscape-font-specification:'Roboto, Normal';text-align:center;writing-mode:lr-tb;text-anchor:middle"
         d="m 566.94672,520.57776 0.0732,1.66016 q 1.51367,-1.9043 3.95508,-1.9043 4.18701,0 4.22363,4.72412 l 0,8.72803 -2.2583,0 0,-8.74024 q -0.0122,-1.42822 -0.65918,-2.11181 -0.63477,-0.6836 -1.98975,-0.6836 -1.09863,0 -1.92871,0.58594 -0.83008,0.58594 -1.29394,1.53809 l 0,9.41162 -2.2583,0 0,-13.20801 2.13623,0 z" />
      <path
         id="path193"
         style="font-style:normal;font-variant:normal;font-weight:normal;font-stretch:normal;font-size:25px;line-height:120.00000477%;font-family:Roboto;-inkscape-font-specification:'Roboto, Normal';text-align:center;writing-mode:lr-tb;text-anchor:middle"
         d="m 586.78314,533.78577 q -0.19531,-0.39063 -0.31738,-1.3916 -1.57471,1.63574 -3.75977,1.63574 -1.95312,0 -3.21045,-1.09864 -1.24511,-1.11084 -1.24511,-2.80761 0,-2.06299 1.5625,-3.19824 1.5747,-1.14747 4.41894,-1.14747 l 2.19727,0 0,-1.03759 q 0,-1.18409 -0.70801,-1.87989 -0.70801,-0.708 -2.0874,-0.708 -1.2085,0 -2.02637,0.61035 -0.81787,0.61035 -0.81787,1.47705 l -2.27051,0 q 0,-0.98877 0.6958,-1.9043 0.70801,-0.92773 1.9043,-1.46484 1.2085,-0.53711 2.64893,-0.53711 2.28271,0 3.57666,1.14746 1.29394,1.13525 1.34277,3.13721 l 0,6.0791 q 0,1.81885 0.46387,2.89306 l 0,0.19532 -2.36817,0 z m -3.74756,-1.72119 q 1.06202,0 2.01416,-0.54932 0.95215,-0.54932 1.3794,-1.42822 l 0,-2.70996 -1.77002,0 q -4.15039,0 -4.15039,2.42919 0,1.06202 0.70801,1.66016 0.708,0.59815 1.81884,0.59815 z" />
      <path
         id="path195"
         style="font-style:normal;font-variant:normal;font-weight:normal;font-stretch:normal;font-size:25px;line-height:120.00000477%;font-family:Roboto;-inkscape-font-specification:'Roboto, Normal';text-align:center;writing-mode:lr-tb;text-anchor:middle"
         d="m 594.70551,533.78577 -2.25831,0 0,-18.75 2.25831,0 0,18.75 z" />
      <path
         id="path197"
         style="font-style:normal;font-variant:normal;font-weight:normal;font-stretch:normal;font-size:25px;line-height:120.00000477%;font-family:Roboto;-inkscape-font-specification:'Roboto, Normal';text-align:center;writing-mode:lr-tb;text-anchor:middle"
         d="m 481.31439,560.28235 q 0,-0.91553 -0.6958,-1.41602 -0.68359,-0.51269 -2.40478,-0.8789 -1.70899,-0.36621 -2.72217,-0.87891 -1.00098,-0.51269 -1.48926,-1.2207 -0.47607,-0.70801 -0.47607,-1.68457 0,-1.62354 1.36718,-2.74658 1.3794,-1.12305 3.51563,-1.12305 2.24609,0 3.63769,1.15967 1.40381,1.15967 1.40381,2.96631 l -2.27051,0 q 0,-0.92774 -0.79345,-1.59913 -0.78125,-0.67138 -1.97754,-0.67138 -1.23291,0 -1.92871,0.53711 -0.6958,0.53711 -0.6958,1.40381 0,0.81787 0.64697,1.23291 0.64697,0.41504 2.33154,0.79345 1.69678,0.37842 2.74658,0.90332 1.04981,0.52491 1.5503,1.26953 0.51269,0.73243 0.51269,1.79444 0,1.77002 -1.41601,2.84424 -1.41602,1.06201 -3.67432,1.06201 -1.58691,0 -2.80762,-0.56153 -1.2207,-0.56152 -1.9165,-1.5625 -0.68359,-1.01318 -0.68359,-2.18505 l 2.2583,0 q 0.061,1.13525 0.90332,1.80664 0.85449,0.65918 2.24609,0.65918 1.28174,0 2.05078,-0.5127 0.78125,-0.5249 0.78125,-1.3916 z" />
      <path
         id="path199"
         style="font-style:normal;font-variant:normal;font-weight:normal;font-stretch:normal;font-size:25px;line-height:120.00000477%;font-family:Roboto;-inkscape-font-specification:'Roboto, Normal';text-align:center;writing-mode:lr-tb;text-anchor:middle"
         d="m 491.81244,562.18665 q 1.2085,0 2.11182,-0.73243 0.90332,-0.73242 1.00097,-1.83105 l 2.13623,0 q -0.061,1.13525 -0.78125,2.16064 -0.72021,1.0254 -1.92871,1.63575 -1.19629,0.61035 -2.53906,0.61035 -2.69775,0 -4.29688,-1.79444 -1.58691,-1.80664 -1.58691,-4.93164 l 0,-0.37841 q 0,-1.92871 0.70801,-3.43018 0.70801,-1.50146 2.02636,-2.33154 1.33057,-0.83008 3.13721,-0.83008 2.22168,0 3.68653,1.33057 1.47705,1.33056 1.5747,3.45459 l -2.13623,0 q -0.0976,-1.28174 -0.97656,-2.09961 -0.8667,-0.83008 -2.14844,-0.83008 -1.72119,0 -2.67334,1.24512 -0.93994,1.23291 -0.93994,3.57666 l 0,0.42724 q 0,2.28272 0.93994,3.51563 0.93994,1.23291 2.68555,1.23291 z" />
      <path
         id="path201"
         style="font-style:normal;font-variant:normal;font-weight:normal;font-stretch:normal;font-size:25px;line-height:120.00000477%;font-family:Roboto;-inkscape-font-specification:'Roboto, Normal';text-align:center;writing-mode:lr-tb;text-anchor:middle"
         d="m 502.05414,563.78577 -2.2583,0 0,-13.20801 2.2583,0 0,13.20801 z m -2.44141,-16.71143 q 0,-0.54931 0.32959,-0.92773 0.3418,-0.37842 1.00098,-0.37842 0.65918,0 1.00097,0.37842 0.3418,0.37842 0.3418,0.92773 0,0.54932 -0.3418,0.91553 -0.34179,0.36621 -1.00097,0.36621 -0.65918,0 -1.00098,-0.36621 -0.32959,-0.36621 -0.32959,-0.91553 z" />
      <path
         id="path203"
         style="font-style:normal;font-variant:normal;font-weight:normal;font-stretch:normal;font-size:25px;line-height:120.00000477%;font-family:Roboto;-inkscape-font-specification:'Roboto, Normal';text-align:center;writing-mode:lr-tb;text-anchor:middle"
         d="m 511.13617,564.02991 q -2.68555,0 -4.37012,-1.75781 -1.68457,-1.77002 -1.68457,-4.72413 l 0,-0.41503 q 0,-1.96534 0.74463,-3.50342 0.75684,-1.5503 2.09961,-2.41699 1.35498,-0.87891 2.92969,-0.87891 2.57568,0 4.0039,1.69678 1.42823,1.69677 1.42823,4.8584 l 0,0.93994 -8.94776,0 q 0.0488,1.95312 1.13526,3.16162 1.09863,1.19629 2.7832,1.19629 1.19629,0 2.02637,-0.48828 0.83008,-0.48829 1.45263,-1.29395 l 1.3794,1.07422 q -1.66016,2.55127 -4.98047,2.55127 z m -0.28076,-11.84082 q -1.36719,0 -2.29492,1.00097 -0.92774,0.98877 -1.14747,2.78321 l 6.61622,0 0,-0.1709 q -0.0977,-1.72119 -0.92774,-2.66113 -0.83008,-0.95215 -2.24609,-0.95215 z" />
      <path
         id="path205"
         style="font-style:normal;font-variant:normal;font-weight:normal;font-stretch:normal;font-size:25px;line-height:120.00000477%;font-family:Roboto;-inkscape-font-specification:'Roboto, Normal';text-align:center;writing-mode:lr-tb;text-anchor:middle"
         d="m 521.02386,550.57776 0.0733,1.66016 q 1.51367,-1.9043 3.95508,-1.9043 4.18701,0 4.22363,4.72412 l 0,8.72803 -2.2583,0 0,-8.74024 q -0.0122,-1.42822 -0.65918,-2.11181 -0.63477,-0.6836 -1.98975,-0.6836 -1.09863,0 -1.92871,0.58594 -0.83008,0.58594 -1.29394,1.53809 l 0,9.41162 -2.25831,0 0,-13.20801 2.13623,0 z" />
      <path
         id="path207"
         style="font-style:normal;font-variant:normal;font-weight:normal;font-stretch:normal;font-size:25px;line-height:120.00000477%;font-family:Roboto;-inkscape-font-specification:'Roboto, Normal';text-align:center;writing-mode:lr-tb;text-anchor:middle"
         d="m 538.00385,562.18665 q 1.20849,0 2.11181,-0.73243 0.90332,-0.73242 1.00098,-1.83105 l 2.13623,0 q -0.061,1.13525 -0.78125,2.16064 -0.72022,1.0254 -1.92871,1.63575 -1.19629,0.61035 -2.53906,0.61035 -2.69776,0 -4.29688,-1.79444 -1.58691,-1.80664 -1.58691,-4.93164 l 0,-0.37841 q 0,-1.92871 0.708,-3.43018 0.70801,-1.50146 2.02637,-2.33154 1.33057,-0.83008 3.13721,-0.83008 2.22168,0 3.68652,1.33057 1.47705,1.33056 1.57471,3.45459 l -2.13623,0 q -0.0977,-1.28174 -0.97656,-2.09961 -0.8667,-0.83008 -2.14844,-0.83008 -1.72119,0 -2.67334,1.24512 -0.93994,1.23291 -0.93994,3.57666 l 0,0.42724 q 0,2.28272 0.93994,3.51563 0.93994,1.23291 2.68555,1.23291 z" />
      <path
         id="path209"
         style="font-style:normal;font-variant:normal;font-weight:normal;font-stretch:normal;font-size:25px;line-height:120.00000477%;font-family:Roboto;-inkscape-font-specification:'Roboto, Normal';text-align:center;writing-mode:lr-tb;text-anchor:middle"
         d="m 551.27289,564.02991 q -2.68555,0 -4.37012,-1.75781 -1.68457,-1.77002 -1.68457,-4.72413 l 0,-0.41503 q 0,-1.96534 0.74463,-3.50342 0.75684,-1.5503 2.09961,-2.41699 1.35498,-0.87891 2.92969,-0.87891 2.57568,0 4.0039,1.69678 1.42823,1.69677 1.42823,4.8584 l 0,0.93994 -8.94776,0 q 0.0488,1.95312 1.13526,3.16162 1.09863,1.19629 2.7832,1.19629 1.19629,0 2.02637,-0.48828 0.83007,-0.48829 1.45263,-1.29395 l 1.3794,1.07422 q -1.66016,2.55127 -4.98047,2.55127 z m -0.28076,-11.84082 q -1.36719,0 -2.29493,1.00097 -0.92773,0.98877 -1.14746,2.78321 l 6.61621,0 0,-0.1709 q -0.0976,-1.72119 -0.92773,-2.66113 -0.83008,-0.95215 -2.24609,-0.95215 z" />
    </g>
  </g>
</svg>
