<?xml version="1.0" encoding="UTF-8" standalone="no"?>
<svg
   xmlns:dc="http://purl.org/dc/elements/1.1/"
   xmlns:cc="http://creativecommons.org/ns#"
   xmlns:rdf="http://www.w3.org/1999/02/22-rdf-syntax-ns#"
   xmlns:svg="http://www.w3.org/2000/svg"
   xmlns="http://www.w3.org/2000/svg"
   id="svg4837"
   version="1.1"
   viewBox="0 0 172.90427 41.555031"
   height="41.555031mm"
   width="172.90427mm">
  <defs
     id="defs4831" />
  <metadata
     id="metadata4834">
    <rdf:RDF>
      <cc:Work
         rdf:about="">
        <dc:format>image/svg+xml</dc:format>
        <dc:type
           rdf:resource="http://purl.org/dc/dcmitype/StillImage" />
        <dc:title></dc:title>
      </cc:Work>
    </rdf:RDF>
  </metadata>
  <g
     transform="translate(-18.762108,-121.25225)"
     id="layer1">
    <g
       id="g4812"
       transform="matrix(0.35277777,0,0,-0.35277777,-83.621409,295.36748)">
      <path
         id="path18"
         style="fill:#1b1817;fill-opacity:1;fill-rule:evenodd;stroke:none;stroke-width:0.1"
         d="m 350.609,493.555 c -33.347,0 -60.388,-27.036 -60.388,-60.388 0,-26.681 17.303,-49.317 41.297,-57.302 3.018,-0.559 4.126,1.31 4.126,2.905 0,1.44 -0.056,6.197 -0.082,11.243 -16.8,-3.653 -20.345,7.125 -20.345,7.125 -2.747,6.98 -6.705,8.836 -6.705,8.836 -5.479,3.748 0.413,3.671 0.413,3.671 6.064,-0.425 9.257,-6.224 9.257,-6.224 5.386,-9.231 14.127,-6.562 17.573,-5.019 0.542,3.903 2.107,6.568 3.834,8.075 -13.413,1.527 -27.513,6.705 -27.513,29.844 0,6.593 2.359,11.98 6.222,16.209 -0.627,1.522 -2.694,7.663 0.585,15.981 0,0 5.071,1.623 16.611,-6.19 4.817,1.338 9.983,2.009 15.115,2.032 5.132,-0.023 10.302,-0.694 15.128,-2.032 11.526,7.813 16.59,6.19 16.59,6.19 3.287,-8.318 1.219,-14.459 0.592,-15.981 3.872,-4.229 6.215,-9.616 6.215,-16.209 0,-23.194 -14.127,-28.301 -27.574,-29.796 2.166,-1.874 4.096,-5.549 4.096,-11.183 0,-8.08 -0.07,-14.583 -0.07,-16.572 0,-1.607 1.087,-3.49 4.148,-2.897 23.981,7.994 41.262,30.622 41.262,57.294 0,33.352 -27.037,60.388 -60.387,60.388" />
      <path
         id="path20"
         style="fill:#1b1817;fill-opacity:1;fill-rule:nonzero;stroke:none;stroke-width:0.1"
         d="m 313.093,406.851 c -0.133,-0.301 -0.605,-0.39 -1.035,-0.184 -0.438,0.197 -0.684,0.606 -0.542,0.907 0.13,0.308 0.603,0.394 1.04,0.189 0.439,-0.198 0.689,-0.611 0.537,-0.912 v 0" />
      <path
         id="path22"
         style="fill:#1b1817;fill-opacity:1;fill-rule:nonzero;stroke:none;stroke-width:0.1"
         d="m 315.539,404.123 c -0.288,-0.267 -0.851,-0.143 -1.233,0.279 -0.395,0.421 -0.469,0.984 -0.177,1.255 0.297,0.266 0.843,0.141 1.239,-0.279 0.395,-0.426 0.472,-0.985 0.171,-1.255 v 0" />
      <path
         id="path24"
         style="fill:#1b1817;fill-opacity:1;fill-rule:nonzero;stroke:none;stroke-width:0.1"
         d="m 317.92,400.645 c -0.37,-0.257 -0.975,-0.016 -1.349,0.521 -0.37,0.537 -0.37,1.181 0.008,1.439 0.375,0.258 0.971,0.025 1.35,-0.507 0.369,-0.546 0.369,-1.19 -0.009,-1.453 v 0" />
      <path
         id="path26"
         style="fill:#1b1817;fill-opacity:1;fill-rule:nonzero;stroke:none;stroke-width:0.1"
         d="m 321.182,397.285 c -0.331,-0.365 -1.036,-0.267 -1.552,0.231 -0.528,0.487 -0.675,1.178 -0.343,1.543 0.335,0.366 1.044,0.263 1.564,-0.231 0.524,-0.486 0.684,-1.182 0.331,-1.543 v 0" />
      <path
         id="path28"
         style="fill:#1b1817;fill-opacity:1;fill-rule:nonzero;stroke:none;stroke-width:0.1"
         d="m 325.682,395.334 c -0.146,-0.473 -0.825,-0.688 -1.509,-0.487 -0.683,0.207 -1.13,0.761 -0.992,1.239 0.142,0.476 0.824,0.7 1.513,0.485 0.682,-0.206 1.13,-0.756 0.988,-1.237 v 0" />
      <path
         id="path30"
         style="fill:#1b1817;fill-opacity:1;fill-rule:nonzero;stroke:none;stroke-width:0.1"
         d="m 330.624,394.972 c 0.017,-0.498 -0.563,-0.911 -1.281,-0.92 -0.722,-0.016 -1.306,0.387 -1.314,0.877 0,0.503 0.567,0.912 1.289,0.924 0.718,0.014 1.306,-0.386 1.306,-0.881 v 0" />
      <path
         id="path32"
         style="fill:#1b1817;fill-opacity:1;fill-rule:nonzero;stroke:none;stroke-width:0.1"
         d="m 335.223,395.755 c 0.086,-0.486 -0.413,-0.985 -1.126,-1.118 -0.701,-0.128 -1.35,0.172 -1.439,0.654 -0.087,0.498 0.421,0.997 1.121,1.126 0.714,0.124 1.353,-0.168 1.444,-0.662 v 0" />
    </g>
    <g
       id="g871"
       transform="matrix(0.35277777,0,0,-0.35277777,26.53393,294.42976)">
      <path
         id="path30-6"
         style="fill:#161312;fill-opacity:1;fill-rule:nonzero;stroke:none;stroke-width:0.1"
         d="m 177.281,439.013 h -30.267 c -0.781,0 -1.414,-0.634 -1.414,-1.416 V 422.8 c 0,-0.781 0.633,-1.417 1.414,-1.417 h 11.807 v -18.385 c 0,0 -2.651,-0.904 -9.981,-0.904 -8.647,0 -20.727,3.16 -20.727,29.724 0,26.568 12.579,30.064 24.388,30.064 10.223,0 14.626,-1.799 17.429,-2.666 0.881,-0.27 1.695,0.606 1.695,1.388 l 3.376,14.298 c 0,0.365 -0.124,0.806 -0.54,1.105 -1.138,0.811 -8.081,4.696 -25.621,4.696 -20.205,0 -40.932,-8.596 -40.932,-49.922 0,-41.326 23.73,-47.484 43.727,-47.484 16.557,0 26.601,7.075 26.601,7.075 0.414,0.229 0.459,0.807 0.459,1.073 v 46.152 c 0,0.782 -0.633,1.416 -1.414,1.416" />
      <path
         id="path32-4"
         style="fill:#161312;fill-opacity:1;fill-rule:nonzero;stroke:none;stroke-width:0.1"
         d="m 333.265,475.752 c 0,0.787 -0.624,1.423 -1.406,1.423 h -17.042 c -0.778,0 -1.411,-0.636 -1.411,-1.423 0,-0.004 0.005,-32.935 0.005,-32.935 h -26.565 v 32.935 c 0,0.787 -0.626,1.423 -1.406,1.423 h -17.041 c -0.775,0 -1.408,-0.636 -1.408,-1.423 v -89.178 c 0,-0.787 0.633,-1.427 1.408,-1.427 h 17.041 c 0.78,0 1.406,0.64 1.406,1.427 v 38.144 h 26.565 c 0,0 -0.047,-38.141 -0.047,-38.144 0,-0.787 0.632,-1.427 1.412,-1.427 h 17.082 c 0.781,0 1.405,0.64 1.407,1.427 v 89.178" />
      <path
         id="path34"
         style="fill:#161312;fill-opacity:1;fill-rule:nonzero;stroke:none;stroke-width:0.1"
         d="m 209.44,464.05 c 0,6.136 -4.919,11.095 -10.989,11.095 -6.064,0 -10.988,-4.959 -10.988,-11.095 0,-6.131 4.924,-11.103 10.988,-11.103 6.07,0 10.989,4.972 10.989,11.103" />
      <path
         id="path36"
         style="fill:#161312;fill-opacity:1;fill-rule:nonzero;stroke:none;stroke-width:0.1"
         d="m 208.222,405.385 c 0,2.286 0,41.165 0,41.165 0,0.782 -0.631,1.421 -1.41,1.421 h -16.989 c -0.779,0 -1.476,-0.804 -1.476,-1.585 0,0 0,-49.535 0,-58.977 0,-1.733 1.08,-2.249 2.477,-2.249 0,0 7.252,0 15.306,0 1.68,0 2.092,0.825 2.092,2.277 0,3.161 0,15.545 0,17.948" />
      <path
         id="path38"
         style="fill:#161312;fill-opacity:1;fill-rule:nonzero;stroke:none;stroke-width:0.1"
         d="m 398.032,447.837 h -16.911 c -0.775,0 -1.407,-0.64 -1.407,-1.426 v -43.727 c 0,0 -4.297,-3.143 -10.395,-3.143 -6.097,0 -7.715,2.767 -7.715,8.738 0,5.978 0,38.132 0,38.132 0,0.786 -0.63,1.426 -1.407,1.426 h -17.164 c -0.774,0 -1.409,-0.64 -1.409,-1.426 0,0 0,-23.286 0,-41.02 0,-17.735 9.884,-22.073 23.481,-22.073 11.156,0 20.15,6.162 20.15,6.162 0,0 0.428,-3.248 0.622,-3.633 0.193,-0.384 0.698,-0.772 1.244,-0.772 l 10.919,0.049 c 0.774,0 1.409,0.64 1.409,1.423 l -0.006,59.864 c 0,0.786 -0.631,1.426 -1.411,1.426" />
      <path
         id="path40"
         style="fill:#161312;fill-opacity:1;fill-rule:nonzero;stroke:none;stroke-width:0.1"
         d="m 437.584,399.595 c -5.866,0.178 -9.845,2.84 -9.845,2.84 v 28.241 c 0,0 3.925,2.406 8.741,2.836 6.09,0.545 11.958,-1.294 11.958,-15.822 0,-15.319 -2.648,-18.343 -10.854,-18.095 z m 6.67,50.245 c -9.605,0 -16.138,-4.286 -16.138,-4.286 v 30.198 c 0,0.787 -0.63,1.423 -1.406,1.423 h -17.091 c -0.777,0 -1.408,-0.636 -1.408,-1.423 v -89.178 c 0,-0.787 0.631,-1.427 1.41,-1.427 0.002,0 11.854,0 11.858,0 0.534,0 0.938,0.275 1.237,0.757 0.295,0.48 0.72,4.112 0.72,4.112 0,0 6.988,-6.622 20.217,-6.622 15.532,0 24.439,7.877 24.439,35.365 0,27.489 -14.226,31.081 -23.838,31.081" />
      <path
         id="path42"
         style="fill:#161312;fill-opacity:1;fill-rule:nonzero;stroke:none;stroke-width:0.1"
         d="m 257.202,447.979 h -12.784 c 0,0 -0.019,16.885 -0.019,16.888 0,0.64 -0.33,0.959 -1.069,0.959 h -17.42 c -0.678,0 -1.041,-0.298 -1.041,-0.949 v -17.452 c 0,0 -8.73,-2.107 -9.321,-2.278 -0.587,-0.17 -1.02,-0.712 -1.02,-1.359 v -10.967 c 0,-0.789 0.63,-1.425 1.409,-1.425 h 8.932 c 0,0 0,-11.471 0,-26.384 0,-19.597 13.746,-21.522 23.021,-21.522 4.239,0 9.309,1.361 10.146,1.67 0.506,0.186 0.8,0.711 0.8,1.279 l 0.015,12.065 c 0,0.786 -0.665,1.423 -1.413,1.423 -0.746,0 -2.651,-0.303 -4.613,-0.303 -6.28,0 -8.407,2.919 -8.407,6.699 0,3.776 -0.001,25.073 -0.001,25.073 h 12.785 c 0.779,0 1.41,0.636 1.41,1.425 v 13.737 c 0,0.787 -0.631,1.421 -1.41,1.421" />
    </g>
  </g>
</svg>
