<?xml version="1.0" encoding="UTF-8" standalone="no"?>
<svg
   xmlns:dc="http://purl.org/dc/elements/1.1/"
   xmlns:cc="http://creativecommons.org/ns#"
   xmlns:rdf="http://www.w3.org/1999/02/22-rdf-syntax-ns#"
   xmlns:svg="http://www.w3.org/2000/svg"
   xmlns="http://www.w3.org/2000/svg"
   version="1.1"
   id="svg2"
   viewBox="0 0 998.43343 117.19221"
   height="33.074245mm"
   width="281.78009mm">
  <defs
     id="defs4">
    <marker
       style="overflow:visible"
       id="Arrow2Lend"
       refX="0"
       refY="0"
       orient="auto">
      <path
         transform="matrix(-1.1,0,0,-1.1,-1.1,0)"
         d="M 8.7185878,4.0337352 -2.2072895,0.01601326 8.7185884,-4.0017078 c -1.7454984,2.3720609 -1.7354408,5.6174519 -6e-7,8.035443 z"
         style="fill:#000000;fill-opacity:1;fill-rule:evenodd;stroke:#000000;stroke-width:0.625;stroke-linejoin:round;stroke-opacity:1"
         id="path4479" />
    </marker>
    <marker
       style="overflow:visible"
       id="Arrow2Lstart"
       refX="0"
       refY="0"
       orient="auto">
      <path
         transform="matrix(1.1,0,0,1.1,1.1,0)"
         d="M 8.7185878,4.0337352 -2.2072895,0.01601326 8.7185884,-4.0017078 c -1.7454984,2.3720609 -1.7354408,5.6174519 -6e-7,8.035443 z"
         style="fill:#000000;fill-opacity:1;fill-rule:evenodd;stroke:#000000;stroke-width:0.625;stroke-linejoin:round;stroke-opacity:1"
         id="path4476" />
    </marker>
    <marker
       style="overflow:visible"
       id="Arrow2Lstart-3"
       refX="0"
       refY="0"
       orient="auto">
      <path
         transform="matrix(1.1,0,0,1.1,1.1,0)"
         d="M 8.7185878,4.0337352 -2.2072895,0.01601326 8.7185884,-4.0017078 c -1.7454984,2.3720609 -1.7354408,5.6174519 -6e-7,8.035443 z"
         style="fill:#000000;fill-opacity:1;fill-rule:evenodd;stroke:#000000;stroke-width:0.625;stroke-linejoin:round;stroke-opacity:1"
         id="path4476-6" />
    </marker>
    <marker
       style="overflow:visible"
       id="Arrow2Lend-4"
       refX="0"
       refY="0"
       orient="auto">
      <path
         transform="matrix(-1.1,0,0,-1.1,-1.1,0)"
         d="M 8.7185878,4.0337352 -2.2072895,0.01601326 8.7185884,-4.0017078 c -1.7454984,2.3720609 -1.7354408,5.6174519 -6e-7,8.035443 z"
         style="fill:#000000;fill-opacity:1;fill-rule:evenodd;stroke:#000000;stroke-width:0.625;stroke-linejoin:round;stroke-opacity:1"
         id="path4479-3" />
    </marker>
    <marker
       style="overflow:visible"
       id="Arrow2Lstart-3-9"
       refX="0"
       refY="0"
       orient="auto">
      <path
         transform="matrix(1.1,0,0,1.1,1.1,0)"
         d="M 8.7185878,4.0337352 -2.2072895,0.01601326 8.7185884,-4.0017078 c -1.7454984,2.3720609 -1.7354408,5.6174519 -6e-7,8.035443 z"
         style="fill:#000000;fill-opacity:1;fill-rule:evenodd;stroke:#000000;stroke-width:0.625;stroke-linejoin:round;stroke-opacity:1"
         id="path4476-6-1" />
    </marker>
    <marker
       style="overflow:visible"
       id="Arrow2Lend-4-0"
       refX="0"
       refY="0"
       orient="auto">
      <path
         transform="matrix(-1.1,0,0,-1.1,-1.1,0)"
         d="M 8.7185878,4.0337352 -2.2072895,0.01601326 8.7185884,-4.0017078 c -1.7454984,2.3720609 -1.7354408,5.6174519 -6e-7,8.035443 z"
         style="fill:#000000;fill-opacity:1;fill-rule:evenodd;stroke:#000000;stroke-width:0.625;stroke-linejoin:round;stroke-opacity:1"
         id="path4479-3-9" />
    </marker>
  </defs>
  <metadata
     id="metadata7">
    <rdf:RDF>
      <cc:Work
         rdf:about="">
        <dc:format>image/svg+xml</dc:format>
        <dc:type
           rdf:resource="http://purl.org/dc/dcmitype/StillImage" />
        <dc:title />
      </cc:Work>
    </rdf:RDF>
  </metadata>
  <g
     transform="translate(935.12915,-251.73573)"
     id="layer1" />
  <g
     transform="translate(792.62915,-318.51636)"
     id="layer2">
    <g
       id="flowRoot4242"
       style="font-style:normal;font-weight:normal;font-size:27.5px;line-height:125%;font-family:sans-serif;letter-spacing:0px;word-spacing:0px;fill:#000000;fill-opacity:1;stroke:none;stroke-width:1px;stroke-linecap:butt;stroke-linejoin:miter;stroke-opacity:1"
       transform="translate(0,-3.0517578e-5)" />
    <g
       id="text4250"
       style="font-style:normal;font-variant:normal;font-weight:normal;font-stretch:normal;font-size:25px;line-height:120.00000477%;font-family:Roboto;-inkscape-font-specification:'Roboto, Normal';text-align:center;letter-spacing:0px;word-spacing:0px;writing-mode:lr-tb;text-anchor:middle;fill:#000000;fill-opacity:1;stroke:none;stroke-width:1px;stroke-linecap:butt;stroke-linejoin:miter;stroke-opacity:1" />
    <g
       id="g8849">
      <path
         id="rect4358"
         d="m -791.37915,319.76636 350,0 0,114.28571 -350,0 z"
         style="opacity:1;fill:#2673b2;fill-opacity:0.07843137;stroke:#2673b2;stroke-width:2.5;stroke-linecap:round;stroke-linejoin:miter;stroke-miterlimit:10;stroke-dasharray:none;stroke-opacity:1" />
      <g
         id="text4177-6"
         style="font-style:normal;font-variant:normal;font-weight:normal;font-stretch:normal;font-size:40px;line-height:120.00000477%;font-family:Roboto;-inkscape-font-specification:'Roboto, Normal';text-align:center;letter-spacing:0px;word-spacing:0px;writing-mode:lr-tb;text-anchor:middle;fill:#000000;fill-opacity:1;stroke:none;stroke-width:1px;stroke-linecap:butt;stroke-linejoin:miter;stroke-opacity:1">
        <path
           id="path39"
           style="font-style:normal;font-variant:normal;font-weight:normal;font-stretch:normal;font-size:40px;line-height:120.00000477%;font-family:Roboto;-inkscape-font-specification:'Roboto, Normal';text-align:center;writing-mode:lr-tb;text-anchor:middle"
           d="m -652.65442,362.29007 -9.14062,0 0,25.35156 -3.73047,0 0,-25.35156 -9.1211,0 0,-3.08594 21.99219,0 0,3.08594 z" />
        <path
           id="path41"
           style="font-style:normal;font-variant:normal;font-weight:normal;font-stretch:normal;font-size:40px;line-height:120.00000477%;font-family:Roboto;-inkscape-font-specification:'Roboto, Normal';text-align:center;writing-mode:lr-tb;text-anchor:middle"
           d="m -645.34973,369.06741 q 2.40234,-2.94922 6.25,-2.94922 6.69922,0 6.75781,7.5586 l 0,13.96484 -3.61328,0 0,-13.98437 q -0.0195,-2.28516 -1.05469,-3.37891 -1.01562,-1.09375 -3.18359,-1.09375 -1.75781,0 -3.08594,0.9375 -1.32812,0.9375 -2.07031,2.46094 l 0,15.05859 -3.61328,0 0,-30 3.61328,0 0,11.42578 z" />
        <path
           id="path43"
           style="font-style:normal;font-variant:normal;font-weight:normal;font-stretch:normal;font-size:40px;line-height:120.00000477%;font-family:Roboto;-inkscape-font-specification:'Roboto, Normal';text-align:center;writing-mode:lr-tb;text-anchor:middle"
           d="m -618.16223,388.03226 q -4.29688,0 -6.99219,-2.8125 -2.69531,-2.83203 -2.69531,-7.5586 l 0,-0.66406 q 0,-3.14453 1.1914,-5.60547 1.21094,-2.48047 3.35938,-3.86719 2.16797,-1.40625 4.6875,-1.40625 4.12109,0 6.40625,2.71485 2.28516,2.71484 2.28516,7.77344 l 0,1.5039 -14.31641,0 q 0.0781,3.125 1.81641,5.0586 1.75781,1.91406 4.45312,1.91406 1.91406,0 3.24219,-0.78125 1.32812,-0.78125 2.32422,-2.07031 l 2.20703,1.71875 q -2.65625,4.08203 -7.96875,4.08203 z m -0.44922,-18.94532 q -2.1875,0 -3.67188,1.60157 -1.48437,1.58203 -1.83593,4.45312 l 10.58593,0 0,-0.27344 q -0.15625,-2.7539 -1.48437,-4.25781 -1.32813,-1.52344 -3.59375,-1.52344 z" />
        <path
           id="path45"
           style="font-style:normal;font-variant:normal;font-weight:normal;font-stretch:normal;font-size:40px;line-height:120.00000477%;font-family:Roboto;-inkscape-font-specification:'Roboto, Normal';text-align:center;writing-mode:lr-tb;text-anchor:middle"
           d="m -606.71692,376.87991 q 0,-3.10547 1.21094,-5.58593 1.23047,-2.48047 3.39844,-3.82813 2.1875,-1.34766 4.98046,-1.34766 4.31641,0 6.97266,2.98829 2.67578,2.98828 2.67578,7.94921 l 0,0.25391 q 0,3.08594 -1.1914,5.54688 -1.17188,2.4414 -3.37891,3.80859 -2.1875,1.36719 -5.03906,1.36719 -4.29688,0 -6.97266,-2.98828 -2.65625,-2.98829 -2.65625,-7.91016 l 0,-0.25391 z m 3.63281,0.42969 q 0,3.51563 1.6211,5.64453 1.64062,2.12891 4.375,2.12891 2.7539,0 4.375,-2.14844 1.62109,-2.16797 1.62109,-6.05469 0,-3.47656 -1.66016,-5.625 -1.64062,-2.16797 -4.375,-2.16797 -2.67578,0 -4.3164,2.12891 -1.64063,2.12891 -1.64063,6.09375 z" />
        <path
           id="path47"
           style="font-style:normal;font-variant:normal;font-weight:normal;font-stretch:normal;font-size:40px;line-height:120.00000477%;font-family:Roboto;-inkscape-font-specification:'Roboto, Normal';text-align:center;writing-mode:lr-tb;text-anchor:middle"
           d="m -572.73254,369.75101 q -0.82032,-0.13672 -1.77735,-0.13672 -3.55469,0 -4.82422,3.02734 l 0,15 -3.61328,0 0,-21.13281 3.51563,0 0.0586,2.44141 q 1.77734,-2.83204 5.03906,-2.83204 1.05469,0 1.60157,0.27344 l 0,3.35938 z" />
        <path
           id="path49"
           style="font-style:normal;font-variant:normal;font-weight:normal;font-stretch:normal;font-size:40px;line-height:120.00000477%;font-family:Roboto;-inkscape-font-specification:'Roboto, Normal';text-align:center;writing-mode:lr-tb;text-anchor:middle"
           d="m -562.5177,382.34866 4.92187,-15.83984 3.86719,0 -8.49609,24.39453 q -1.97266,5.27344 -6.26953,5.27344 l -0.6836,-0.0586 -1.34765,-0.2539 0,-2.92969 0.97656,0.0781 q 1.83594,0 2.85156,-0.74219 1.03516,-0.74219 1.69922,-2.71485 l 0.80078,-2.14843 -7.53906,-20.89844 3.94531,0 5.27344,15.83984 z" />
      </g>
    </g>
    <g
       transform="translate(332.41144,-77.327152)"
       id="g4394">
      <path
         id="rect4358-2"
         d="m -477.85715,397.5 350,0 0,114.28571 -350,0 z"
         style="opacity:1;fill:#ff800d;fill-opacity:0.07843137;stroke:#ff800d;stroke-width:2.5;stroke-linecap:round;stroke-linejoin:miter;stroke-miterlimit:10;stroke-dasharray:none;stroke-opacity:1" />
      <g
         id="text4177-6-9"
         style="font-style:normal;font-variant:normal;font-weight:normal;font-stretch:normal;font-size:40px;line-height:120.00000477%;font-family:Roboto;-inkscape-font-specification:'Roboto, Normal';text-align:center;letter-spacing:0px;word-spacing:0px;writing-mode:lr-tb;text-anchor:middle;fill:#000000;fill-opacity:1;stroke:none;stroke-width:1px;stroke-linecap:butt;stroke-linejoin:miter;stroke-opacity:1">
        <path
           id="path53"
           style="font-style:normal;font-variant:normal;font-weight:normal;font-stretch:normal;font-size:40px;line-height:120.00000477%;font-family:Roboto;-inkscape-font-specification:'Roboto, Normal';text-align:center;writing-mode:lr-tb;text-anchor:middle"
           d="m -384.11691,452.23074 -12.32422,0 0,10.07813 14.3164,0 0,3.0664 -18.0664,0 0,-28.4375 17.87109,0 0,3.08594 -14.12109,0 0,9.14063 12.32422,0 0,3.0664 z" />
        <path
           id="path55"
           style="font-style:normal;font-variant:normal;font-weight:normal;font-stretch:normal;font-size:40px;line-height:120.00000477%;font-family:Roboto;-inkscape-font-specification:'Roboto, Normal';text-align:center;writing-mode:lr-tb;text-anchor:middle"
           d="m -370.93332,451.95731 4.6875,-7.71485 4.21875,0 -6.91406,10.44922 7.1289,10.68359 -4.17968,0 -4.88282,-7.91015 -4.88281,7.91015 -4.19922,0 7.12891,-10.68359 -6.91406,-10.44922 4.17968,0 4.62891,7.71485 z" />
        <path
           id="path57"
           style="font-style:normal;font-variant:normal;font-weight:normal;font-stretch:normal;font-size:40px;line-height:120.00000477%;font-family:Roboto;-inkscape-font-specification:'Roboto, Normal';text-align:center;writing-mode:lr-tb;text-anchor:middle"
           d="m -340.32785,455.04324 q 0,4.82422 -2.20703,7.77344 -2.20703,2.94922 -5.97656,2.94922 -3.84766,0 -6.05469,-2.44141 l 0,10.17578 -3.61328,0 0,-29.25781 3.30078,0 0.17578,2.34375 q 2.20703,-2.73437 6.13281,-2.73437 3.8086,0 6.01563,2.87109 2.22656,2.87109 2.22656,7.98828 l 0,0.33203 z m -3.61328,-0.41015 q 0,-3.57422 -1.52344,-5.64453 -1.52344,-2.07032 -4.17969,-2.07032 -3.28125,0 -4.92187,2.91016 l 0,10.09766 q 1.62109,2.89062 4.96094,2.89062 2.59765,0 4.12109,-2.05078 1.54297,-2.07031 1.54297,-6.13281 z" />
        <path
           id="path59"
           style="font-style:normal;font-variant:normal;font-weight:normal;font-stretch:normal;font-size:40px;line-height:120.00000477%;font-family:Roboto;-inkscape-font-specification:'Roboto, Normal';text-align:center;writing-mode:lr-tb;text-anchor:middle"
           d="m -326.98801,465.7659 q -4.29687,0 -6.99218,-2.8125 -2.69532,-2.83203 -2.69532,-7.55859 l 0,-0.66407 q 0,-3.14453 1.19141,-5.60547 1.21094,-2.48046 3.35937,-3.86718 2.16797,-1.40625 4.6875,-1.40625 4.1211,0 6.40625,2.71484 2.28516,2.71484 2.28516,7.77344 l 0,1.5039 -14.31641,0 q 0.0781,3.125 1.81641,5.0586 1.75781,1.91406 4.45313,1.91406 1.91406,0 3.24218,-0.78125 1.32813,-0.78125 2.32422,-2.07031 l 2.20703,1.71875 q -2.65625,4.08203 -7.96875,4.08203 z m -0.44922,-18.94531 q -2.1875,0 -3.67187,1.60156 -1.48438,1.58203 -1.83594,4.45312 l 10.58594,0 0,-0.27343 q -0.15625,-2.75391 -1.48438,-4.25782 -1.32812,-1.52343 -3.59375,-1.52343 z" />
        <path
           id="path61"
           style="font-style:normal;font-variant:normal;font-weight:normal;font-stretch:normal;font-size:40px;line-height:120.00000477%;font-family:Roboto;-inkscape-font-specification:'Roboto, Normal';text-align:center;writing-mode:lr-tb;text-anchor:middle"
           d="m -304.37082,447.48465 q -0.82031,-0.13672 -1.77734,-0.13672 -3.55469,0 -4.82422,3.02734 l 0,15 -3.61328,0 0,-21.13281 3.51562,0 0.0586,2.44141 q 1.77734,-2.83203 5.03906,-2.83203 1.05469,0 1.60156,0.27343 l 0,3.35938 z" />
        <path
           id="path63"
           style="font-style:normal;font-variant:normal;font-weight:normal;font-stretch:normal;font-size:40px;line-height:120.00000477%;font-family:Roboto;-inkscape-font-specification:'Roboto, Normal';text-align:center;writing-mode:lr-tb;text-anchor:middle"
           d="m -297.14426,465.37527 -3.61328,0 0,-21.13281 3.61328,0 0,21.13281 z m -3.90625,-26.73828 q 0,-0.8789 0.52735,-1.48437 0.54687,-0.60547 1.60156,-0.60547 1.05469,0 1.60156,0.60547 0.54688,0.60547 0.54688,1.48437 0,0.87891 -0.54688,1.46485 -0.54687,0.58593 -1.60156,0.58593 -1.05469,0 -1.60156,-0.58593 -0.52735,-0.58594 -0.52735,-1.46485 z" />
        <path
           id="path65"
           style="font-style:normal;font-variant:normal;font-weight:normal;font-stretch:normal;font-size:40px;line-height:120.00000477%;font-family:Roboto;-inkscape-font-specification:'Roboto, Normal';text-align:center;writing-mode:lr-tb;text-anchor:middle"
           d="m -287.9841,444.24246 0.0977,2.34375 q 2.32421,-2.73437 6.26953,-2.73437 4.43359,0 6.03515,3.39843 1.05469,-1.52343 2.73438,-2.46093 1.69922,-0.9375 4.0039,-0.9375 6.95313,0 7.07032,7.36328 l 0,14.16015 -3.61328,0 0,-13.94531 q 0,-2.26562 -1.03516,-3.3789 -1.03516,-1.13282 -3.47656,-1.13282 -2.01172,0 -3.33985,1.21094 -1.32812,1.19141 -1.54297,3.22266 l 0,14.02343 -3.63281,0 0,-13.84765 q 0,-4.60938 -4.51172,-4.60938 -3.55468,0 -4.86328,3.02735 l 0,15.42968 -3.61328,0 0,-21.13281 3.41797,0 z" />
        <path
           id="path67"
           style="font-style:normal;font-variant:normal;font-weight:normal;font-stretch:normal;font-size:40px;line-height:120.00000477%;font-family:Roboto;-inkscape-font-specification:'Roboto, Normal';text-align:center;writing-mode:lr-tb;text-anchor:middle"
           d="m -247.53488,465.7659 q -4.29688,0 -6.99219,-2.8125 -2.69531,-2.83203 -2.69531,-7.55859 l 0,-0.66407 q 0,-3.14453 1.1914,-5.60547 1.21094,-2.48046 3.35938,-3.86718 2.16797,-1.40625 4.6875,-1.40625 4.12109,0 6.40625,2.71484 2.28516,2.71484 2.28516,7.77344 l 0,1.5039 -14.31641,0 q 0.0781,3.125 1.81641,5.0586 1.75781,1.91406 4.45312,1.91406 1.91406,0 3.24219,-0.78125 1.32812,-0.78125 2.32422,-2.07031 l 2.20703,1.71875 q -2.65625,4.08203 -7.96875,4.08203 z m -0.44922,-18.94531 q -2.1875,0 -3.67188,1.60156 -1.48437,1.58203 -1.83593,4.45312 l 10.58593,0 0,-0.27343 q -0.15625,-2.75391 -1.48437,-4.25782 -1.32813,-1.52343 -3.59375,-1.52343 z" />
        <path
           id="path69"
           style="font-style:normal;font-variant:normal;font-weight:normal;font-stretch:normal;font-size:40px;line-height:120.00000477%;font-family:Roboto;-inkscape-font-specification:'Roboto, Normal';text-align:center;writing-mode:lr-tb;text-anchor:middle"
           d="m -231.71457,444.24246 0.11719,2.65625 q 2.42187,-3.04687 6.32812,-3.04687 6.69922,0 6.75782,7.55859 l 0,13.96484 -3.61329,0 0,-13.98437 q -0.0195,-2.28516 -1.05468,-3.37891 -1.01563,-1.09375 -3.1836,-1.09375 -1.75781,0 -3.08593,0.9375 -1.32813,0.9375 -2.07032,2.46094 l 0,15.05859 -3.61328,0 0,-21.13281 3.41797,0 z" />
        <path
           id="path71"
           style="font-style:normal;font-variant:normal;font-weight:normal;font-stretch:normal;font-size:40px;line-height:120.00000477%;font-family:Roboto;-inkscape-font-specification:'Roboto, Normal';text-align:center;writing-mode:lr-tb;text-anchor:middle"
           d="m -208.12082,439.12527 0,5.11719 3.94531,0 0,2.79297 -3.94531,0 0,13.10547 q 0,1.26953 0.52734,1.91406 0.52735,0.625 1.79688,0.625 0.625,0 1.71875,-0.23437 l 0,2.92968 q -1.42578,0.39063 -2.77344,0.39063 -2.42187,0 -3.65234,-1.46484 -1.23047,-1.46485 -1.23047,-4.16016 l 0,-13.10547 -3.84766,0 0,-2.79297 3.84766,0 0,-5.11719 3.61328,0 z" />
      </g>
    </g>
    <path
       id="path4452-1-4"
       d="m -435.66755,377.00352 c 285.14759,-0.18861 285.14759,-0.18861 285.14759,-0.18861"
       style="fill:none;fill-rule:evenodd;stroke:#000000;stroke-width:2.42975545;stroke-linecap:butt;stroke-linejoin:miter;stroke-miterlimit:0;stroke-dasharray:none;stroke-opacity:1;marker-start:url(#Arrow2Lstart-3-9);marker-end:url(#Arrow2Lend-4-0)" />
  </g>
</svg>
