<?xml version="1.0" encoding="UTF-8" standalone="no"?>
<svg
   xmlns:dc="http://purl.org/dc/elements/1.1/"
   xmlns:cc="http://creativecommons.org/ns#"
   xmlns:rdf="http://www.w3.org/1999/02/22-rdf-syntax-ns#"
   xmlns:svg="http://www.w3.org/2000/svg"
   xmlns="http://www.w3.org/2000/svg"
   version="1.1"
   id="svg2"
   viewBox="0 0 1031.2858 937.50003"
   height="264.58334mm"
   width="291.05176mm">
  <defs
     id="defs4" />
  <metadata
     id="metadata7">
    <rdf:RDF>
      <cc:Work
         rdf:about="">
        <dc:format>image/svg+xml</dc:format>
        <dc:type
           rdf:resource="http://purl.org/dc/dcmitype/StillImage" />
        <dc:title />
      </cc:Work>
    </rdf:RDF>
  </metadata>
  <g
     transform="translate(142.5,66.780628)"
     id="layer1">
    <path
       id="path3336"
       d="m 481.24501,558.07654 a 311.245,311.245 0 0 1 -311.24499,311.24499 311.245,311.245 0 0 1 -311.245,-311.24499 311.245,311.245 0 0 1 311.245,-311.245 311.245,311.245 0 0 1 311.24499,311.245 z"
       style="fill:#ff7f0e;fill-opacity:0.07843137;stroke:#ff7e0e;stroke-width:2.51004004;stroke-linecap:round;stroke-linejoin:miter;stroke-miterlimit:10;stroke-dasharray:none;stroke-opacity:1" />
    <path
       id="path3338"
       d="M 684.38205,245.71938 A 311.2392,311.2392 0 0 1 373.14285,556.95857 311.2392,311.2392 0 0 1 61.903656,245.71938 311.2392,311.2392 0 0 1 373.14285,-65.519821 311.2392,311.2392 0 0 1 684.38205,245.71938 Z"
       style="opacity:1;fill:#2777b4;fill-opacity:0.07843137;stroke:#2576b4;stroke-width:2.52161384;stroke-linecap:round;stroke-linejoin:miter;stroke-miterlimit:10;stroke-dasharray:none;stroke-opacity:1" />
    <path
       id="path3338-9"
       d="m 887.5249,558.21936 a 311.2392,311.2392 0 0 1 -311.23919,311.2392 311.2392,311.2392 0 0 1 -311.2392,-311.2392 311.2392,311.2392 0 0 1 311.2392,-311.2392 311.2392,311.2392 0 0 1 311.23919,311.2392 z"
       style="opacity:1;fill:#2ca02c;fill-opacity:0.07843137;stroke:#2ca02c;stroke-width:2.52161384;stroke-linecap:round;stroke-linejoin:miter;stroke-miterlimit:10;stroke-dasharray:none;stroke-opacity:1" />
  </g>
  <g
     id="layer2">
    <g
       id="text4177"
       style="font-style:normal;font-variant:normal;font-weight:normal;font-stretch:normal;font-size:40px;line-height:120.00000477%;font-family:Roboto;-inkscape-font-specification:'Roboto, Normal';text-align:center;letter-spacing:0px;word-spacing:0px;writing-mode:lr-tb;text-anchor:middle;fill:#000000;fill-opacity:1;stroke:none;stroke-width:1px;stroke-linecap:butt;stroke-linejoin:miter;stroke-opacity:1">
      <path
         id="path33"
         style=""
         d="m 87.374435,605.58466 9.296875,23.20312 9.29688,-23.20312 4.86328,0 0,28.4375 -3.75,0 0,-11.07422 0.35156,-11.95313 -9.335938,23.02735 -2.871094,0 -9.316406,-22.96875 0.371093,11.89453 0,11.07422 -3.75,0 0,-28.4375 4.84375,0 z" />
      <path
         id="path35"
         style=""
         d="m 129.93303,634.02216 q -0.3125,-0.625 -0.50781,-2.22657 -2.51953,2.61719 -6.01563,2.61719 -3.125,0 -5.13672,-1.75781 -1.99218,-1.77735 -1.99218,-4.49219 0,-3.30078 2.5,-5.11719 2.51953,-1.83593 7.07031,-1.83593 l 3.51562,0 0,-1.66016 q 0,-1.89453 -1.13281,-3.00781 -1.13281,-1.13282 -3.33984,-1.13282 -1.9336,0 -3.24219,0.97657 -1.30859,0.97656 -1.30859,2.36328 l -3.63282,0 q 0,-1.58203 1.11328,-3.04688 1.13282,-1.48437 3.04688,-2.34375 1.93359,-0.85937 4.23828,-0.85937 3.65234,0 5.72266,1.83594 2.07031,1.8164 2.14843,5.01953 l 0,9.72656 q 0,2.91016 0.74219,4.62891 l 0,0.3125 -3.78906,0 z m -5.99609,-2.75391 q 1.69921,0 3.22265,-0.87891 1.52344,-0.8789 2.20703,-2.28515 l 0,-4.33594 -2.83203,0 q -6.64062,0 -6.64062,3.88672 0,1.69922 1.13281,2.65625 1.13281,0.95703 2.91016,0.95703 z" />
      <path
         id="path37"
         style=""
         d="m 147.15959,631.46356 q 1.9336,0 3.37891,-1.17187 1.44531,-1.17188 1.60156,-2.92969 l 3.41797,0 q -0.0977,1.81641 -1.25,3.45703 -1.15234,1.64063 -3.08594,2.61719 -1.91406,0.97656 -4.0625,0.97656 -4.3164,0 -6.875,-2.87109 -2.53906,-2.89063 -2.53906,-7.89063 l 0,-0.60547 q 0,-3.08593 1.13281,-5.48828 1.13281,-2.40234 3.24219,-3.73047 2.12891,-1.32812 5.01953,-1.32812 3.55469,0 5.89844,2.1289 2.36328,2.12891 2.51953,5.52735 l -3.41797,0 q -0.15625,-2.05078 -1.5625,-3.35938 -1.38672,-1.32812 -3.4375,-1.32812 -2.75391,0 -4.27734,1.99219 -1.50391,1.97265 -1.50391,5.72265 l 0,0.6836 q 0,3.65234 1.50391,5.625 1.5039,1.97265 4.29687,1.97265 z" />
      <path
         id="path39"
         style=""
         d="m 163.23381,615.44794 q 2.40234,-2.94922 6.25,-2.94922 6.69922,0 6.75781,7.55859 l 0,13.96485 -3.61328,0 0,-13.98438 q -0.0195,-2.28516 -1.05469,-3.37891 -1.01562,-1.09375 -3.18359,-1.09375 -1.75781,0 -3.08594,0.9375 -1.32812,0.9375 -2.07031,2.46094 l 0,15.0586 -3.61328,0 0,-30 3.61328,0 0,11.42578 z" />
      <path
         id="path41"
         style=""
         d="m 185.57756,634.02216 -3.61328,0 0,-21.13282 3.61328,0 0,21.13282 z m -3.90625,-26.73829 q 0,-0.8789 0.52734,-1.48437 0.54688,-0.60547 1.60157,-0.60547 1.05468,0 1.60156,0.60547 0.54687,0.60547 0.54687,1.48437 0,0.87891 -0.54687,1.46485 -0.54688,0.58594 -1.60156,0.58594 -1.05469,0 -1.60157,-0.58594 -0.52734,-0.58594 -0.52734,-1.46485 z" />
      <path
         id="path43"
         style=""
         d="m 194.75725,612.88934 0.11719,2.65625 q 2.42187,-3.04687 6.32812,-3.04687 6.69922,0 6.75781,7.55859 l 0,13.96485 -3.61328,0 0,-13.98438 q -0.0195,-2.28516 -1.05469,-3.37891 -1.01562,-1.09375 -3.18359,-1.09375 -1.75781,0 -3.08594,0.9375 -1.32812,0.9375 -2.07031,2.46094 l 0,15.0586 -3.61328,0 0,-21.13282 3.41797,0 z" />
      <path
         id="path45"
         style=""
         d="m 222.21819,634.41278 q -4.29688,0 -6.99219,-2.8125 -2.69531,-2.83203 -2.69531,-7.55859 l 0,-0.66407 q 0,-3.14453 1.1914,-5.60546 1.21094,-2.48047 3.35938,-3.86719 2.16797,-1.40625 4.6875,-1.40625 4.12109,0 6.40625,2.71484 2.28515,2.71485 2.28515,7.77344 l 0,1.50391 -14.3164,0 q 0.0781,3.125 1.8164,5.05859 1.75782,1.91406 4.45313,1.91406 1.91406,0 3.24219,-0.78125 1.32812,-0.78125 2.32421,-2.07031 l 2.20704,1.71875 q -2.65625,4.08203 -7.96875,4.08203 z m -0.44922,-18.94531 q -2.1875,0 -3.67188,1.60156 -1.48437,1.58203 -1.83594,4.45313 l 10.58594,0 0,-0.27344 q -0.15625,-2.75391 -1.48437,-4.25781 -1.32813,-1.52344 -3.59375,-1.52344 z" />
      <path
         id="path47"
         style=""
         d="m 248.46819,634.02216 -3.61329,0 0,-30 3.61329,0 0,30 z" />
      <path
         id="path49"
         style=""
         d="m 262.99944,634.41278 q -4.29688,0 -6.99219,-2.8125 -2.69531,-2.83203 -2.69531,-7.55859 l 0,-0.66407 q 0,-3.14453 1.1914,-5.60546 1.21094,-2.48047 3.35938,-3.86719 2.16797,-1.40625 4.6875,-1.40625 4.12109,0 6.40625,2.71484 2.28515,2.71485 2.28515,7.77344 l 0,1.50391 -14.3164,0 q 0.0781,3.125 1.8164,5.05859 1.75782,1.91406 4.45313,1.91406 1.91406,0 3.24219,-0.78125 1.32812,-0.78125 2.32421,-2.07031 l 2.20704,1.71875 q -2.65625,4.08203 -7.96875,4.08203 z m -0.44922,-18.94531 q -2.1875,0 -3.67188,1.60156 -1.48437,1.58203 -1.83594,4.45313 l 10.58594,0 0,-0.27344 q -0.15625,-2.75391 -1.48437,-4.25781 -1.32813,-1.52344 -3.59375,-1.52344 z" />
      <path
         id="path51"
         style=""
         d="m 288.44865,634.02216 q -0.3125,-0.625 -0.50781,-2.22657 -2.51953,2.61719 -6.01562,2.61719 -3.125,0 -5.13672,-1.75781 -1.99219,-1.77735 -1.99219,-4.49219 0,-3.30078 2.5,-5.11719 2.51953,-1.83593 7.07031,-1.83593 l 3.51563,0 0,-1.66016 q 0,-1.89453 -1.13281,-3.00781 -1.13282,-1.13282 -3.33985,-1.13282 -1.93359,0 -3.24219,0.97657 -1.30859,0.97656 -1.30859,2.36328 l -3.63281,0 q 0,-1.58203 1.11328,-3.04688 1.13281,-1.48437 3.04687,-2.34375 1.9336,-0.85937 4.23829,-0.85937 3.65234,0 5.72265,1.83594 2.07031,1.8164 2.14844,5.01953 l 0,9.72656 q 0,2.91016 0.74219,4.62891 l 0,0.3125 -3.78907,0 z m -5.99609,-2.75391 q 1.69922,0 3.22266,-0.87891 1.52343,-0.8789 2.20703,-2.28515 l 0,-4.33594 -2.83203,0 q -6.64063,0 -6.64063,3.88672 0,1.69922 1.13281,2.65625 1.13282,0.95703 2.91016,0.95703 z" />
      <path
         id="path53"
         style=""
         d="m 307.4135,616.13153 q -0.82031,-0.13672 -1.77735,-0.13672 -3.55468,0 -4.82421,3.02735 l 0,15 -3.61329,0 0,-21.13282 3.51563,0 0.0586,2.44141 q 1.77735,-2.83203 5.03907,-2.83203 1.05468,0 1.60156,0.27344 l 0,3.35937 z" />
      <path
         id="path55"
         style=""
         d="m 314.13225,612.88934 0.11719,2.65625 q 2.42187,-3.04687 6.32812,-3.04687 6.69922,0 6.75781,7.55859 l 0,13.96485 -3.61328,0 0,-13.98438 q -0.0195,-2.28516 -1.05469,-3.37891 -1.01562,-1.09375 -3.18359,-1.09375 -1.75781,0 -3.08594,0.9375 -1.32812,0.9375 -2.07031,2.46094 l 0,15.0586 -3.61328,0 0,-21.13282 3.41797,0 z" />
      <path
         id="path57"
         style=""
         d="m 336.74944,634.02216 -3.61329,0 0,-21.13282 3.61329,0 0,21.13282 z m -3.90625,-26.73829 q 0,-0.8789 0.52734,-1.48437 0.54687,-0.60547 1.60156,-0.60547 1.05469,0 1.60156,0.60547 0.54688,0.60547 0.54688,1.48437 0,0.87891 -0.54688,1.46485 -0.54687,0.58594 -1.60156,0.58594 -1.05469,0 -1.60156,-0.58594 -0.52734,-0.58594 -0.52734,-1.46485 z" />
      <path
         id="path59"
         style=""
         d="m 345.92912,612.88934 0.11719,2.65625 q 2.42188,-3.04687 6.32813,-3.04687 6.69921,0 6.75781,7.55859 l 0,13.96485 -3.61328,0 0,-13.98438 q -0.0195,-2.28516 -1.05469,-3.37891 -1.01563,-1.09375 -3.18359,-1.09375 -1.75782,0 -3.08594,0.9375 -1.32813,0.9375 -2.07031,2.46094 l 0,15.0586 -3.61329,0 0,-21.13282 3.41797,0 z" />
      <path
         id="path61"
         style=""
         d="m 363.76115,623.27997 q 0,-4.94141 2.28516,-7.85156 2.28516,-2.92969 6.05469,-2.92969 3.86719,0 6.03515,2.73437 l 0.17579,-2.34375 3.30078,0 0,20.625 q 0,4.10157 -2.44141,6.46485 -2.42187,2.36328 -6.52344,2.36328 -2.28515,0 -4.47265,-0.97656 -2.1875,-0.97657 -3.33985,-2.67579 l 1.875,-2.16796 q 2.32422,2.87109 5.6836,2.87109 2.63672,0 4.10156,-1.48438 1.48437,-1.48437 1.48437,-4.17968 l 0,-1.81641 q -2.16796,2.5 -5.91796,2.5 -3.71094,0 -6.01563,-2.98828 -2.28516,-2.98828 -2.28516,-8.14453 z m 3.63282,0.41015 q 0,3.57422 1.46484,5.625 1.46484,2.03125 4.10156,2.03125 3.41797,0 5.01953,-3.10546 l 0,-9.64844 q -1.66015,-3.02735 -4.98046,-3.02735 -2.63672,0 -4.1211,2.05079 -1.48437,2.05078 -1.48437,6.07421 z" />
      <path
         id="path63"
         style=""
         d="m 386.92522,639.68622 -2.05078,-1.40625 q 1.83593,-2.5586 1.91406,-5.27344 l 0,-3.26172 3.53515,0 0,2.83203 q 0,1.97266 -0.97656,3.94532 -0.95703,1.97265 -2.42187,3.16406 z" />
      <path
         id="path65"
         style=""
         d="m 125.01115,679.46356 q 1.9336,0 3.37891,-1.17187 1.44531,-1.17188 1.60156,-2.92969 l 3.41797,0 q -0.0977,1.81641 -1.25,3.45703 -1.15234,1.64063 -3.08594,2.61719 -1.91406,0.97656 -4.0625,0.97656 -4.3164,0 -6.875,-2.87109 -2.53906,-2.89063 -2.53906,-7.89063 l 0,-0.60546 q 0,-3.08594 1.13281,-5.48829 1.13282,-2.40234 3.24219,-3.73046 2.12891,-1.32813 5.01953,-1.32813 3.55469,0 5.89844,2.12891 2.36328,2.1289 2.51953,5.52734 l -3.41797,0 q -0.15625,-2.05078 -1.5625,-3.35937 -1.38672,-1.32813 -3.4375,-1.32813 -2.7539,0 -4.27734,1.99219 -1.50391,1.97265 -1.50391,5.72265 l 0,0.6836 q 0,3.65234 1.50391,5.625 1.50391,1.97265 4.29687,1.97265 z" />
      <path
         id="path67"
         style=""
         d="m 141.39787,682.02216 -3.61328,0 0,-30 3.61328,0 0,30 z" />
      <path
         id="path69"
         style=""
         d="m 160.20647,682.02216 q -0.3125,-0.625 -0.50782,-2.22656 -2.51953,2.61718 -6.01562,2.61718 -3.125,0 -5.13672,-1.75781 -1.99219,-1.77734 -1.99219,-4.49219 0,-3.30078 2.5,-5.11718 2.51953,-1.83594 7.07032,-1.83594 l 3.51562,0 0,-1.66016 q 0,-1.89453 -1.13281,-3.00781 -1.13281,-1.13281 -3.33985,-1.13281 -1.93359,0 -3.24218,0.97656 -1.3086,0.97656 -1.3086,2.36328 l -3.63281,0 q 0,-1.58203 1.11328,-3.04687 1.13281,-1.48438 3.04688,-2.34375 1.93359,-0.85938 4.23828,-0.85938 3.65234,0 5.72265,1.83594 2.07032,1.8164 2.14844,5.01953 l 0,9.72656 q 0,2.91016 0.74219,4.62891 l 0,0.3125 -3.78906,0 z m -5.9961,-2.75391 q 1.69922,0 3.22266,-0.8789 1.52344,-0.87891 2.20703,-2.28516 l 0,-4.33594 -2.83203,0 q -6.64063,0 -6.64063,3.88672 0,1.69922 1.13282,2.65625 1.13281,0.95703 2.91015,0.95703 z" />
      <path
         id="path71"
         style=""
         d="m 181.26115,676.41669 q 0,-1.46484 -1.11328,-2.26563 -1.09375,-0.82031 -3.84765,-1.40625 -2.73438,-0.58593 -4.35547,-1.40625 -1.60156,-0.82031 -2.38281,-1.95312 -0.76172,-1.13281 -0.76172,-2.69531 0,-2.59766 2.1875,-4.39453 2.20703,-1.79688 5.625,-1.79688 3.59375,0 5.82031,1.85547 2.24609,1.85547 2.24609,4.74609 l -3.63281,0 q 0,-1.48437 -1.26953,-2.55859 -1.25,-1.07422 -3.16406,-1.07422 -1.97266,0 -3.08594,0.85938 -1.11328,0.85937 -1.11328,2.24609 0,1.30859 1.03515,1.97266 1.03516,0.66406 3.73047,1.26953 2.71485,0.60547 4.39453,1.44531 1.67969,0.83984 2.48047,2.03125 0.82032,1.17187 0.82032,2.87109 0,2.83203 -2.26563,4.55078 -2.26562,1.69922 -5.87891,1.69922 -2.53906,0 -4.49218,-0.89843 -1.95313,-0.89844 -3.06641,-2.5 -1.09375,-1.6211 -1.09375,-3.4961 l 3.61328,0 q 0.0977,1.81641 1.44531,2.89063 1.36719,1.05468 3.59375,1.05468 2.05079,0 3.28125,-0.82031 1.25,-0.83984 1.25,-2.22656 z" />
      <path
         id="path73"
         style=""
         d="m 201.88615,676.41669 q 0,-1.46484 -1.11328,-2.26563 -1.09375,-0.82031 -3.84765,-1.40625 -2.73438,-0.58593 -4.35547,-1.40625 -1.60156,-0.82031 -2.38281,-1.95312 -0.76172,-1.13281 -0.76172,-2.69531 0,-2.59766 2.1875,-4.39453 2.20703,-1.79688 5.625,-1.79688 3.59375,0 5.82031,1.85547 2.24609,1.85547 2.24609,4.74609 l -3.63281,0 q 0,-1.48437 -1.26953,-2.55859 -1.25,-1.07422 -3.16406,-1.07422 -1.97266,0 -3.08594,0.85938 -1.11328,0.85937 -1.11328,2.24609 0,1.30859 1.03515,1.97266 1.03516,0.66406 3.73047,1.26953 2.71485,0.60547 4.39453,1.44531 1.67969,0.83984 2.48047,2.03125 0.82032,1.17187 0.82032,2.87109 0,2.83203 -2.26563,4.55078 -2.26562,1.69922 -5.87891,1.69922 -2.53906,0 -4.49218,-0.89843 -1.95313,-0.89844 -3.06641,-2.5 -1.09375,-1.6211 -1.09375,-3.4961 l 3.61328,0 q 0.0977,1.81641 1.44531,2.89063 1.36719,1.05468 3.59375,1.05468 2.05079,0 3.28125,-0.82031 1.25,-0.83984 1.25,-2.22656 z" />
      <path
         id="path75"
         style=""
         d="m 214.13225,682.02216 -3.61328,0 0,-21.13281 3.61328,0 0,21.13281 z M 210.226,655.28388 q 0,-0.87891 0.52734,-1.48438 0.54688,-0.60547 1.60156,-0.60547 1.05469,0 1.60157,0.60547 0.54687,0.60547 0.54687,1.48438 0,0.8789 -0.54687,1.46484 -0.54688,0.58594 -1.60157,0.58594 -1.05468,0 -1.60156,-0.58594 -0.52734,-0.58594 -0.52734,-1.46484 z" />
      <path
         id="path77"
         style=""
         d="m 221.1049,682.02216 0,-18.33985 -3.33984,0 0,-2.79296 3.33984,0 0,-1.79688 q 0,-3.53516 2.01172,-5.50781 2.03125,-1.97266 5.72266,-1.97266 2.1875,0 5.52734,1.19141 l -0.60547,3.04687 q -2.4414,-0.97656 -4.64843,-0.97656 -2.32422,0 -3.35938,1.05469 -1.01562,1.03515 -1.01562,3.125 l 0,1.83594 4.3164,0 0,2.79296 -4.3164,0 0,18.33985 -3.63282,0 z m 15.0586,0 -3.63281,0 0,-21.13281 3.63281,0 0,21.13281 z" />
      <path
         id="path79"
         style=""
         d="m 250.55803,679.46356 q 1.93359,0 3.37891,-1.17187 1.44531,-1.17188 1.60156,-2.92969 l 3.41797,0 q -0.0977,1.81641 -1.25,3.45703 -1.15235,1.64063 -3.08594,2.61719 -1.91406,0.97656 -4.0625,0.97656 -4.31641,0 -6.875,-2.87109 -2.53906,-2.89063 -2.53906,-7.89063 l 0,-0.60546 q 0,-3.08594 1.13281,-5.48829 1.13281,-2.40234 3.24219,-3.73046 2.1289,-1.32813 5.01953,-1.32813 3.55469,0 5.89844,2.12891 2.36328,2.1289 2.51953,5.52734 l -3.41797,0 q -0.15625,-2.05078 -1.5625,-3.35937 -1.38672,-1.32813 -3.4375,-1.32813 -2.75391,0 -4.27735,1.99219 -1.5039,1.97265 -1.5039,5.72265 l 0,0.6836 q 0,3.65234 1.5039,5.625 1.50391,1.97265 4.29688,1.97265 z" />
      <path
         id="path81"
         style=""
         d="m 276.06584,682.02216 q -0.3125,-0.625 -0.50781,-2.22656 -2.51953,2.61718 -6.01563,2.61718 -3.125,0 -5.13671,-1.75781 -1.99219,-1.77734 -1.99219,-4.49219 0,-3.30078 2.5,-5.11718 2.51953,-1.83594 7.07031,-1.83594 l 3.51563,0 0,-1.66016 q 0,-1.89453 -1.13282,-3.00781 -1.13281,-1.13281 -3.33984,-1.13281 -1.93359,0 -3.24219,0.97656 -1.30859,0.97656 -1.30859,2.36328 l -3.63281,0 q 0,-1.58203 1.11328,-3.04687 1.13281,-1.48438 3.04687,-2.34375 1.9336,-0.85938 4.23828,-0.85938 3.65235,0 5.72266,1.83594 2.07031,1.8164 2.14844,5.01953 l 0,9.72656 q 0,2.91016 0.74218,4.62891 l 0,0.3125 -3.78906,0 z m -5.99609,-2.75391 q 1.69922,0 3.22265,-0.8789 1.52344,-0.87891 2.20704,-2.28516 l 0,-4.33594 -2.83204,0 q -6.64062,0 -6.64062,3.88672 0,1.69922 1.13281,2.65625 1.13281,0.95703 2.91016,0.95703 z" />
      <path
         id="path83"
         style=""
         d="m 289.71819,655.77216 0,5.11719 3.94531,0 0,2.79296 -3.94531,0 0,13.10547 q 0,1.26953 0.52734,1.91407 0.52734,0.625 1.79687,0.625 0.625,0 1.71875,-0.23438 l 0,2.92969 q -1.42578,0.39062 -2.77343,0.39062 -2.42188,0 -3.65235,-1.46484 -1.23047,-1.46484 -1.23047,-4.16016 l 0,-13.10547 -3.84765,0 0,-2.79296 3.84765,0 0,-5.11719 3.61329,0 z" />
      <path
         id="path85"
         style=""
         d="m 301.7885,682.02216 -3.61328,0 0,-21.13281 3.61328,0 0,21.13281 z m -3.90625,-26.73828 q 0,-0.87891 0.52734,-1.48438 0.54688,-0.60547 1.60156,-0.60547 1.05469,0 1.60157,0.60547 0.54687,0.60547 0.54687,1.48438 0,0.8789 -0.54687,1.46484 -0.54688,0.58594 -1.60157,0.58594 -1.05468,0 -1.60156,-0.58594 -0.52734,-0.58594 -0.52734,-1.46484 z" />
      <path
         id="path87"
         style=""
         d="m 306.59319,671.26044 q 0,-3.10547 1.21093,-5.58594 1.23047,-2.48047 3.39844,-3.82812 2.1875,-1.34766 4.98047,-1.34766 4.31641,0 6.97266,2.98828 2.67578,2.98828 2.67578,7.94922 l 0,0.25391 q 0,3.08593 -1.19141,5.54687 -1.17187,2.44141 -3.37891,3.8086 -2.1875,1.36718 -5.03906,1.36718 -4.29687,0 -6.97265,-2.98828 -2.65625,-2.98828 -2.65625,-7.91015 l 0,-0.25391 z m 3.63281,0.42969 q 0,3.51562 1.62109,5.64453 1.64063,2.1289 4.375,2.1289 2.75391,0 4.375,-2.14843 1.6211,-2.16797 1.6211,-6.05469 0,-3.47656 -1.66016,-5.625 -1.64063,-2.16797 -4.375,-2.16797 -2.67578,0 -4.31641,2.12891 -1.64062,2.1289 -1.64062,6.09375 z" />
      <path
         id="path89"
         style=""
         d="m 333.78069,660.88935 0.11718,2.65625 q 2.42188,-3.04688 6.32813,-3.04688 6.69922,0 6.75781,7.55859 l 0,13.96485 -3.61328,0 0,-13.98438 q -0.0195,-2.28515 -1.05469,-3.3789 -1.01562,-1.09375 -3.18359,-1.09375 -1.75781,0 -3.08594,0.9375 -1.32812,0.9375 -2.07031,2.46093 l 0,15.0586 -3.61328,0 0,-21.13281 3.41797,0 z" />
      <path
         id="path91"
         style=""
         d="m 352.3549,687.68622 -2.05078,-1.40625 q 1.83594,-2.55859 1.91407,-5.27344 l 0,-3.26172 3.53515,0 0,2.83204 q 0,1.97265 -0.97656,3.94531 -0.95703,1.97265 -2.42188,3.16406 z" />
      <path
         id="path93"
         style=""
         d="m 120.36272,730.02216 q -0.3125,-0.625 -0.50782,-2.22656 -2.51953,2.61718 -6.01562,2.61718 -3.125,0 -5.13672,-1.75781 -1.99219,-1.77734 -1.99219,-4.49219 0,-3.30078 2.5,-5.11718 2.51953,-1.83594 7.07032,-1.83594 l 3.51562,0 0,-1.66016 q 0,-1.89453 -1.13281,-3.00781 -1.13281,-1.13281 -3.33985,-1.13281 -1.93359,0 -3.24218,0.97656 -1.3086,0.97656 -1.3086,2.36328 l -3.63281,0 q 0,-1.58203 1.11328,-3.04687 1.13281,-1.48438 3.04688,-2.34375 1.93359,-0.85938 4.23828,-0.85938 3.65234,0 5.72265,1.83594 2.07032,1.81641 2.14844,5.01953 l 0,9.72656 q 0,2.91016 0.74219,4.62891 l 0,0.3125 -3.78906,0 z m -5.9961,-2.75391 q 1.69922,0 3.22266,-0.8789 1.52344,-0.87891 2.20703,-2.28516 l 0,-4.33594 -2.83203,0 q -6.64063,0 -6.64063,3.88672 0,1.69922 1.13282,2.65625 1.13281,0.95703 2.91015,0.95703 z" />
      <path
         id="path95"
         style=""
         d="m 132.53069,708.88935 0.11718,2.65625 q 2.42188,-3.04688 6.32813,-3.04688 6.69922,0 6.75781,7.5586 l 0,13.96484 -3.61328,0 0,-13.98438 q -0.0195,-2.28515 -1.05469,-3.3789 -1.01562,-1.09375 -3.18359,-1.09375 -1.75781,0 -3.08594,0.9375 -1.32812,0.9375 -2.07031,2.46094 l 0,15.05859 -3.61328,0 0,-21.13281 3.41797,0 z" />
      <path
         id="path97"
         style=""
         d="m 150.34319,719.27997 q 0,-4.86328 2.30468,-7.8125 2.30469,-2.96875 6.03516,-2.96875 3.71094,0 5.87891,2.53906 l 0,-11.01562 3.61328,0 0,30 -3.32032,0 -0.17578,-2.26563 q -2.16797,2.65625 -6.03515,2.65625 -3.67188,0 -5.9961,-3.00781 -2.30468,-3.00781 -2.30468,-7.85156 l 0,-0.27344 z m 3.61328,0.41016 q 0,3.59375 1.48437,5.625 1.48438,2.03125 4.10156,2.03125 3.4375,0 5.01954,-3.08594 l 0,-9.70703 q -1.6211,-2.98828 -4.98047,-2.98828 -2.65625,0 -4.14063,2.05078 -1.48437,2.05078 -1.48437,6.07422 z" />
      <path
         id="path99"
         style=""
         d="m 182.84319,719.27997 q 0,-4.86328 2.30468,-7.8125 2.30469,-2.96875 6.03516,-2.96875 3.71094,0 5.87891,2.53906 l 0,-11.01562 3.61328,0 0,30 -3.32032,0 -0.17578,-2.26563 q -2.16797,2.65625 -6.03515,2.65625 -3.67188,0 -5.9961,-3.00781 -2.30468,-3.00781 -2.30468,-7.85156 l 0,-0.27344 z m 3.61328,0.41016 q 0,3.59375 1.48437,5.625 1.48438,2.03125 4.10156,2.03125 3.4375,0 5.01954,-3.08594 l 0,-9.70703 q -1.6211,-2.98828 -4.98047,-2.98828 -2.65625,0 -4.14063,2.05078 -1.48437,2.05078 -1.48437,6.07422 z" />
      <path
         id="path101"
         style=""
         d="m 219.34709,730.02216 q -0.3125,-0.625 -0.50781,-2.22656 -2.51953,2.61718 -6.01563,2.61718 -3.125,0 -5.13671,-1.75781 -1.99219,-1.77734 -1.99219,-4.49219 0,-3.30078 2.5,-5.11718 2.51953,-1.83594 7.07031,-1.83594 l 3.51563,0 0,-1.66016 q 0,-1.89453 -1.13282,-3.00781 -1.13281,-1.13281 -3.33984,-1.13281 -1.93359,0 -3.24219,0.97656 -1.30859,0.97656 -1.30859,2.36328 l -3.63281,0 q 0,-1.58203 1.11328,-3.04687 1.13281,-1.48438 3.04687,-2.34375 1.9336,-0.85938 4.23828,-0.85938 3.65235,0 5.72266,1.83594 2.07031,1.81641 2.14844,5.01953 l 0,9.72656 q 0,2.91016 0.74218,4.62891 l 0,0.3125 -3.78906,0 z m -5.99609,-2.75391 q 1.69922,0 3.22265,-0.8789 1.52344,-0.87891 2.20704,-2.28516 l 0,-4.33594 -2.83204,0 q -6.64062,0 -6.64062,3.88672 0,1.69922 1.13281,2.65625 1.13281,0.95703 2.91016,0.95703 z" />
      <path
         id="path103"
         style=""
         d="m 232.99944,703.77216 0,5.11719 3.94531,0 0,2.79297 -3.94531,0 0,13.10546 q 0,1.26954 0.52734,1.91407 0.52734,0.625 1.79687,0.625 0.625,0 1.71875,-0.23438 l 0,2.92969 q -1.42578,0.39062 -2.77343,0.39062 -2.42188,0 -3.65235,-1.46484 -1.23047,-1.46484 -1.23047,-4.16016 l 0,-13.10546 -3.84765,0 0,-2.79297 3.84765,0 0,-5.11719 3.61329,0 z" />
      <path
         id="path105"
         style=""
         d="m 254.19084,730.02216 q -0.3125,-0.625 -0.50781,-2.22656 -2.51953,2.61718 -6.01563,2.61718 -3.125,0 -5.13671,-1.75781 -1.99219,-1.77734 -1.99219,-4.49219 0,-3.30078 2.5,-5.11718 2.51953,-1.83594 7.07031,-1.83594 l 3.51563,0 0,-1.66016 q 0,-1.89453 -1.13282,-3.00781 -1.13281,-1.13281 -3.33984,-1.13281 -1.93359,0 -3.24219,0.97656 -1.30859,0.97656 -1.30859,2.36328 l -3.63281,0 q 0,-1.58203 1.11328,-3.04687 1.13281,-1.48438 3.04687,-2.34375 1.9336,-0.85938 4.23828,-0.85938 3.65235,0 5.72266,1.83594 2.07031,1.81641 2.14844,5.01953 l 0,9.72656 q 0,2.91016 0.74218,4.62891 l 0,0.3125 -3.78906,0 z m -5.99609,-2.75391 q 1.69922,0 3.22265,-0.8789 1.52344,-0.87891 2.20704,-2.28516 l 0,-4.33594 -2.83204,0 q -6.64062,0 -6.64062,3.88672 0,1.69922 1.13281,2.65625 1.13281,0.95703 2.91016,0.95703 z" />
      <path
         id="path107"
         style=""
         d="m 280.83147,719.69013 q 0,4.84375 -2.22657,7.79297 -2.22656,2.92968 -5.97656,2.92968 -4.0039,0 -6.1914,-2.83203 l -0.17579,2.44141 -3.32031,0 0,-30 3.61328,0 0,11.19141 q 2.1875,-2.71485 6.03516,-2.71485 3.84766,0 6.03516,2.91016 2.20703,2.91015 2.20703,7.96875 l 0,0.3125 z m -3.61328,-0.41016 q 0,-3.6914 -1.42579,-5.70312 -1.42578,-2.01172 -4.10156,-2.01172 -3.57422,0 -5.13672,3.32031 l 0,9.14063 q 1.66016,3.32031 5.17578,3.32031 2.59766,0 4.04297,-2.01172 1.44532,-2.01172 1.44532,-6.05469 z" />
      <path
         id="path109"
         style=""
         d="m 298.40959,730.02216 q -0.3125,-0.625 -0.50781,-2.22656 -2.51953,2.61718 -6.01563,2.61718 -3.125,0 -5.13671,-1.75781 -1.99219,-1.77734 -1.99219,-4.49219 0,-3.30078 2.5,-5.11718 2.51953,-1.83594 7.07031,-1.83594 l 3.51563,0 0,-1.66016 q 0,-1.89453 -1.13282,-3.00781 -1.13281,-1.13281 -3.33984,-1.13281 -1.93359,0 -3.24219,0.97656 -1.30859,0.97656 -1.30859,2.36328 l -3.63281,0 q 0,-1.58203 1.11328,-3.04687 1.13281,-1.48438 3.04687,-2.34375 1.9336,-0.85938 4.23828,-0.85938 3.65235,0 5.72266,1.83594 2.07031,1.81641 2.14844,5.01953 l 0,9.72656 q 0,2.91016 0.74218,4.62891 l 0,0.3125 -3.78906,0 z m -5.99609,-2.75391 q 1.69922,0 3.22265,-0.8789 1.52344,-0.87891 2.20704,-2.28516 l 0,-4.33594 -2.83204,0 q -6.64062,0 -6.64062,3.88672 0,1.69922 1.13281,2.65625 1.13281,0.95703 2.91016,0.95703 z" />
      <path
         id="path111"
         style=""
         d="m 319.46428,724.41669 q 0,-1.46484 -1.11328,-2.26562 -1.09375,-0.82032 -3.84766,-1.40625 -2.73437,-0.58594 -4.35547,-1.40625 -1.60156,-0.82032 -2.38281,-1.95313 -0.76172,-1.13281 -0.76172,-2.69531 0,-2.59766 2.1875,-4.39453 2.20703,-1.79688 5.625,-1.79688 3.59375,0 5.82031,1.85547 2.2461,1.85547 2.2461,4.74609 l -3.63281,0 q 0,-1.48437 -1.26954,-2.55859 -1.25,-1.07422 -3.16406,-1.07422 -1.97265,0 -3.08594,0.85938 -1.11328,0.85937 -1.11328,2.24609 0,1.30859 1.03516,1.97266 1.03516,0.66406 3.73047,1.26953 2.71484,0.60547 4.39453,1.44531 1.67969,0.83984 2.48047,2.03125 0.82031,1.17188 0.82031,2.87109 0,2.83204 -2.26562,4.55079 -2.26563,1.69921 -5.87891,1.69921 -2.53906,0 -4.49219,-0.89843 -1.95312,-0.89844 -3.0664,-2.5 -1.09375,-1.6211 -1.09375,-3.4961 l 3.61328,0 q 0.0976,1.81641 1.44531,2.89063 1.36719,1.05469 3.59375,1.05469 2.05078,0 3.28125,-0.82032 1.25,-0.83984 1.25,-2.22656 z" />
      <path
         id="path113"
         style=""
         d="m 336.55412,730.41278 q -4.29687,0 -6.99218,-2.8125 -2.69532,-2.83203 -2.69532,-7.55859 l 0,-0.66406 q 0,-3.14453 1.19141,-5.60547 1.21094,-2.48047 3.35937,-3.86719 2.16797,-1.40625 4.6875,-1.40625 4.1211,0 6.40625,2.71485 2.28516,2.71484 2.28516,7.77343 l 0,1.50391 -14.31641,0 q 0.0781,3.125 1.81641,5.05859 1.75781,1.91407 4.45313,1.91407 1.91406,0 3.24218,-0.78125 1.32813,-0.78125 2.32422,-2.07032 l 2.20703,1.71875 q -2.65625,4.08203 -7.96875,4.08203 z m -0.44922,-18.94531 q -2.1875,0 -3.67187,1.60156 -1.48438,1.58204 -1.83594,4.45313 l 10.58594,0 0,-0.27344 q -0.15625,-2.7539 -1.48438,-4.25781 -1.32812,-1.52344 -3.59375,-1.52344 z" />
      <path
         id="path115"
         style=""
         d="m 361.26115,724.41669 q 0,-1.46484 -1.11328,-2.26562 -1.09375,-0.82032 -3.84765,-1.40625 -2.73438,-0.58594 -4.35547,-1.40625 -1.60156,-0.82032 -2.38281,-1.95313 -0.76172,-1.13281 -0.76172,-2.69531 0,-2.59766 2.1875,-4.39453 2.20703,-1.79688 5.625,-1.79688 3.59375,0 5.82031,1.85547 2.24609,1.85547 2.24609,4.74609 l -3.63281,0 q 0,-1.48437 -1.26953,-2.55859 -1.25,-1.07422 -3.16406,-1.07422 -1.97266,0 -3.08594,0.85938 -1.11328,0.85937 -1.11328,2.24609 0,1.30859 1.03515,1.97266 1.03516,0.66406 3.73047,1.26953 2.71485,0.60547 4.39453,1.44531 1.67969,0.83984 2.48047,2.03125 0.82032,1.17188 0.82032,2.87109 0,2.83204 -2.26563,4.55079 -2.26562,1.69921 -5.87891,1.69921 -2.53906,0 -4.49218,-0.89843 -1.95313,-0.89844 -3.06641,-2.5 -1.09375,-1.6211 -1.09375,-3.4961 l 3.61328,0 q 0.0977,1.81641 1.44531,2.89063 1.36719,1.05469 3.59375,1.05469 2.05079,0 3.28125,-0.82032 1.25,-0.83984 1.25,-2.22656 z" />
    </g>
    <g
       id="text4177-6"
       style="font-style:normal;font-variant:normal;font-weight:normal;font-stretch:normal;font-size:40px;line-height:120.00000477%;font-family:Roboto;-inkscape-font-specification:'Roboto, Normal';text-align:center;letter-spacing:0px;word-spacing:0px;writing-mode:lr-tb;text-anchor:middle;fill:#000000;fill-opacity:1;stroke:none;stroke-width:1px;stroke-linecap:butt;stroke-linejoin:miter;stroke-opacity:1">
      <path
         id="path118"
         style="font-style:normal;font-variant:normal;font-weight:normal;font-stretch:normal;font-size:40px;line-height:120.00000477%;font-family:Roboto;-inkscape-font-specification:'Roboto, Normal';text-align:center;writing-mode:lr-tb;text-anchor:middle"
         d="m 406.41705,186.41557 q -4.82422,-1.38672 -7.03125,-3.39843 -2.1875,-2.03125 -2.1875,-5 0,-3.35938 2.67578,-5.54688 2.69532,-2.20703 6.99219,-2.20703 2.92969,0 5.21485,1.13281 2.30468,1.13281 3.55468,3.125 1.26953,1.99219 1.26953,4.35547 l -3.76953,0 q 0,-2.57812 -1.64062,-4.04297 -1.64063,-1.48437 -4.62891,-1.48437 -2.77344,0 -4.33594,1.23047 -1.54296,1.21093 -1.54296,3.3789 0,1.73828 1.46484,2.94922 1.48437,1.19141 5.01953,2.1875 3.55469,0.99609 5.54688,2.20703 2.01171,1.19141 2.96875,2.79297 0.97656,1.60156 0.97656,3.76953 0,3.45703 -2.69531,5.54688 -2.69532,2.07031 -7.20704,2.07031 -2.92968,0 -5.46875,-1.11328 -2.53906,-1.13281 -3.92578,-3.08594 -1.36718,-1.95312 -1.36718,-4.43359 l 3.76953,0 q 0,2.57812 1.89453,4.08203 1.91406,1.48437 5.09765,1.48437 2.96875,0 4.55079,-1.21093 1.58203,-1.21094 1.58203,-3.30079 0,-2.08984 -1.46485,-3.22265 -1.46484,-1.15235 -5.3125,-2.26563 z" />
      <path
         id="path120"
         style="font-style:normal;font-variant:normal;font-weight:normal;font-stretch:normal;font-size:40px;line-height:120.00000477%;font-family:Roboto;-inkscape-font-specification:'Roboto, Normal';text-align:center;writing-mode:lr-tb;text-anchor:middle"
         d="m 426.12408,172.84135 0,5.11719 3.94532,0 0,2.79297 -3.94532,0 0,13.10547 q 0,1.26953 0.52735,1.91406 0.52734,0.625 1.79687,0.625 0.625,0 1.71875,-0.23437 l 0,2.92968 q -1.42578,0.39063 -2.77343,0.39063 -2.42188,0 -3.65235,-1.46484 -1.23047,-1.46485 -1.23047,-4.16016 l 0,-13.10547 -3.84765,0 0,-2.79297 3.84765,0 0,-5.11719 3.61328,0 z" />
      <path
         id="path122"
         style="font-style:normal;font-variant:normal;font-weight:normal;font-stretch:normal;font-size:40px;line-height:120.00000477%;font-family:Roboto;-inkscape-font-specification:'Roboto, Normal';text-align:center;writing-mode:lr-tb;text-anchor:middle"
         d="m 447.31549,199.09135 q -0.3125,-0.625 -0.50781,-2.22656 -2.51953,2.61719 -6.01563,2.61719 -3.125,0 -5.13672,-1.75781 -1.99218,-1.77735 -1.99218,-4.49219 0,-3.30078 2.5,-5.11719 2.51953,-1.83594 7.07031,-1.83594 l 3.51562,0 0,-1.66015 q 0,-1.89453 -1.13281,-3.00781 -1.13281,-1.13282 -3.33984,-1.13282 -1.9336,0 -3.24219,0.97657 -1.30859,0.97656 -1.30859,2.36328 l -3.63282,0 q 0,-1.58203 1.11329,-3.04688 1.13281,-1.48437 3.04687,-2.34375 1.93359,-0.85937 4.23828,-0.85937 3.65235,0 5.72266,1.83593 2.07031,1.81641 2.14844,5.01954 l 0,9.72656 q 0,2.91015 0.74218,4.6289 l 0,0.3125 -3.78906,0 z m -5.99609,-2.7539 q 1.69922,0 3.22265,-0.87891 1.52344,-0.8789 2.20703,-2.28515 l 0,-4.33594 -2.83203,0 q -6.64062,0 -6.64062,3.88672 0,1.69922 1.13281,2.65625 1.13281,0.95703 2.91016,0.95703 z" />
      <path
         id="path124"
         style="font-style:normal;font-variant:normal;font-weight:normal;font-stretch:normal;font-size:40px;line-height:120.00000477%;font-family:Roboto;-inkscape-font-specification:'Roboto, Normal';text-align:center;writing-mode:lr-tb;text-anchor:middle"
         d="m 460.96783,172.84135 0,5.11719 3.94532,0 0,2.79297 -3.94532,0 0,13.10547 q 0,1.26953 0.52735,1.91406 0.52734,0.625 1.79687,0.625 0.625,0 1.71875,-0.23437 l 0,2.92968 q -1.42578,0.39063 -2.77343,0.39063 -2.42188,0 -3.65235,-1.46484 -1.23047,-1.46485 -1.23047,-4.16016 l 0,-13.10547 -3.84765,0 0,-2.79297 3.84765,0 0,-5.11719 3.61328,0 z" />
      <path
         id="path126"
         style="font-style:normal;font-variant:normal;font-weight:normal;font-stretch:normal;font-size:40px;line-height:120.00000477%;font-family:Roboto;-inkscape-font-specification:'Roboto, Normal';text-align:center;writing-mode:lr-tb;text-anchor:middle"
         d="m 473.03815,199.09135 -3.61328,0 0,-21.13281 3.61328,0 0,21.13281 z m -3.90625,-26.73828 q 0,-0.8789 0.52734,-1.48437 0.54688,-0.60547 1.60156,-0.60547 1.05469,0 1.60157,0.60547 0.54687,0.60547 0.54687,1.48437 0,0.87891 -0.54687,1.46485 -0.54688,0.58593 -1.60157,0.58593 -1.05468,0 -1.60156,-0.58593 -0.52734,-0.58594 -0.52734,-1.46485 z" />
      <path
         id="path128"
         style="font-style:normal;font-variant:normal;font-weight:normal;font-stretch:normal;font-size:40px;line-height:120.00000477%;font-family:Roboto;-inkscape-font-specification:'Roboto, Normal';text-align:center;writing-mode:lr-tb;text-anchor:middle"
         d="m 491.10455,193.48589 q 0,-1.46485 -1.11328,-2.26563 -1.09375,-0.82031 -3.84765,-1.40625 -2.73438,-0.58594 -4.35547,-1.40625 -1.60157,-0.82031 -2.38282,-1.95312 -0.76171,-1.13282 -0.76171,-2.69532 0,-2.59765 2.1875,-4.39453 2.20703,-1.79687 5.625,-1.79687 3.59375,0 5.82031,1.85547 2.24609,1.85546 2.24609,4.74609 l -3.63281,0 q 0,-1.48438 -1.26953,-2.55859 -1.25,-1.07422 -3.16406,-1.07422 -1.97266,0 -3.08594,0.85937 -1.11328,0.85938 -1.11328,2.2461 0,1.30859 1.03515,1.97265 1.03516,0.66406 3.73047,1.26953 2.71485,0.60547 4.39453,1.44532 1.67969,0.83984 2.48047,2.03125 0.82031,1.17187 0.82031,2.87109 0,2.83203 -2.26562,4.55078 -2.26563,1.69922 -5.87891,1.69922 -2.53906,0 -4.49218,-0.89844 -1.95313,-0.89844 -3.06641,-2.5 -1.09375,-1.62109 -1.09375,-3.49609 l 3.61328,0 q 0.0977,1.8164 1.44531,2.89062 1.36719,1.05469 3.59375,1.05469 2.05078,0 3.28125,-0.82031 1.25,-0.83985 1.25,-2.22656 z" />
      <path
         id="path130"
         style="font-style:normal;font-variant:normal;font-weight:normal;font-stretch:normal;font-size:40px;line-height:120.00000477%;font-family:Roboto;-inkscape-font-specification:'Roboto, Normal';text-align:center;writing-mode:lr-tb;text-anchor:middle"
         d="m 504.32721,172.84135 0,5.11719 3.94531,0 0,2.79297 -3.94531,0 0,13.10547 q 0,1.26953 0.52734,1.91406 0.52735,0.625 1.79688,0.625 0.625,0 1.71875,-0.23437 l 0,2.92968 q -1.42578,0.39063 -2.77344,0.39063 -2.42187,0 -3.65234,-1.46484 -1.23047,-1.46485 -1.23047,-4.16016 l 0,-13.10547 -3.84766,0 0,-2.79297 3.84766,0 0,-5.11719 3.61328,0 z" />
      <path
         id="path132"
         style="font-style:normal;font-variant:normal;font-weight:normal;font-stretch:normal;font-size:40px;line-height:120.00000477%;font-family:Roboto;-inkscape-font-specification:'Roboto, Normal';text-align:center;writing-mode:lr-tb;text-anchor:middle"
         d="m 516.39752,199.09135 -3.61328,0 0,-21.13281 3.61328,0 0,21.13281 z m -3.90625,-26.73828 q 0,-0.8789 0.52735,-1.48437 0.54687,-0.60547 1.60156,-0.60547 1.05469,0 1.60156,0.60547 0.54688,0.60547 0.54688,1.48437 0,0.87891 -0.54688,1.46485 -0.54687,0.58593 -1.60156,0.58593 -1.05469,0 -1.60156,-0.58593 -0.52735,-0.58594 -0.52735,-1.46485 z" />
      <path
         id="path134"
         style="font-style:normal;font-variant:normal;font-weight:normal;font-stretch:normal;font-size:40px;line-height:120.00000477%;font-family:Roboto;-inkscape-font-specification:'Roboto, Normal';text-align:center;writing-mode:lr-tb;text-anchor:middle"
         d="m 530.6358,196.53276 q 1.9336,0 3.37891,-1.17187 1.44531,-1.17188 1.60156,-2.92969 l 3.41797,0 q -0.0977,1.8164 -1.25,3.45703 -1.15234,1.64062 -3.08594,2.61719 -1.91406,0.97656 -4.0625,0.97656 -4.3164,0 -6.875,-2.87109 -2.53906,-2.89063 -2.53906,-7.89063 l 0,-0.60547 q 0,-3.08594 1.13281,-5.48828 1.13282,-2.40234 3.24219,-3.73047 2.12891,-1.32812 5.01953,-1.32812 3.55469,0 5.89844,2.1289 2.36328,2.12891 2.51953,5.52735 l -3.41797,0 q -0.15625,-2.05078 -1.5625,-3.35938 -1.38672,-1.32812 -3.4375,-1.32812 -2.7539,0 -4.27734,1.99218 -1.50391,1.97266 -1.50391,5.72266 l 0,0.68359 q 0,3.65235 1.50391,5.625 1.5039,1.97266 4.29687,1.97266 z" />
      <path
         id="path136"
         style="font-style:normal;font-variant:normal;font-weight:normal;font-stretch:normal;font-size:40px;line-height:120.00000477%;font-family:Roboto;-inkscape-font-specification:'Roboto, Normal';text-align:center;writing-mode:lr-tb;text-anchor:middle"
         d="m 555.40143,193.48589 q 0,-1.46485 -1.11328,-2.26563 -1.09375,-0.82031 -3.84766,-1.40625 -2.73437,-0.58594 -4.35547,-1.40625 -1.60156,-0.82031 -2.38281,-1.95312 -0.76172,-1.13282 -0.76172,-2.69532 0,-2.59765 2.1875,-4.39453 2.20703,-1.79687 5.625,-1.79687 3.59375,0 5.82031,1.85547 2.2461,1.85546 2.2461,4.74609 l -3.63282,0 q 0,-1.48438 -1.26953,-2.55859 -1.25,-1.07422 -3.16406,-1.07422 -1.97266,0 -3.08594,0.85937 -1.11328,0.85938 -1.11328,2.2461 0,1.30859 1.03516,1.97265 1.03515,0.66406 3.73047,1.26953 2.71484,0.60547 4.39453,1.44532 1.67969,0.83984 2.48047,2.03125 0.82031,1.17187 0.82031,2.87109 0,2.83203 -2.26563,4.55078 -2.26562,1.69922 -5.8789,1.69922 -2.53906,0 -4.49219,-0.89844 -1.95312,-0.89844 -3.06641,-2.5 -1.09375,-1.62109 -1.09375,-3.49609 l 3.61329,0 q 0.0976,1.8164 1.44531,2.89062 1.36719,1.05469 3.59375,1.05469 2.05078,0 3.28125,-0.82031 1.25,-0.83985 1.25,-2.22656 z" />
      <path
         id="path138"
         style="font-style:normal;font-variant:normal;font-weight:normal;font-stretch:normal;font-size:40px;line-height:120.00000477%;font-family:Roboto;-inkscape-font-specification:'Roboto, Normal';text-align:center;writing-mode:lr-tb;text-anchor:middle"
         d="m 586.69049,199.09135 q -0.3125,-0.625 -0.50781,-2.22656 -2.51953,2.61719 -6.01563,2.61719 -3.125,0 -5.13672,-1.75781 -1.99218,-1.77735 -1.99218,-4.49219 0,-3.30078 2.5,-5.11719 2.51953,-1.83594 7.07031,-1.83594 l 3.51562,0 0,-1.66015 q 0,-1.89453 -1.13281,-3.00781 -1.13281,-1.13282 -3.33984,-1.13282 -1.9336,0 -3.24219,0.97657 -1.30859,0.97656 -1.30859,2.36328 l -3.63282,0 q 0,-1.58203 1.11329,-3.04688 1.13281,-1.48437 3.04687,-2.34375 1.93359,-0.85937 4.23828,-0.85937 3.65235,0 5.72266,1.83593 2.07031,1.81641 2.14844,5.01954 l 0,9.72656 q 0,2.91015 0.74218,4.6289 l 0,0.3125 -3.78906,0 z m -5.99609,-2.7539 q 1.69922,0 3.22265,-0.87891 1.52344,-0.8789 2.20703,-2.28515 l 0,-4.33594 -2.83203,0 q -6.64062,0 -6.64062,3.88672 0,1.69922 1.13281,2.65625 1.13281,0.95703 2.91016,0.95703 z" />
      <path
         id="path140"
         style="font-style:normal;font-variant:normal;font-weight:normal;font-stretch:normal;font-size:40px;line-height:120.00000477%;font-family:Roboto;-inkscape-font-specification:'Roboto, Normal';text-align:center;writing-mode:lr-tb;text-anchor:middle"
         d="m 598.85846,177.95854 0.11719,2.65625 q 2.42187,-3.04687 6.32812,-3.04687 6.69922,0 6.75781,7.55859 l 0,13.96484 -3.61328,0 0,-13.98437 q -0.0195,-2.28516 -1.05468,-3.37891 -1.01563,-1.09375 -3.1836,-1.09375 -1.75781,0 -3.08594,0.9375 -1.32812,0.9375 -2.07031,2.46094 l 0,15.05859 -3.61328,0 0,-21.13281 3.41797,0 z" />
      <path
         id="path142"
         style="font-style:normal;font-variant:normal;font-weight:normal;font-stretch:normal;font-size:40px;line-height:120.00000477%;font-family:Roboto;-inkscape-font-specification:'Roboto, Normal';text-align:center;writing-mode:lr-tb;text-anchor:middle"
         d="m 616.67096,188.34917 q 0,-4.86328 2.30469,-7.8125 2.30468,-2.96875 6.03515,-2.96875 3.71094,0 5.87891,2.53906 l 0,-11.01563 3.61328,0 0,30 -3.32031,0 -0.17578,-2.26562 q -2.16797,2.65625 -6.03516,2.65625 -3.67187,0 -5.99609,-3.00781 -2.30469,-3.00782 -2.30469,-7.85157 l 0,-0.27343 z m 3.61328,0.41015 q 0,3.59375 1.48438,5.625 1.48437,2.03125 4.10156,2.03125 3.4375,0 5.01953,-3.08593 l 0,-9.70704 q -1.62109,-2.98828 -4.98047,-2.98828 -2.65625,0 -4.14062,2.05078 -1.48438,2.05079 -1.48438,6.07422 z" />
      <path
         id="path144"
         style="font-style:normal;font-variant:normal;font-weight:normal;font-stretch:normal;font-size:40px;line-height:120.00000477%;font-family:Roboto;-inkscape-font-specification:'Roboto, Normal';text-align:center;writing-mode:lr-tb;text-anchor:middle"
         d="m 414.67877,242.18901 5.23438,-16.23047 3.6914,0 -7.57812,21.13282 -2.75391,0 -7.65625,-21.13282 3.69141,0 5.37109,16.23047 z" />
      <path
         id="path146"
         style="font-style:normal;font-variant:normal;font-weight:normal;font-stretch:normal;font-size:40px;line-height:120.00000477%;font-family:Roboto;-inkscape-font-specification:'Roboto, Normal';text-align:center;writing-mode:lr-tb;text-anchor:middle"
         d="m 431.0069,247.09136 -3.61328,0 0,-21.13282 3.61328,0 0,21.13282 z m -3.90625,-26.73828 q 0,-0.87891 0.52734,-1.48438 0.54688,-0.60547 1.60156,-0.60547 1.05469,0 1.60157,0.60547 0.54687,0.60547 0.54687,1.48438 0,0.8789 -0.54687,1.46484 -0.54688,0.58594 -1.60157,0.58594 -1.05468,0 -1.60156,-0.58594 -0.52734,-0.58594 -0.52734,-1.46484 z" />
      <path
         id="path148"
         style="font-style:normal;font-variant:normal;font-weight:normal;font-stretch:normal;font-size:40px;line-height:120.00000477%;font-family:Roboto;-inkscape-font-specification:'Roboto, Normal';text-align:center;writing-mode:lr-tb;text-anchor:middle"
         d="m 449.0733,241.48589 q 0,-1.46485 -1.11328,-2.26563 -1.09375,-0.82031 -3.84765,-1.40625 -2.73438,-0.58593 -4.35547,-1.40625 -1.60157,-0.82031 -2.38282,-1.95312 -0.76171,-1.13281 -0.76171,-2.69531 0,-2.59766 2.1875,-4.39454 2.20703,-1.79687 5.625,-1.79687 3.59375,0 5.82031,1.85547 2.24609,1.85547 2.24609,4.74609 l -3.63281,0 q 0,-1.48437 -1.26953,-2.55859 -1.25,-1.07422 -3.16406,-1.07422 -1.97266,0 -3.08594,0.85937 -1.11328,0.85938 -1.11328,2.2461 0,1.30859 1.03515,1.97265 1.03516,0.66407 3.73047,1.26954 2.71485,0.60546 4.39453,1.44531 1.67969,0.83984 2.48047,2.03125 0.82031,1.17187 0.82031,2.87109 0,2.83203 -2.26562,4.55078 -2.26563,1.69922 -5.87891,1.69922 -2.53906,0 -4.49218,-0.89844 -1.95313,-0.89843 -3.06641,-2.5 -1.09375,-1.62109 -1.09375,-3.49609 l 3.61328,0 q 0.0977,1.81641 1.44531,2.89063 1.36719,1.05468 3.59375,1.05468 2.05078,0 3.28125,-0.82031 1.25,-0.83984 1.25,-2.22656 z" />
      <path
         id="path150"
         style="font-style:normal;font-variant:normal;font-weight:normal;font-stretch:normal;font-size:40px;line-height:120.00000477%;font-family:Roboto;-inkscape-font-specification:'Roboto, Normal';text-align:center;writing-mode:lr-tb;text-anchor:middle"
         d="m 470.44049,245.00151 q -2.10937,2.48047 -6.19141,2.48047 -3.3789,0 -5.15625,-1.95312 -1.75781,-1.97266 -1.77734,-5.82032 l 0,-13.75 3.61328,0 0,13.65235 q 0,4.80469 3.90625,4.80469 4.14063,0 5.50781,-3.08594 l 0,-15.3711 3.61329,0 0,21.13282 -3.4375,0 -0.0781,-2.08985 z" />
      <path
         id="path152"
         style="font-style:normal;font-variant:normal;font-weight:normal;font-stretch:normal;font-size:40px;line-height:120.00000477%;font-family:Roboto;-inkscape-font-specification:'Roboto, Normal';text-align:center;writing-mode:lr-tb;text-anchor:middle"
         d="m 492.47174,247.09136 q -0.3125,-0.625 -0.50781,-2.22657 -2.51953,2.61719 -6.01563,2.61719 -3.125,0 -5.13672,-1.75781 -1.99218,-1.77734 -1.99218,-4.49219 0,-3.30078 2.5,-5.11719 2.51953,-1.83593 7.07031,-1.83593 l 3.51562,0 0,-1.66016 q 0,-1.89453 -1.13281,-3.00781 -1.13281,-1.13281 -3.33984,-1.13281 -1.9336,0 -3.24219,0.97656 -1.30859,0.97656 -1.30859,2.36328 l -3.63282,0 q 0,-1.58203 1.11329,-3.04688 1.13281,-1.48437 3.04687,-2.34375 1.93359,-0.85937 4.23828,-0.85937 3.65235,0 5.72266,1.83594 2.07031,1.8164 2.14844,5.01953 l 0,9.72656 q 0,2.91016 0.74218,4.62891 l 0,0.3125 -3.78906,0 z m -5.99609,-2.75391 q 1.69922,0 3.22265,-0.87891 1.52344,-0.8789 2.20703,-2.28515 l 0,-4.33594 -2.83203,0 q -6.64062,0 -6.64062,3.88672 0,1.69922 1.13281,2.65625 1.13281,0.95703 2.91016,0.95703 z" />
      <path
         id="path154"
         style="font-style:normal;font-variant:normal;font-weight:normal;font-stretch:normal;font-size:40px;line-height:120.00000477%;font-family:Roboto;-inkscape-font-specification:'Roboto, Normal';text-align:center;writing-mode:lr-tb;text-anchor:middle"
         d="m 505.14752,247.09136 -3.61328,0 0,-30 3.61328,0 0,30 z" />
      <path
         id="path156"
         style="font-style:normal;font-variant:normal;font-weight:normal;font-stretch:normal;font-size:40px;line-height:120.00000477%;font-family:Roboto;-inkscape-font-specification:'Roboto, Normal';text-align:center;writing-mode:lr-tb;text-anchor:middle"
         d="m 514.83502,247.09136 -3.61328,0 0,-21.13282 3.61328,0 0,21.13282 z m -3.90625,-26.73828 q 0,-0.87891 0.52735,-1.48438 0.54687,-0.60547 1.60156,-0.60547 1.05469,0 1.60156,0.60547 0.54688,0.60547 0.54688,1.48438 0,0.8789 -0.54688,1.46484 -0.54687,0.58594 -1.60156,0.58594 -1.05469,0 -1.60156,-0.58594 -0.52735,-0.58594 -0.52735,-1.46484 z" />
      <path
         id="path158"
         style="font-style:normal;font-variant:normal;font-weight:normal;font-stretch:normal;font-size:40px;line-height:120.00000477%;font-family:Roboto;-inkscape-font-specification:'Roboto, Normal';text-align:center;writing-mode:lr-tb;text-anchor:middle"
         d="m 523.99518,244.14214 12.36328,0 0,2.94922 -16.77734,0 0,-2.65625 11.66015,-15.48828 -11.48437,0 0,-2.98829 16.01562,0 0,2.5586 -11.77734,15.625 z" />
      <path
         id="path160"
         style="font-style:normal;font-variant:normal;font-weight:normal;font-stretch:normal;font-size:40px;line-height:120.00000477%;font-family:Roboto;-inkscape-font-specification:'Roboto, Normal';text-align:center;writing-mode:lr-tb;text-anchor:middle"
         d="m 553.48737,247.09136 q -0.3125,-0.625 -0.50782,-2.22657 -2.51953,2.61719 -6.01562,2.61719 -3.125,0 -5.13672,-1.75781 -1.99219,-1.77734 -1.99219,-4.49219 0,-3.30078 2.5,-5.11719 2.51953,-1.83593 7.07031,-1.83593 l 3.51563,0 0,-1.66016 q 0,-1.89453 -1.13281,-3.00781 -1.13282,-1.13281 -3.33985,-1.13281 -1.93359,0 -3.24218,0.97656 -1.3086,0.97656 -1.3086,2.36328 l -3.63281,0 q 0,-1.58203 1.11328,-3.04688 1.13281,-1.48437 3.04688,-2.34375 1.93359,-0.85937 4.23828,-0.85937 3.65234,0 5.72265,1.83594 2.07032,1.8164 2.14844,5.01953 l 0,9.72656 q 0,2.91016 0.74219,4.62891 l 0,0.3125 -3.78906,0 z m -5.9961,-2.75391 q 1.69922,0 3.22266,-0.87891 1.52344,-0.8789 2.20703,-2.28515 l 0,-4.33594 -2.83203,0 q -6.64063,0 -6.64063,3.88672 0,1.69922 1.13282,2.65625 1.13281,0.95703 2.91015,0.95703 z" />
      <path
         id="path162"
         style="font-style:normal;font-variant:normal;font-weight:normal;font-stretch:normal;font-size:40px;line-height:120.00000477%;font-family:Roboto;-inkscape-font-specification:'Roboto, Normal';text-align:center;writing-mode:lr-tb;text-anchor:middle"
         d="m 567.13971,220.84136 0,5.11718 3.94531,0 0,2.79297 -3.94531,0 0,13.10547 q 0,1.26953 0.52734,1.91406 0.52735,0.625 1.79688,0.625 0.625,0 1.71875,-0.23437 l 0,2.92969 q -1.42578,0.39062 -2.77344,0.39062 -2.42187,0 -3.65234,-1.46484 -1.23047,-1.46485 -1.23047,-4.16016 l 0,-13.10547 -3.84766,0 0,-2.79297 3.84766,0 0,-5.11718 3.61328,0 z" />
      <path
         id="path164"
         style="font-style:normal;font-variant:normal;font-weight:normal;font-stretch:normal;font-size:40px;line-height:120.00000477%;font-family:Roboto;-inkscape-font-specification:'Roboto, Normal';text-align:center;writing-mode:lr-tb;text-anchor:middle"
         d="m 579.21002,247.09136 -3.61328,0 0,-21.13282 3.61328,0 0,21.13282 z m -3.90625,-26.73828 q 0,-0.87891 0.52735,-1.48438 0.54687,-0.60547 1.60156,-0.60547 1.05469,0 1.60156,0.60547 0.54688,0.60547 0.54688,1.48438 0,0.8789 -0.54688,1.46484 -0.54687,0.58594 -1.60156,0.58594 -1.05469,0 -1.60156,-0.58594 -0.52735,-0.58594 -0.52735,-1.46484 z" />
      <path
         id="path166"
         style="font-style:normal;font-variant:normal;font-weight:normal;font-stretch:normal;font-size:40px;line-height:120.00000477%;font-family:Roboto;-inkscape-font-specification:'Roboto, Normal';text-align:center;writing-mode:lr-tb;text-anchor:middle"
         d="m 584.01471,236.32964 q 0,-3.10547 1.21094,-5.58594 1.23047,-2.48047 3.39843,-3.82812 2.1875,-1.34766 4.98047,-1.34766 4.31641,0 6.97266,2.98828 2.67578,2.98828 2.67578,7.94922 l 0,0.25391 q 0,3.08593 -1.19141,5.54687 -1.17187,2.44141 -3.3789,3.80859 -2.1875,1.36719 -5.03906,1.36719 -4.29688,0 -6.97266,-2.98828 -2.65625,-2.98828 -2.65625,-7.91016 l 0,-0.2539 z m 3.63281,0.42969 q 0,3.51562 1.6211,5.64453 1.64062,2.1289 4.375,2.1289 2.7539,0 4.375,-2.14843 1.62109,-2.16797 1.62109,-6.05469 0,-3.47656 -1.66016,-5.625 -1.64062,-2.16797 -4.375,-2.16797 -2.67578,0 -4.3164,2.12891 -1.64063,2.1289 -1.64063,6.09375 z" />
      <path
         id="path168"
         style="font-style:normal;font-variant:normal;font-weight:normal;font-stretch:normal;font-size:40px;line-height:120.00000477%;font-family:Roboto;-inkscape-font-specification:'Roboto, Normal';text-align:center;writing-mode:lr-tb;text-anchor:middle"
         d="m 611.20221,225.95854 0.11719,2.65625 q 2.42187,-3.04687 6.32812,-3.04687 6.69922,0 6.75781,7.55859 l 0,13.96485 -3.61328,0 0,-13.98438 q -0.0195,-2.28515 -1.05468,-3.3789 -1.01563,-1.09375 -3.1836,-1.09375 -1.75781,0 -3.08594,0.9375 -1.32812,0.9375 -2.07031,2.46093 l 0,15.0586 -3.61328,0 0,-21.13282 3.41797,0 z" />
    </g>
    <g
       id="text4220"
       style="font-style:normal;font-variant:normal;font-weight:normal;font-stretch:normal;font-size:40px;line-height:120.00000477%;font-family:Roboto;-inkscape-font-specification:'Roboto, Normal';text-align:center;letter-spacing:0px;word-spacing:0px;writing-mode:lr-tb;text-anchor:middle;fill:#000000;fill-opacity:1;stroke:none;stroke-width:1px;stroke-linecap:butt;stroke-linejoin:miter;stroke-opacity:1">
      <path
         id="path171"
         style=""
         d="m 655.68188,621.34637 q -4.82421,-1.38671 -7.03125,-3.39843 -2.1875,-2.03125 -2.1875,-5 0,-3.35938 2.67579,-5.54688 2.69531,-2.20703 6.99218,-2.20703 2.92969,0 5.21485,1.13281 2.30468,1.13282 3.55468,3.125 1.26954,1.99219 1.26954,4.35547 l -3.76954,0 q 0,-2.57812 -1.64062,-4.04297 -1.64063,-1.48437 -4.62891,-1.48437 -2.77343,0 -4.33593,1.23047 -1.54297,1.21093 -1.54297,3.3789 0,1.73828 1.46484,2.94922 1.48438,1.19141 5.01953,2.1875 3.55469,0.9961 5.54688,2.20703 2.01172,1.19141 2.96875,2.79297 0.97656,1.60156 0.97656,3.76953 0,3.45703 -2.69531,5.54688 -2.69532,2.07031 -7.20703,2.07031 -2.92969,0 -5.46875,-1.11328 -2.53907,-1.13281 -3.92579,-3.08594 -1.36718,-1.95312 -1.36718,-4.43359 l 3.76953,0 q 0,2.57812 1.89453,4.08203 1.91406,1.48437 5.09766,1.48437 2.96875,0 4.55078,-1.21093 1.58203,-1.21094 1.58203,-3.30078 0,-2.08985 -1.46485,-3.22266 -1.46484,-1.15234 -5.3125,-2.26563 z" />
      <path
         id="path173"
         style=""
         d="m 678.96313,631.46356 q 1.9336,0 3.37891,-1.17187 1.44531,-1.17188 1.60156,-2.92969 l 3.41797,0 q -0.0977,1.81641 -1.25,3.45703 -1.15234,1.64063 -3.08594,2.61719 -1.91406,0.97656 -4.0625,0.97656 -4.3164,0 -6.875,-2.87109 -2.53906,-2.89063 -2.53906,-7.89063 l 0,-0.60547 q 0,-3.08593 1.13281,-5.48828 1.13282,-2.40234 3.24219,-3.73047 2.12891,-1.32812 5.01953,-1.32812 3.55469,0 5.89844,2.1289 2.36328,2.12891 2.51953,5.52735 l -3.41797,0 q -0.15625,-2.05078 -1.5625,-3.35938 -1.38672,-1.32812 -3.4375,-1.32812 -2.7539,0 -4.27734,1.99219 -1.50391,1.97265 -1.50391,5.72265 l 0,0.6836 q 0,3.65234 1.50391,5.625 1.50391,1.97265 4.29687,1.97265 z" />
      <path
         id="path175"
         style=""
         d="m 695.34985,634.02216 -3.61328,0 0,-21.13282 3.61328,0 0,21.13282 z m -3.90625,-26.73829 q 0,-0.8789 0.52735,-1.48437 0.54687,-0.60547 1.60156,-0.60547 1.05469,0 1.60156,0.60547 0.54688,0.60547 0.54688,1.48437 0,0.87891 -0.54688,1.46485 -0.54687,0.58594 -1.60156,0.58594 -1.05469,0 -1.60156,-0.58594 -0.52735,-0.58594 -0.52735,-1.46485 z" />
      <path
         id="path177"
         style=""
         d="m 709.8811,634.41278 q -4.29687,0 -6.99218,-2.8125 -2.69532,-2.83203 -2.69532,-7.55859 l 0,-0.66407 q 0,-3.14453 1.19141,-5.60546 1.21094,-2.48047 3.35937,-3.86719 2.16797,-1.40625 4.6875,-1.40625 4.1211,0 6.40625,2.71484 2.28516,2.71485 2.28516,7.77344 l 0,1.50391 -14.31641,0 q 0.0781,3.125 1.81641,5.05859 1.75781,1.91406 4.45313,1.91406 1.91406,0 3.24218,-0.78125 1.32813,-0.78125 2.32422,-2.07031 l 2.20703,1.71875 q -2.65625,4.08203 -7.96875,4.08203 z m -0.44922,-18.94531 q -2.1875,0 -3.67187,1.60156 -1.48438,1.58203 -1.83594,4.45313 l 10.58594,0 0,-0.27344 q -0.15625,-2.75391 -1.48438,-4.25781 -1.32812,-1.52344 -3.59375,-1.52344 z" />
      <path
         id="path179"
         style=""
         d="m 725.70142,612.88934 0.11718,2.65625 q 2.42188,-3.04687 6.32813,-3.04687 6.69922,0 6.75781,7.55859 l 0,13.96485 -3.61328,0 0,-13.98438 q -0.0195,-2.28516 -1.05469,-3.37891 -1.01562,-1.09375 -3.18359,-1.09375 -1.75781,0 -3.08594,0.9375 -1.32812,0.9375 -2.07031,2.46094 l 0,15.0586 -3.61328,0 0,-21.13282 3.41797,0 z" />
      <path
         id="path181"
         style=""
         d="m 752.86938,631.46356 q 1.9336,0 3.37891,-1.17187 1.44531,-1.17188 1.60156,-2.92969 l 3.41797,0 q -0.0977,1.81641 -1.25,3.45703 -1.15234,1.64063 -3.08594,2.61719 -1.91406,0.97656 -4.0625,0.97656 -4.3164,0 -6.875,-2.87109 -2.53906,-2.89063 -2.53906,-7.89063 l 0,-0.60547 q 0,-3.08593 1.13281,-5.48828 1.13282,-2.40234 3.24219,-3.73047 2.12891,-1.32812 5.01953,-1.32812 3.55469,0 5.89844,2.1289 2.36328,2.12891 2.51953,5.52735 l -3.41797,0 q -0.15625,-2.05078 -1.5625,-3.35938 -1.38672,-1.32812 -3.4375,-1.32812 -2.7539,0 -4.27734,1.99219 -1.50391,1.97265 -1.50391,5.72265 l 0,0.6836 q 0,3.65234 1.50391,5.625 1.50391,1.97265 4.29687,1.97265 z" />
      <path
         id="path183"
         style=""
         d="m 774.09985,634.41278 q -4.29687,0 -6.99218,-2.8125 -2.69532,-2.83203 -2.69532,-7.55859 l 0,-0.66407 q 0,-3.14453 1.19141,-5.60546 1.21094,-2.48047 3.35937,-3.86719 2.16797,-1.40625 4.6875,-1.40625 4.1211,0 6.40625,2.71484 2.28516,2.71485 2.28516,7.77344 l 0,1.50391 -14.31641,0 q 0.0781,3.125 1.81641,5.05859 1.75781,1.91406 4.45313,1.91406 1.91406,0 3.24218,-0.78125 1.32813,-0.78125 2.32422,-2.07031 l 2.20703,1.71875 q -2.65625,4.08203 -7.96875,4.08203 z m -0.44922,-18.94531 q -2.1875,0 -3.67187,1.60156 -1.48438,1.58203 -1.83594,4.45313 l 10.58594,0 0,-0.27344 q -0.15625,-2.75391 -1.48438,-4.25781 -1.32812,-1.52344 -3.59375,-1.52344 z" />
      <path
         id="path185"
         style=""
         d="m 795.54517,623.27997 q 0,-4.86328 2.30468,-7.8125 2.30469,-2.96875 6.03516,-2.96875 3.71094,0 5.87891,2.53906 l 0,-11.01562 3.61328,0 0,30 -3.32032,0 -0.17578,-2.26563 q -2.16797,2.65625 -6.03515,2.65625 -3.67188,0 -5.9961,-3.00781 -2.30468,-3.00781 -2.30468,-7.85156 l 0,-0.27344 z m 3.61328,0.41015 q 0,3.59375 1.48437,5.625 1.48438,2.03125 4.10156,2.03125 3.4375,0 5.01954,-3.08593 l 0,-9.70703 q -1.6211,-2.98829 -4.98047,-2.98829 -2.65625,0 -4.14063,2.05079 -1.48437,2.05078 -1.48437,6.07421 z" />
      <path
         id="path187"
         style=""
         d="m 822.92798,634.02216 -3.61328,0 0,-21.13282 3.61328,0 0,21.13282 z m -3.90625,-26.73829 q 0,-0.8789 0.52734,-1.48437 0.54688,-0.60547 1.60156,-0.60547 1.05469,0 1.60157,0.60547 0.54687,0.60547 0.54687,1.48437 0,0.87891 -0.54687,1.46485 -0.54688,0.58594 -1.60157,0.58594 -1.05468,0 -1.60156,-0.58594 -0.52734,-0.58594 -0.52734,-1.46485 z" />
      <path
         id="path189"
         style=""
         d="m 840.99438,628.41669 q 0,-1.46485 -1.11328,-2.26563 -1.09375,-0.82031 -3.84765,-1.40625 -2.73438,-0.58594 -4.35547,-1.40625 -1.60156,-0.82031 -2.38281,-1.95312 -0.76172,-1.13282 -0.76172,-2.69532 0,-2.59765 2.1875,-4.39453 2.20703,-1.79687 5.625,-1.79687 3.59375,0 5.82031,1.85547 2.24609,1.85547 2.24609,4.74609 l -3.63281,0 q 0,-1.48437 -1.26953,-2.55859 -1.25,-1.07422 -3.16406,-1.07422 -1.97266,0 -3.08594,0.85937 -1.11328,0.85938 -1.11328,2.2461 0,1.30859 1.03515,1.97265 1.03516,0.66407 3.73047,1.26953 2.71485,0.60547 4.39453,1.44532 1.67969,0.83984 2.48047,2.03125 0.82032,1.17187 0.82032,2.87109 0,2.83203 -2.26563,4.55078 -2.26562,1.69922 -5.87891,1.69922 -2.53906,0 -4.49218,-0.89844 -1.95313,-0.89843 -3.06641,-2.5 -1.09375,-1.62109 -1.09375,-3.49609 l 3.61328,0 q 0.0977,1.81641 1.44531,2.89062 1.36719,1.05469 3.59375,1.05469 2.05079,0 3.28125,-0.82031 1.25,-0.83984 1.25,-2.22656 z" />
      <path
         id="path191"
         style=""
         d="m 857.79126,631.46356 q 1.93359,0 3.37891,-1.17187 1.44531,-1.17188 1.60156,-2.92969 l 3.41797,0 q -0.0977,1.81641 -1.25,3.45703 -1.15235,1.64063 -3.08594,2.61719 -1.91406,0.97656 -4.0625,0.97656 -4.31641,0 -6.875,-2.87109 -2.53906,-2.89063 -2.53906,-7.89063 l 0,-0.60547 q 0,-3.08593 1.13281,-5.48828 1.13281,-2.40234 3.24219,-3.73047 2.1289,-1.32812 5.01953,-1.32812 3.55469,0 5.89844,2.1289 2.36328,2.12891 2.51953,5.52735 l -3.41797,0 q -0.15625,-2.05078 -1.5625,-3.35938 -1.38672,-1.32812 -3.4375,-1.32812 -2.75391,0 -4.27735,1.99219 -1.5039,1.97265 -1.5039,5.72265 l 0,0.6836 q 0,3.65234 1.5039,5.625 1.50391,1.97265 4.29688,1.97265 z" />
      <path
         id="path193"
         style=""
         d="m 874.17798,634.02216 -3.61328,0 0,-21.13282 3.61328,0 0,21.13282 z m -3.90625,-26.73829 q 0,-0.8789 0.52734,-1.48437 0.54688,-0.60547 1.60156,-0.60547 1.05469,0 1.60157,0.60547 0.54687,0.60547 0.54687,1.48437 0,0.87891 -0.54687,1.46485 -0.54688,0.58594 -1.60157,0.58594 -1.05468,0 -1.60156,-0.58594 -0.52734,-0.58594 -0.52734,-1.46485 z" />
      <path
         id="path195"
         style=""
         d="m 897.79126,623.69012 q 0,4.82422 -2.20703,7.77344 -2.20703,2.94922 -5.97656,2.94922 -3.84766,0 -6.05469,-2.44141 l 0,10.17579 -3.61328,0 0,-29.25782 3.30078,0 0.17578,2.34375 q 2.20703,-2.73437 6.13281,-2.73437 3.8086,0 6.01563,2.87109 2.22656,2.8711 2.22656,7.98828 l 0,0.33203 z m -3.61328,-0.41015 q 0,-3.57422 -1.52344,-5.64453 -1.52344,-2.07032 -4.17969,-2.07032 -3.28125,0 -4.92187,2.91016 l 0,10.09766 q 1.62109,2.89062 4.96094,2.89062 2.59765,0 4.12109,-2.05078 1.54297,-2.07031 1.54297,-6.13281 z" />
      <path
         id="path197"
         style=""
         d="m 906.28735,634.02216 -3.61328,0 0,-30 3.61328,0 0,30 z" />
      <path
         id="path199"
         style=""
         d="m 915.97485,634.02216 -3.61328,0 0,-21.13282 3.61328,0 0,21.13282 z m -3.90625,-26.73829 q 0,-0.8789 0.52735,-1.48437 0.54687,-0.60547 1.60156,-0.60547 1.05469,0 1.60156,0.60547 0.54688,0.60547 0.54688,1.48437 0,0.87891 -0.54688,1.46485 -0.54687,0.58594 -1.60156,0.58594 -1.05469,0 -1.60156,-0.58594 -0.52735,-0.58594 -0.52735,-1.46485 z" />
      <path
         id="path201"
         style=""
         d="m 925.15454,612.88934 0.11719,2.65625 q 2.42187,-3.04687 6.32812,-3.04687 6.69922,0 6.75782,7.55859 l 0,13.96485 -3.61329,0 0,-13.98438 q -0.0195,-2.28516 -1.05468,-3.37891 -1.01563,-1.09375 -3.1836,-1.09375 -1.75781,0 -3.08593,0.9375 -1.32813,0.9375 -2.07032,2.46094 l 0,15.0586 -3.61328,0 0,-21.13282 3.41797,0 z" />
      <path
         id="path203"
         style=""
         d="m 952.61548,634.41278 q -4.29688,0 -6.99219,-2.8125 -2.69531,-2.83203 -2.69531,-7.55859 l 0,-0.66407 q 0,-3.14453 1.1914,-5.60546 1.21094,-2.48047 3.35938,-3.86719 2.16797,-1.40625 4.6875,-1.40625 4.12109,0 6.40625,2.71484 2.28516,2.71485 2.28516,7.77344 l 0,1.50391 -14.31641,0 q 0.0781,3.125 1.81641,5.05859 1.75781,1.91406 4.45312,1.91406 1.91406,0 3.24219,-0.78125 1.32812,-0.78125 2.32422,-2.07031 l 2.20703,1.71875 q -2.65625,4.08203 -7.96875,4.08203 z m -0.44922,-18.94531 q -2.1875,0 -3.67188,1.60156 -1.48437,1.58203 -1.83593,4.45313 l 10.58593,0 0,-0.27344 q -0.15625,-2.75391 -1.48437,-4.25781 -1.32813,-1.52344 -3.59375,-1.52344 z" />
      <path
         id="path205"
         style=""
         d="m 665.36938,682.02216 q -0.3125,-0.625 -0.50781,-2.22656 -2.51953,2.61718 -6.01562,2.61718 -3.125,0 -5.13672,-1.75781 -1.99219,-1.77734 -1.99219,-4.49219 0,-3.30078 2.5,-5.11718 2.51953,-1.83594 7.07031,-1.83594 l 3.51563,0 0,-1.66016 q 0,-1.89453 -1.13281,-3.00781 -1.13282,-1.13281 -3.33985,-1.13281 -1.93359,0 -3.24219,0.97656 -1.30859,0.97656 -1.30859,2.36328 l -3.63281,0 q 0,-1.58203 1.11328,-3.04687 1.13281,-1.48438 3.04687,-2.34375 1.9336,-0.85938 4.23829,-0.85938 3.65234,0 5.72265,1.83594 2.07031,1.8164 2.14844,5.01953 l 0,9.72656 q 0,2.91016 0.74219,4.62891 l 0,0.3125 -3.78907,0 z m -5.99609,-2.75391 q 1.69922,0 3.22266,-0.8789 1.52343,-0.87891 2.20703,-2.28516 l 0,-4.33594 -2.83203,0 q -6.64063,0 -6.64063,3.88672 0,1.69922 1.13281,2.65625 1.13282,0.95703 2.91016,0.95703 z" />
      <path
         id="path207"
         style=""
         d="m 677.53735,660.88935 0.11719,2.65625 q 2.42188,-3.04688 6.32813,-3.04688 6.69921,0 6.75781,7.55859 l 0,13.96485 -3.61328,0 0,-13.98438 q -0.0195,-2.28515 -1.05469,-3.3789 -1.01563,-1.09375 -3.18359,-1.09375 -1.75782,0 -3.08594,0.9375 -1.32813,0.9375 -2.07031,2.46093 l 0,15.0586 -3.61329,0 0,-21.13281 3.41797,0 z" />
      <path
         id="path209"
         style=""
         d="m 695.34985,671.27997 q 0,-4.86328 2.30469,-7.8125 2.30469,-2.96875 6.03516,-2.96875 3.71093,0 5.8789,2.53906 l 0,-11.01562 3.61328,0 0,30 -3.32031,0 -0.17578,-2.26563 q -2.16797,2.65625 -6.03516,2.65625 -3.67187,0 -5.99609,-3.00781 -2.30469,-3.00781 -2.30469,-7.85156 l 0,-0.27344 z m 3.61328,0.41016 q 0,3.59375 1.48438,5.625 1.48437,2.03125 4.10156,2.03125 3.4375,0 5.01953,-3.08594 l 0,-9.70703 q -1.62109,-2.98828 -4.98047,-2.98828 -2.65625,0 -4.14062,2.05078 -1.48438,2.05078 -1.48438,6.07422 z" />
      <path
         id="path211"
         style=""
         d="m 737.49829,682.41278 q -4.29687,0 -6.99219,-2.8125 -2.69531,-2.83203 -2.69531,-7.55859 l 0,-0.66406 q 0,-3.14453 1.19141,-5.60547 1.21093,-2.48047 3.35937,-3.86719 2.16797,-1.40625 4.6875,-1.40625 4.1211,0 6.40625,2.71484 2.28516,2.71485 2.28516,7.77344 l 0,1.50391 -14.31641,0 q 0.0781,3.125 1.81641,5.05859 1.75781,1.91406 4.45312,1.91406 1.91407,0 3.24219,-0.78125 1.32813,-0.78125 2.32422,-2.07031 l 2.20703,1.71875 q -2.65625,4.08203 -7.96875,4.08203 z m -0.44922,-18.94531 q -2.1875,0 -3.67187,1.60156 -1.48438,1.58203 -1.83594,4.45313 l 10.58594,0 0,-0.27344 q -0.15625,-2.75391 -1.48438,-4.25781 -1.32812,-1.52344 -3.59375,-1.52344 z" />
      <path
         id="path213"
         style=""
         d="m 756.99048,668.60419 4.6875,-7.71484 4.21875,0 -6.91406,10.44921 7.1289,10.6836 -4.17969,0 -4.88281,-7.91016 -4.88281,7.91016 -4.19922,0 7.12891,-10.6836 -6.91407,-10.44921 4.17969,0 4.62891,7.71484 z" />
      <path
         id="path215"
         style=""
         d="m 787.59595,671.69013 q 0,4.82422 -2.20703,7.77343 -2.20704,2.94922 -5.97657,2.94922 -3.84765,0 -6.05468,-2.4414 l 0,10.17578 -3.61329,0 0,-29.25781 3.30079,0 0.17578,2.34375 q 2.20703,-2.73438 6.13281,-2.73438 3.80859,0 6.01562,2.87109 2.22657,2.8711 2.22657,7.98829 l 0,0.33203 z m -3.61328,-0.41016 q 0,-3.57422 -1.52344,-5.64453 -1.52344,-2.07031 -4.17969,-2.07031 -3.28125,0 -4.92187,2.91015 l 0,10.09766 q 1.62109,2.89062 4.96093,2.89062 2.59766,0 4.1211,-2.05078 1.54297,-2.07031 1.54297,-6.13281 z" />
      <path
         id="path217"
         style=""
         d="m 800.93579,682.41278 q -4.29687,0 -6.99219,-2.8125 -2.69531,-2.83203 -2.69531,-7.55859 l 0,-0.66406 q 0,-3.14453 1.19141,-5.60547 1.21093,-2.48047 3.35937,-3.86719 2.16797,-1.40625 4.6875,-1.40625 4.1211,0 6.40625,2.71484 2.28516,2.71485 2.28516,7.77344 l 0,1.50391 -14.31641,0 q 0.0781,3.125 1.81641,5.05859 1.75781,1.91406 4.45312,1.91406 1.91407,0 3.24219,-0.78125 1.32813,-0.78125 2.32422,-2.07031 l 2.20703,1.71875 q -2.65625,4.08203 -7.96875,4.08203 z m -0.44922,-18.94531 q -2.1875,0 -3.67187,1.60156 -1.48438,1.58203 -1.83594,4.45313 l 10.58594,0 0,-0.27344 q -0.15625,-2.75391 -1.48438,-4.25781 -1.32812,-1.52344 -3.59375,-1.52344 z" />
      <path
         id="path219"
         style=""
         d="m 823.55298,664.13153 q -0.82031,-0.13672 -1.77735,-0.13672 -3.55468,0 -4.82421,3.02735 l 0,15 -3.61329,0 0,-21.13281 3.51563,0 0.0586,2.4414 q 1.77735,-2.83203 5.03907,-2.83203 1.05468,0 1.60156,0.27344 l 0,3.35937 z" />
      <path
         id="path221"
         style=""
         d="m 830.77954,682.02216 -3.61328,0 0,-21.13281 3.61328,0 0,21.13281 z m -3.90625,-26.73828 q 0,-0.87891 0.52734,-1.48438 0.54688,-0.60547 1.60157,-0.60547 1.05468,0 1.60156,0.60547 0.54687,0.60547 0.54687,1.48438 0,0.8789 -0.54687,1.46484 -0.54688,0.58594 -1.60156,0.58594 -1.05469,0 -1.60157,-0.58594 -0.52734,-0.58594 -0.52734,-1.46484 z" />
      <path
         id="path223"
         style=""
         d="m 839.9397,660.88935 0.0976,2.34375 q 2.32422,-2.73438 6.26953,-2.73438 4.4336,0 6.03516,3.39844 1.05469,-1.52344 2.73438,-2.46094 1.69921,-0.9375 4.0039,-0.9375 6.95313,0 7.07031,7.36328 l 0,14.16016 -3.61328,0 0,-13.94531 q 0,-2.26563 -1.03515,-3.37891 -1.03516,-1.13281 -3.47657,-1.13281 -2.01171,0 -3.33984,1.21093 -1.32812,1.19141 -1.54297,3.22266 l 0,14.02344 -3.63281,0 0,-13.84766 q 0,-4.60937 -4.51172,-4.60937 -3.55469,0 -4.86328,3.02734 l 0,15.42969 -3.61328,0 0,-21.13281 3.41797,0 z" />
      <path
         id="path225"
         style=""
         d="m 880.38892,682.41278 q -4.29688,0 -6.99219,-2.8125 -2.69531,-2.83203 -2.69531,-7.55859 l 0,-0.66406 q 0,-3.14453 1.1914,-5.60547 1.21094,-2.48047 3.35938,-3.86719 2.16797,-1.40625 4.6875,-1.40625 4.12109,0 6.40625,2.71484 2.28515,2.71485 2.28515,7.77344 l 0,1.50391 -14.3164,0 q 0.0781,3.125 1.8164,5.05859 1.75782,1.91406 4.45313,1.91406 1.91406,0 3.24219,-0.78125 1.32812,-0.78125 2.32421,-2.07031 l 2.20704,1.71875 q -2.65625,4.08203 -7.96875,4.08203 z m -0.44922,-18.94531 q -2.1875,0 -3.67188,1.60156 -1.48437,1.58203 -1.83594,4.45313 l 10.58594,0 0,-0.27344 q -0.15625,-2.75391 -1.48437,-4.25781 -1.32813,-1.52344 -3.59375,-1.52344 z" />
      <path
         id="path227"
         style=""
         d="m 896.20923,660.88935 0.11719,2.65625 q 2.42187,-3.04688 6.32812,-3.04688 6.69922,0 6.75781,7.55859 l 0,13.96485 -3.61328,0 0,-13.98438 q -0.0195,-2.28515 -1.05469,-3.3789 -1.01562,-1.09375 -3.18359,-1.09375 -1.75781,0 -3.08594,0.9375 -1.32812,0.9375 -2.07031,2.46093 l 0,15.0586 -3.61328,0 0,-21.13281 3.41797,0 z" />
      <path
         id="path229"
         style=""
         d="m 919.80298,655.77216 0,5.11719 3.94531,0 0,2.79296 -3.94531,0 0,13.10547 q 0,1.26953 0.52734,1.91407 0.52735,0.625 1.79688,0.625 0.625,0 1.71875,-0.23438 l 0,2.92969 q -1.42578,0.39062 -2.77344,0.39062 -2.42188,0 -3.65234,-1.46484 -1.23047,-1.46484 -1.23047,-4.16016 l 0,-13.10547 -3.84766,0 0,-2.79296 3.84766,0 0,-5.11719 3.61328,0 z" />
      <path
         id="path231"
         style=""
         d="m 940.99438,682.02216 q -0.3125,-0.625 -0.50781,-2.22656 -2.51953,2.61718 -6.01562,2.61718 -3.125,0 -5.13672,-1.75781 -1.99219,-1.77734 -1.99219,-4.49219 0,-3.30078 2.5,-5.11718 2.51953,-1.83594 7.07031,-1.83594 l 3.51563,0 0,-1.66016 q 0,-1.89453 -1.13281,-3.00781 -1.13282,-1.13281 -3.33985,-1.13281 -1.93359,0 -3.24219,0.97656 -1.30859,0.97656 -1.30859,2.36328 l -3.63281,0 q 0,-1.58203 1.11328,-3.04687 1.13281,-1.48438 3.04687,-2.34375 1.9336,-0.85938 4.23829,-0.85938 3.65234,0 5.72265,1.83594 2.07031,1.8164 2.14844,5.01953 l 0,9.72656 q 0,2.91016 0.74219,4.62891 l 0,0.3125 -3.78907,0 z m -5.99609,-2.75391 q 1.69922,0 3.22266,-0.8789 1.52343,-0.87891 2.20703,-2.28516 l 0,-4.33594 -2.83203,0 q -6.64063,0 -6.64063,3.88672 0,1.69922 1.13281,2.65625 1.13282,0.95703 2.91016,0.95703 z" />
      <path
         id="path233"
         style=""
         d="m 953.67017,682.02216 -3.61329,0 0,-30 3.61329,0 0,30 z" />
      <path
         id="path235"
         style=""
         d="m 765.38892,719.27997 q 0,-4.86328 2.30468,-7.8125 2.30469,-2.96875 6.03516,-2.96875 3.71094,0 5.87891,2.53906 l 0,-11.01562 3.61328,0 0,30 -3.32032,0 -0.17578,-2.26563 q -2.16797,2.65625 -6.03515,2.65625 -3.67188,0 -5.9961,-3.00781 -2.30468,-3.00781 -2.30468,-7.85156 l 0,-0.27344 z m 3.61328,0.41016 q 0,3.59375 1.48437,5.625 1.48438,2.03125 4.10156,2.03125 3.4375,0 5.01954,-3.08594 l 0,-9.70703 q -1.6211,-2.98828 -4.98047,-2.98828 -2.65625,0 -4.14063,2.05078 -1.48437,2.05078 -1.48437,6.07422 z" />
      <path
         id="path237"
         style=""
         d="m 801.89282,730.02216 q -0.3125,-0.625 -0.50781,-2.22656 -2.51953,2.61718 -6.01563,2.61718 -3.125,0 -5.13671,-1.75781 -1.99219,-1.77734 -1.99219,-4.49219 0,-3.30078 2.5,-5.11718 2.51953,-1.83594 7.07031,-1.83594 l 3.51563,0 0,-1.66016 q 0,-1.89453 -1.13282,-3.00781 -1.13281,-1.13281 -3.33984,-1.13281 -1.93359,0 -3.24219,0.97656 -1.30859,0.97656 -1.30859,2.36328 l -3.63281,0 q 0,-1.58203 1.11328,-3.04687 1.13281,-1.48438 3.04687,-2.34375 1.9336,-0.85938 4.23828,-0.85938 3.65235,0 5.72266,1.83594 2.07031,1.81641 2.14844,5.01953 l 0,9.72656 q 0,2.91016 0.74218,4.62891 l 0,0.3125 -3.78906,0 z m -5.99609,-2.75391 q 1.69922,0 3.22265,-0.8789 1.52344,-0.87891 2.20704,-2.28516 l 0,-4.33594 -2.83204,0 q -6.64062,0 -6.64062,3.88672 0,1.69922 1.13281,2.65625 1.13281,0.95703 2.91016,0.95703 z" />
      <path
         id="path239"
         style=""
         d="m 815.54517,703.77216 0,5.11719 3.94531,0 0,2.79297 -3.94531,0 0,13.10546 q 0,1.26954 0.52734,1.91407 0.52734,0.625 1.79687,0.625 0.625,0 1.71875,-0.23438 l 0,2.92969 q -1.42578,0.39062 -2.77343,0.39062 -2.42188,0 -3.65235,-1.46484 -1.23047,-1.46484 -1.23047,-4.16016 l 0,-13.10546 -3.84765,0 0,-2.79297 3.84765,0 0,-5.11719 3.61329,0 z" />
      <path
         id="path241"
         style=""
         d="m 836.73657,730.02216 q -0.3125,-0.625 -0.50781,-2.22656 -2.51953,2.61718 -6.01563,2.61718 -3.125,0 -5.13671,-1.75781 -1.99219,-1.77734 -1.99219,-4.49219 0,-3.30078 2.5,-5.11718 2.51953,-1.83594 7.07031,-1.83594 l 3.51563,0 0,-1.66016 q 0,-1.89453 -1.13282,-3.00781 -1.13281,-1.13281 -3.33984,-1.13281 -1.93359,0 -3.24219,0.97656 -1.30859,0.97656 -1.30859,2.36328 l -3.63281,0 q 0,-1.58203 1.11328,-3.04687 1.13281,-1.48438 3.04687,-2.34375 1.9336,-0.85938 4.23828,-0.85938 3.65235,0 5.72266,1.83594 2.07031,1.81641 2.14844,5.01953 l 0,9.72656 q 0,2.91016 0.74218,4.62891 l 0,0.3125 -3.78906,0 z m -5.99609,-2.75391 q 1.69922,0 3.22265,-0.8789 1.52344,-0.87891 2.20704,-2.28516 l 0,-4.33594 -2.83204,0 q -6.64062,0 -6.64062,3.88672 0,1.69922 1.13281,2.65625 1.13281,0.95703 2.91016,0.95703 z" />
    </g>
    <g
       id="flowRoot4242"
       style="font-style:normal;font-weight:normal;font-size:27.5px;line-height:125%;font-family:sans-serif;letter-spacing:0px;word-spacing:0px;fill:#000000;fill-opacity:1;stroke:none;stroke-width:1px;stroke-linecap:butt;stroke-linejoin:miter;stroke-opacity:1" />
    <g
       id="text4250"
       style="font-style:normal;font-variant:normal;font-weight:normal;font-stretch:normal;font-size:40px;line-height:120.00000477%;font-family:Roboto;-inkscape-font-specification:'Roboto, Normal';text-align:center;letter-spacing:0px;word-spacing:0px;writing-mode:lr-tb;text-anchor:middle;fill:#000000;fill-opacity:1;stroke:none;stroke-width:1px;stroke-linecap:butt;stroke-linejoin:miter;stroke-opacity:1">
      <path
         id="path245"
         style="font-style:normal;font-variant:normal;font-weight:normal;font-stretch:normal;font-size:40px;line-height:120.00000477%;font-family:Roboto;-inkscape-font-specification:'Roboto, Normal';text-align:center;writing-mode:lr-tb;text-anchor:middle"
         d="m 477.04205,506.07147 0,-28.4375 8.02735,0 q 3.71093,0 6.5625,1.64063 2.85156,1.64062 4.39453,4.66797 1.5625,3.02734 1.58203,6.95312 l 0,1.81641 q 0,4.02343 -1.5625,7.05078 -1.54297,3.02734 -4.43359,4.64844 -2.8711,1.62109 -6.69922,1.66015 l -7.8711,0 z m 3.75,-25.35156 0,22.28516 3.94532,0 q 4.33593,0 6.73828,-2.69532 2.42187,-2.69531 2.42187,-7.67578 l 0,-1.66015 q 0,-4.84375 -2.28515,-7.51954 -2.26563,-2.69531 -6.44532,-2.73437 l -4.375,0 z" />
      <path
         id="path247"
         style="font-style:normal;font-variant:normal;font-weight:normal;font-stretch:normal;font-size:40px;line-height:120.00000477%;font-family:Roboto;-inkscape-font-specification:'Roboto, Normal';text-align:center;writing-mode:lr-tb;text-anchor:middle"
         d="m 515.77252,506.07147 q -0.3125,-0.625 -0.50781,-2.22656 -2.51953,2.61719 -6.01563,2.61719 -3.125,0 -5.13671,-1.75782 -1.99219,-1.77734 -1.99219,-4.49218 0,-3.30078 2.5,-5.11719 2.51953,-1.83594 7.07031,-1.83594 l 3.51563,0 0,-1.66015 q 0,-1.89454 -1.13282,-3.00782 -1.13281,-1.13281 -3.33984,-1.13281 -1.93359,0 -3.24219,0.97656 -1.30859,0.97657 -1.30859,2.36328 l -3.63281,0 q 0,-1.58203 1.11328,-3.04687 1.13281,-1.48438 3.04687,-2.34375 1.9336,-0.85938 4.23828,-0.85938 3.65235,0 5.72266,1.83594 2.07031,1.81641 2.14844,5.01953 l 0,9.72657 q 0,2.91015 0.74218,4.6289 l 0,0.3125 -3.78906,0 z m -5.99609,-2.7539 q 1.69922,0 3.22265,-0.87891 1.52344,-0.87891 2.20704,-2.28516 l 0,-4.33593 -2.83204,0 q -6.64062,0 -6.64062,3.88671 0,1.69922 1.13281,2.65625 1.13281,0.95704 2.91016,0.95704 z" />
      <path
         id="path249"
         style="font-style:normal;font-variant:normal;font-weight:normal;font-stretch:normal;font-size:40px;line-height:120.00000477%;font-family:Roboto;-inkscape-font-specification:'Roboto, Normal';text-align:center;writing-mode:lr-tb;text-anchor:middle"
         d="m 529.42487,479.82147 0,5.11719 3.94531,0 0,2.79297 -3.94531,0 0,13.10547 q 0,1.26953 0.52734,1.91406 0.52734,0.625 1.79687,0.625 0.625,0 1.71875,-0.23438 l 0,2.92969 q -1.42578,0.39063 -2.77343,0.39063 -2.42188,0 -3.65235,-1.46485 -1.23047,-1.46484 -1.23047,-4.16015 l 0,-13.10547 -3.84765,0 0,-2.79297 3.84765,0 0,-5.11719 3.61329,0 z" />
      <path
         id="path251"
         style="font-style:normal;font-variant:normal;font-weight:normal;font-stretch:normal;font-size:40px;line-height:120.00000477%;font-family:Roboto;-inkscape-font-specification:'Roboto, Normal';text-align:center;writing-mode:lr-tb;text-anchor:middle"
         d="m 550.61627,506.07147 q -0.3125,-0.625 -0.50781,-2.22656 -2.51953,2.61719 -6.01563,2.61719 -3.125,0 -5.13671,-1.75782 -1.99219,-1.77734 -1.99219,-4.49218 0,-3.30078 2.5,-5.11719 2.51953,-1.83594 7.07031,-1.83594 l 3.51563,0 0,-1.66015 q 0,-1.89454 -1.13282,-3.00782 -1.13281,-1.13281 -3.33984,-1.13281 -1.93359,0 -3.24219,0.97656 -1.30859,0.97657 -1.30859,2.36328 l -3.63281,0 q 0,-1.58203 1.11328,-3.04687 1.13281,-1.48438 3.04687,-2.34375 1.9336,-0.85938 4.23828,-0.85938 3.65235,0 5.72266,1.83594 2.07031,1.81641 2.14844,5.01953 l 0,9.72657 q 0,2.91015 0.74218,4.6289 l 0,0.3125 -3.78906,0 z m -5.99609,-2.7539 q 1.69922,0 3.22265,-0.87891 1.52344,-0.87891 2.20704,-2.28516 l 0,-4.33593 -2.83204,0 q -6.64062,0 -6.64062,3.88671 0,1.69922 1.13281,2.65625 1.13281,0.95704 2.91016,0.95704 z" />
      <path
         id="path253"
         style="font-style:normal;font-variant:normal;font-weight:normal;font-stretch:normal;font-size:40px;line-height:120.00000477%;font-family:Roboto;-inkscape-font-specification:'Roboto, Normal';text-align:center;writing-mode:lr-tb;text-anchor:middle"
         d="m 461.90533,548.46601 q 0,-1.46485 -1.11328,-2.26563 -1.09375,-0.82031 -3.84765,-1.40625 -2.73438,-0.58594 -4.35547,-1.40625 -1.60156,-0.82031 -2.38281,-1.95312 -0.76172,-1.13282 -0.76172,-2.69532 0,-2.59765 2.1875,-4.39453 2.20703,-1.79687 5.625,-1.79687 3.59375,0 5.82031,1.85547 2.24609,1.85546 2.24609,4.74609 l -3.63281,0 q 0,-1.48438 -1.26953,-2.55859 -1.25,-1.07422 -3.16406,-1.07422 -1.97266,0 -3.08594,0.85937 -1.11328,0.85938 -1.11328,2.2461 0,1.30859 1.03515,1.97265 1.03516,0.66406 3.73047,1.26953 2.71485,0.60547 4.39453,1.44532 1.67969,0.83984 2.48047,2.03125 0.82032,1.17187 0.82032,2.87109 0,2.83203 -2.26563,4.55078 -2.26562,1.69922 -5.87891,1.69922 -2.53906,0 -4.49218,-0.89844 -1.95313,-0.89844 -3.06641,-2.5 -1.09375,-1.62109 -1.09375,-3.49609 l 3.61328,0 q 0.0977,1.8164 1.44531,2.89062 1.36719,1.05469 3.59375,1.05469 2.05079,0 3.28125,-0.82031 1.25,-0.83985 1.25,-2.22656 z" />
      <path
         id="path255"
         style="font-style:normal;font-variant:normal;font-weight:normal;font-stretch:normal;font-size:40px;line-height:120.00000477%;font-family:Roboto;-inkscape-font-specification:'Roboto, Normal';text-align:center;writing-mode:lr-tb;text-anchor:middle"
         d="m 478.70221,551.51288 q 1.93359,0 3.37891,-1.17187 1.44531,-1.17188 1.60156,-2.92969 l 3.41797,0 q -0.0977,1.8164 -1.25,3.45703 -1.15235,1.64062 -3.08594,2.61719 -1.91406,0.97656 -4.0625,0.97656 -4.31641,0 -6.875,-2.87109 -2.53906,-2.89063 -2.53906,-7.89063 l 0,-0.60547 q 0,-3.08594 1.13281,-5.48828 1.13281,-2.40234 3.24219,-3.73047 2.1289,-1.32812 5.01953,-1.32812 3.55469,0 5.89844,2.1289 2.36328,2.12891 2.51953,5.52735 l -3.41797,0 q -0.15625,-2.05078 -1.5625,-3.35938 -1.38672,-1.32812 -3.4375,-1.32812 -2.75391,0 -4.27735,1.99218 -1.5039,1.97266 -1.5039,5.72266 l 0,0.68359 q 0,3.65235 1.5039,5.625 1.50391,1.97266 4.29688,1.97266 z" />
      <path
         id="path257"
         style="font-style:normal;font-variant:normal;font-weight:normal;font-stretch:normal;font-size:40px;line-height:120.00000477%;font-family:Roboto;-inkscape-font-specification:'Roboto, Normal';text-align:center;writing-mode:lr-tb;text-anchor:middle"
         d="m 495.08893,554.07147 -3.61328,0 0,-21.13281 3.61328,0 0,21.13281 z m -3.90625,-26.73828 q 0,-0.8789 0.52734,-1.48437 0.54688,-0.60547 1.60156,-0.60547 1.05469,0 1.60157,0.60547 0.54687,0.60547 0.54687,1.48437 0,0.87891 -0.54687,1.46485 -0.54688,0.58593 -1.60157,0.58593 -1.05468,0 -1.60156,-0.58593 -0.52734,-0.58594 -0.52734,-1.46485 z" />
      <path
         id="path259"
         style="font-style:normal;font-variant:normal;font-weight:normal;font-stretch:normal;font-size:40px;line-height:120.00000477%;font-family:Roboto;-inkscape-font-specification:'Roboto, Normal';text-align:center;writing-mode:lr-tb;text-anchor:middle"
         d="m 509.62018,554.4621 q -4.29688,0 -6.99219,-2.8125 -2.69531,-2.83203 -2.69531,-7.55859 l 0,-0.66407 q 0,-3.14453 1.1914,-5.60547 1.21094,-2.48046 3.35938,-3.86718 2.16797,-1.40625 4.6875,-1.40625 4.12109,0 6.40625,2.71484 2.28516,2.71484 2.28516,7.77344 l 0,1.5039 -14.31641,0 q 0.0781,3.125 1.81641,5.0586 1.75781,1.91406 4.45312,1.91406 1.91406,0 3.24219,-0.78125 1.32812,-0.78125 2.32422,-2.07031 l 2.20703,1.71875 q -2.65625,4.08203 -7.96875,4.08203 z m -0.44922,-18.94531 q -2.1875,0 -3.67188,1.60156 -1.48437,1.58203 -1.83593,4.45312 l 10.58593,0 0,-0.27343 q -0.15625,-2.75391 -1.48437,-4.25782 -1.32813,-1.52343 -3.59375,-1.52343 z" />
      <path
         id="path261"
         style="font-style:normal;font-variant:normal;font-weight:normal;font-stretch:normal;font-size:40px;line-height:120.00000477%;font-family:Roboto;-inkscape-font-specification:'Roboto, Normal';text-align:center;writing-mode:lr-tb;text-anchor:middle"
         d="m 525.44049,532.93866 0.11719,2.65625 q 2.42187,-3.04687 6.32812,-3.04687 6.69922,0 6.75782,7.55859 l 0,13.96484 -3.61329,0 0,-13.98437 q -0.0195,-2.28516 -1.05468,-3.37891 -1.01563,-1.09375 -3.1836,-1.09375 -1.75781,0 -3.08593,0.9375 -1.32813,0.9375 -2.07032,2.46094 l 0,15.05859 -3.61328,0 0,-21.13281 3.41797,0 z" />
      <path
         id="path263"
         style="font-style:normal;font-variant:normal;font-weight:normal;font-stretch:normal;font-size:40px;line-height:120.00000477%;font-family:Roboto;-inkscape-font-specification:'Roboto, Normal';text-align:center;writing-mode:lr-tb;text-anchor:middle"
         d="m 552.60846,551.51288 q 1.93359,0 3.37891,-1.17187 1.44531,-1.17188 1.60156,-2.92969 l 3.41797,0 q -0.0977,1.8164 -1.25,3.45703 -1.15235,1.64062 -3.08594,2.61719 -1.91406,0.97656 -4.0625,0.97656 -4.31641,0 -6.875,-2.87109 -2.53906,-2.89063 -2.53906,-7.89063 l 0,-0.60547 q 0,-3.08594 1.13281,-5.48828 1.13281,-2.40234 3.24219,-3.73047 2.1289,-1.32812 5.01953,-1.32812 3.55469,0 5.89844,2.1289 2.36328,2.12891 2.51953,5.52735 l -3.41797,0 q -0.15625,-2.05078 -1.5625,-3.35938 -1.38672,-1.32812 -3.4375,-1.32812 -2.75391,0 -4.27735,1.99218 -1.5039,1.97266 -1.5039,5.72266 l 0,0.68359 q 0,3.65235 1.5039,5.625 1.50391,1.97266 4.29688,1.97266 z" />
      <path
         id="path265"
         style="font-style:normal;font-variant:normal;font-weight:normal;font-stretch:normal;font-size:40px;line-height:120.00000477%;font-family:Roboto;-inkscape-font-specification:'Roboto, Normal';text-align:center;writing-mode:lr-tb;text-anchor:middle"
         d="m 573.83893,554.4621 q -4.29688,0 -6.99219,-2.8125 -2.69531,-2.83203 -2.69531,-7.55859 l 0,-0.66407 q 0,-3.14453 1.1914,-5.60547 1.21094,-2.48046 3.35938,-3.86718 2.16797,-1.40625 4.6875,-1.40625 4.12109,0 6.40625,2.71484 2.28516,2.71484 2.28516,7.77344 l 0,1.5039 -14.31641,0 q 0.0781,3.125 1.81641,5.0586 1.75781,1.91406 4.45312,1.91406 1.91406,0 3.24219,-0.78125 1.32812,-0.78125 2.32422,-2.07031 l 2.20703,1.71875 q -2.65625,4.08203 -7.96875,4.08203 z m -0.44922,-18.94531 q -2.1875,0 -3.67188,1.60156 -1.48437,1.58203 -1.83593,4.45312 l 10.58593,0 0,-0.27343 q -0.15625,-2.75391 -1.48437,-4.25782 -1.32813,-1.52343 -3.59375,-1.52343 z" />
    </g>
  </g>
</svg>
